{
.appVersion = "1131";
DisplayStrings = (
"/sinNIi/sinMatraAe/sinMatraAae/sinTtha/sinTthU/sinTtha/sinTthI/sinTthIi/sinNTha/sinTtTtha/sinTth.virama/sinTthUu/sinBU/sinMba/sinMbU/sinPhU/sinThU/sinU/sinKa/sinPa/sinRI/sinCU/sinKa/sinNa/sinNU",
"/sinTthI/sinTthIi/sinPhI/sinPhIi/sinDdhI/sinDdhIi/sinThI/sinThIi",
"/sinMatraI.alt2/sinHI/sinMatraI.alt2/sinMatraI.alt2/sinBhI/sinGa/sinGI/sinHIi/sinGa/sinSha/sinShI/sinShI/sinShI/sinShRI/sinCI/sinSha/sinShRIi/sinGa/sinNna/sinNnU/sinNnI/sinNnIi/sinNn.virama/sinNnUu/sinGIi",
"/sinNDIi/sinDIi/sinDI/sinJnyIi/sinNdIi/sinNyIi/sinDRIi/sinJnyRIi",
"/sinBa/sinBI/sinMI",
"/sinHa",
"/sinK.virama/sinEe/sinMatraEe/sinMatraOo/sinBh.virama/sinD.virama/sinDdh.virama/sinDR.virama/sinF.virama/sinG.virama/sinGh.virama/sinGR.virama/sinH.virama/sinHR.virama/sinJnya/sinJny.virama/sinJnyR.virama/sinKSs.virama/sinL.virama/sinLl.virama/sinN.virama/sinND.virama/sinNd.virama/sinNn.virama/sinNng.virama/sinNy.virama/sinP.virama/sinPh.virama/sinPR.virama/sinS.virama/sinSh.virama/sinShR.virama/sinSs.virama/sinSsR.virama/sinT.virama/sinTh.virama/sinTR.virama/sinTth.virama/sinTtTth.virama/sinY.post.virama/sinY.virama",
"/sinB.virama/sinBR.virama/sinC.virama/sinCR.virama/sinDDdh.virama/sinDd.virama/sinDdR.virama/sinDh.virama '/sinDhR.virama/sinV.virama/sinDV.virama/sinJh.virama/sinJhR.virama/sinKhR.virama/sinKh.virama/sinKV.virama/sinMa/sinM.virama/sinMba/sinMb.virama/sinMR.virama !/sinNndd.virama/sinNV.virama/sinTt.virama/sinTtR.virama/sinTV.virama/sinV.virama/sinVR.virama",
"/quoteleft/quoteright",
"/quoteleft/sinRIi/quotedblleft/quotedblright/quoteleft/quoteright",
"",
"/sinLI/sinLIi/sinU/sinNnga/sinG.virama/sinGRa/sinGU/sinGUu",
"/sinNga/sinNgI/sinNgIi/sinM.virama/sinNg.virama",
"/sinJ.virama/sinDU/sinDUu/sinPUu/sinDa/sinVUu/sinVU/sinDVU",
"/sinMatraAa.virama/sinDI/sinMI/sinMIi/sinNnI/sinRa/sinKa/sinRI/sinMa/sinMI/sinTa/sinTI/sinCI/sinCa  "
);
copyright = "Copyright (c) 2016 Pathum Egodawatta";
customParameters = (
{
name = licenseURL;

glyphs = (
{
glyphname = A;
layers = (
{
layerId = "51BB9282-3B82-4DF1-A67A-294D3E37D73A";
paths = (
{
closed = 1;
nodes = (
"255 39 LINE",
"218 39 OFFCURVE",
"167 38 OFFCURVE",
"183 112 CURVE SMOOTH",
"195 162 OFFCURVE",
"263 377 OFFCURVE",
"310 537 CURVE",
"316 505 OFFCURVE",
"327 455 OFFCURVE",
"333 425 CURVE",
"367 313 OFFCURVE",
"424 207 OFFCURVE",
"450 95 CURVE SMOOTH",
"460 50 OFFCURVE",
"430 44 OFFCURVE",
"376 45 CURVE",
"383 0 LINE",
"634 0 LINE",
"627 39 LINE",
"574 38 OFFCURVE",
"558 80 OFFCURVE",
"545 116 CURVE SMOOTH",
"468 322 OFFCURVE",
"415 462 OFFCURVE",
"368 624 CURVE",
"338 614 OFFCURVE",
"301 604 OFFCURVE",
"271 600 CURVE",
"229 457 OFFCURVE",
"172 290 OFFCURVE",
"104 105 CURVE SMOOTH",
"89 66 OFFCURVE",
"61 50 OFFCURVE",
"15 47 CURVE",
"23 0 LINE",
"263 0 LINE"
);
},
{
closed = 1;
nodes = (
"446 275 LINE",
"197 269 LINE",
"197 214 LINE",
"446 216 LINE"
);
}
);
width = 650;
}
);
unicode = 0041;
},
{
glyphname = Acircumflexhookabove;
layers = (
{
components = (
{
name = A;
},
{
name = circumflexcomb;
transform = "{1, 0, 0, 1, 310, -41}";
}
);
layerId = "51BB9282-3B82-4DF1-A67A-294D3E37D73A";
paths = (
{
closed = 1;
nodes = (
"463 956 OFFCURVE",
"429 956 CURVE SMOOTH",
"401 956 OFFCURVE",
"371 946 OFFCURVE",
"358 940 CURVE",
"350 926 OFFCURVE",
"348 907 OFFCURVE",
"351 892 CURVE",
"366 899 OFFCURVE",
"383 904 OFFCURVE",
"393 904 CURVE SMOOTH",
"423 904 OFFCURVE",
"437 891 OFFCURVE",
"437 864 CURVE SMOOTH",
"437 826 OFFCURVE",
"408 833 OFFCURVE",
"407 772 CURVE",
"460 775 LINE",
"471 829 OFFCURVE",
"504 830 OFFCURVE",
"504 887 CURVE SMOOTH",
"504 946 OFFCURVE"
);
}
);
width = 650;
}
);
unicode = 1EA8;
},
{
glyphname = AE;
layers = (
{
layerId = "51BB9282-3B82-4DF1-A67A-294D3E37D73A";
paths = (
{
closed = 1;
nodes = (
"333 615 CURVE",
"289 496 OFFCURVE",
"198 289 OFFCURVE",
"104 105 CURVE SMOOTH",
"85 69 OFFCURVE",
"61 50 OFFCURVE",
"15 47 CURVE",
"23 0 LINE",
"247 0 LINE",
"239 39 LINE",
"203 39 OFFCURVE",
"182 38 OFFCURVE",
"199 112 CURVE SMOOTH",
"210 164 OFFCURVE",
"323 410 OFFCURVE",
"399 568 CURVE",
"373 548 LINE",
"413 559 OFFCURVE",
"445 557 OFFCURVE",
"448 511 CURVE SMOOTH",
"450 460 OFFCURVE",
"452 405 OFFCURVE",
"452 351 CURVE SMOOTH",
"452 263 OFFCURVE",
"449 176 OFFCURVE",
"444 109 CURVE SMOOTH",
"440 71 OFFCURVE",
"436 52 OFFCURVE",
"377 47 CURVE",
"381 0 LINE",
"831 0 LINE",
"834 40 OFFCURVE",
"834 89 OFFCURVE",
"834 123 CURVE SMOOTH",
"834 146 OFFCURVE",
"834 162 OFFCURVE",
"834 163 CURVE",
"778 157 LINE",
"767 106 OFFCURVE",
"749 60 OFFCURVE",
"716 22 CURVE",
"776 70 LINE",
"745 62 OFFCURVE",
"668 55 OFFCURVE",
"608 55 CURVE SMOOTH",
"593 55 OFFCURVE",
"574 55 OFFCURVE",
"564 56 CURVE SMOOTH",
"537 59 OFFCURVE",
"533 83 OFFCURVE",
"532 104 CURVE SMOOTH",
"531 146 OFFCURVE",
"529 203 OFFCURVE",
"529 266 CURVE SMOOTH",
"529 343 OFFCURVE",
"531 432 OFFCURVE",
"540 518 CURVE SMOOTH",
"542 539 OFFCURVE",
"551 562 OFFCURVE",
"590 562 CURVE SMOOTH",
"646 562 OFFCURVE",
"716 562 OFFCURVE",
"778 556 CURVE",
"705 594 LINE",
"738 564 OFFCURVE",
"758 511 OFFCURVE",
"763 465 CURVE",
"819 460 LINE",
"819 460 OFFCURVE",
"824 509 OFFCURVE",
"824 554 CURVE",
"823 617 LINE",
"748 613 OFFCURVE",
"662 612 OFFCURVE",
"616 612 CURVE SMOOTH",
"600 612 OFFCURVE",
"581 612 OFFCURVE",
"560 612 CURVE SMOOTH",
"529 612 OFFCURVE",
"337 616 OFFCURVE"
);
},
{
closed = 1;
nodes = (
"610 280 OFFCURVE",
"673 280 CURVE SMOOTH",
"699 280 OFFCURVE",
"726 280 OFFCURVE",
"755 278 CURVE",
"755 348 LINE",
"614 335 LINE",
"486 335 OFFCURVE",
"333 331 OFFCURVE",
"228 334 CURVE",
"220 268 LINE",
"288 276 OFFCURVE"
);
}
);
width = 887;
}
);
leftMetricsKey = "=A";
unicode = 00C6;
},
{
glyphname = B;
layers = (
{
layerId = "51BB9282-3B82-4DF1-A67A-294D3E37D73A";
paths = (
{
closed = 1;
nodes = (
"412 0 OFFCURVE",
"534 45 OFFCURVE",
"536 177 CURVE SMOOTH",
"537 256 OFFCURVE",
"484 324 OFFCURVE",
"392 336 CURVE",
"367 317 LINE",
"450 321 OFFCURVE",
"501 403 OFFCURVE",
"500 476 CURVE SMOOTH",
"499 568 OFFCURVE",
"421 618 OFFCURVE",
"317 618 CURVE SMOOTH",
"202 618 OFFCURVE",
"164 607 OFFCURVE",
"42 614 CURVE",
"50 566 LINE",
"116 565 OFFCURVE",
"122 528 OFFCURVE",
"125 484 CURVE SMOOTH",
"131 360 OFFCURVE",
"129 263 OFFCURVE",
"122 98 CURVE SMOOTH",
"120 59 OFFCURVE",
"105 44 OFFCURVE",
"44 44 CURVE",
"52 0 LINE",
"288 0 LINE SMOOTH"
);
},
{
closed = 1;
nodes = (
"213 58 OFFCURVE",
"207 102 CURVE SMOOTH",
"199 159 OFFCURVE",
"197 212 OFFCURVE",
"198 289 CURVE",
"225 294 OFFCURVE",
"272 298 OFFCURVE",
"305 297 CURVE SMOOTH",
"393 295 OFFCURVE",
"441 243 OFFCURVE",
"441 176 CURVE SMOOTH",
"441 99 OFFCURVE",
"375 52 OFFCURVE",
"296 52 CURVE SMOOTH",
"237 52 OFFCURVE"
);
},
{
closed = 1;
nodes = (
"200 503 OFFCURVE",
"206 562 CURVE",
"224 569 OFFCURVE",
"258 574 OFFCURVE",
"293 573 CURVE SMOOTH",
"353 571 OFFCURVE",
"406 533 OFFCURVE",
"405 461 CURVE SMOOTH",
"404 413 OFFCURVE",
"376 351 OFFCURVE",
"301 347 CURVE SMOOTH",
"273 346 OFFCURVE",
"240 345 OFFCURVE",
"199 347 CURVE",
"200 422 OFFCURVE"
);
}
);
width = 567;
}
);
unicode = 0042;
},
{
glyphname = C;
layers = (
{
layerId = "51BB9282-3B82-4DF1-A67A-294D3E37D73A";
paths = (
{
closed = 1;
nodes = (
"77 84 OFFCURVE",
"77 246 CURVE SMOOTH",
"77 477 OFFCURVE",
"229 615 OFFCURVE",
"452 615 CURVE SMOOTH",
"537 615 OFFCURVE",
"583 595 OFFCURVE",
"583 595 CURVE",
"584 587 OFFCURVE",
"584 575 OFFCURVE",
"584 562 CURVE SMOOTH",
"584 516 OFFCURVE",
"581 449 OFFCURVE",
"574 424 CURVE",
"529 426 LINE",
"504 494 OFFCURVE",
"450 571 OFFCURVE",
"414 577 CURVE",
"417 580 OFFCURVE",
"424 581 OFFCURVE",
"433 581 CURVE SMOOTH",
"464 581 OFFCURVE",
"523 563 OFFCURVE",
"523 523 CURVE SMOOTH",
"523 514 OFFCURVE",
"521 506 OFFCURVE",
"515 496 CURVE",
"502 499 OFFCURVE",
"470 552 OFFCURVE",
"376 552 CURVE SMOOTH",
"253 552 OFFCURVE",
"179 448 OFFCURVE",
"179 280 CURVE SMOOTH",
"179 148 OFFCURVE",
"238 48 OFFCURVE",
"390 48 CURVE SMOOTH",
"456 48 OFFCURVE",
"517 80 OFFCURVE",
"557 118 CURVE",
"588 85 LINE",
"535 17 OFFCURVE",
"458 -18 OFFCURVE",
"360 -18 CURVE SMOOTH",
"183 -18 OFFCURVE"
);
}
);
width = 617;
}
);
unicode = 0043;
},
{
glyphname = D;
layers = (
{
layerId = "51BB9282-3B82-4DF1-A67A-294D3E37D73A";
paths = (
{
closed = 1;
nodes = (
"211 -1 OFFCURVE",
"263 0 CURVE SMOOTH",
"477 3 OFFCURVE",
"591 158 OFFCURVE",
"591 363 CURVE SMOOTH",
"590 531 OFFCURVE",
"500 619 OFFCURVE",
"328 619 CURVE SMOOTH",
"259 619 OFFCURVE",
"162 607 OFFCURVE",
"22 615 CURVE",
"28 567 LINE",
"99 572 OFFCURVE",
"105 529 OFFCURVE",
"107 484 CURVE SMOOTH",
"113 361 OFFCURVE",
"111 266 OFFCURVE",
"104 100 CURVE SMOOTH",
"102 62 OFFCURVE",
"71 43 OFFCURVE",
"18 46 CURVE",
"25 0 LINE",
"82 0 OFFCURVE"
);
},
{
closed = 1;
nodes = (
"193 75 OFFCURVE",
"189 111 CURVE SMOOTH",
"182 172 OFFCURVE",
"186 249 OFFCURVE",
"186 343 CURVE SMOOTH",
"187 408 OFFCURVE",
"192 479 OFFCURVE",
"197 554 CURVE",
"218 561 OFFCURVE",
"257 569 OFFCURVE",
"299 568 CURVE SMOOTH",
"443 565 OFFCURVE",
"504 460 OFFCURVE",
"504 319 CURVE SMOOTH",
"502 184 OFFCURVE",
"436 62 OFFCURVE",
"307 60 CURVE SMOOTH",
"229 59 OFFCURVE"
);
}
);
width = 631;
}
);
unicode = 0044;
},
{
glyphname = E;
layers = (
{
layerId = "51BB9282-3B82-4DF1-A67A-294D3E37D73A";
paths = (
{
closed = 1;
nodes = (
"484 40 OFFCURVE",
"484 89 OFFCURVE",
"484 123 CURVE SMOOTH",
"484 146 OFFCURVE",
"484 162 OFFCURVE",
"484 163 CURVE",
"429 157 LINE",
"417 106 OFFCURVE",
"400 60 OFFCURVE",
"367 22 CURVE",
"427 70 LINE",
"395 62 OFFCURVE",
"319 55 OFFCURVE",
"258 55 CURVE SMOOTH",
"243 55 OFFCURVE",
"225 55 OFFCURVE",
"215 56 CURVE SMOOTH",
"187 59 OFFCURVE",
"183 83 OFFCURVE",
"182 104 CURVE SMOOTH",
"181 146 OFFCURVE",
"179 203 OFFCURVE",
"179 266 CURVE SMOOTH",
"179 343 OFFCURVE",
"182 432 OFFCURVE",
"190 518 CURVE SMOOTH",
"193 541 OFFCURVE",
"202 564 OFFCURVE",
"240 564 CURVE SMOOTH",
"296 564 OFFCURVE",
"367 562 OFFCURVE",
"429 556 CURVE",
"356 594 LINE",
"389 564 OFFCURVE",
"408 511 OFFCURVE",
"413 465 CURVE",
"469 460 LINE",
"469 460 OFFCURVE",
"474 509 OFFCURVE",
"474 554 CURVE",
"474 617 LINE",
"399 613 OFFCURVE",
"313 612 OFFCURVE",
"266 612 CURVE SMOOTH",
"250 612 OFFCURVE",
"231 612 OFFCURVE",
"210 612 CURVE SMOOTH",
"148 612 OFFCURVE",
"72 613 OFFCURVE",
"28 616 CURVE",
"32 569 LINE",
"85 570 OFFCURVE",
"96 547 OFFCURVE",
"99 511 CURVE SMOOTH",
"101 460 OFFCURVE",
"102 405 OFFCURVE",
"102 351 CURVE SMOOTH",
"102 263 OFFCURVE",
"99 176 OFFCURVE",
"94 109 CURVE SMOOTH",
"91 71 OFFCURVE",
"86 52 OFFCURVE",
"27 47 CURVE",
"32 0 LINE",
"481 0 LINE"
);
},
{
closed = 1;
nodes = (
"260 287 OFFCURVE",
"323 287 CURVE SMOOTH",
"350 287 OFFCURVE",
"377 286 OFFCURVE",
"405 285 CURVE",
"405 355 LINE",
"288 342 LINE",
"132 341 LINE",
"132 283 LINE",
"200 283 OFFCURVE"
);
}
);
width = 537;
}
);
unicode = 0045;
},
{
glyphname = F;
layers = (
{
layerId = "51BB9282-3B82-4DF1-A67A-294D3E37D73A";
paths = (
{
closed = 1;
nodes = (
"305 350 LINE",
"123 349 LINE",
"123 292 LINE",
"219 293 OFFCURVE",
"312 292 OFFCURVE",
"408 286 CURVE",
"408 363 LINE"
);
},
{
closed = 1;
nodes = (
"182 347 OFFCURVE",
"194 511 CURVE SMOOTH",
"196 543 OFFCURVE",
"209 561 OFFCURVE",
"253 561 CURVE SMOOTH",
"437 555 LINE",
"371 594 LINE",
"404 564 OFFCURVE",
"424 504 OFFCURVE",
"429 459 CURVE",
"484 453 LINE",
"484 453 OFFCURVE",
"490 509 OFFCURVE",
"490 554 CURVE",
"489 617 LINE",
"391 613 OFFCURVE",
"306 611 OFFCURVE",
"240 611 CURVE SMOOTH",
"176 611 OFFCURVE",
"92 611 OFFCURVE",
"33 616 CURVE",
"38 569 LINE",
"96 568 OFFCURVE",
"103 547 OFFCURVE",
"105 511 CURVE SMOOTH",
"112 374 OFFCURVE",
"109 209 OFFCURVE",
"102 109 CURVE SMOOTH",
"99 68 OFFCURVE",
"102 52 OFFCURVE",
"35 47 CURVE",
"40 0 LINE",
"270 0 LINE",
"263 39 LINE",
"249 39 OFFCURVE",
"188 39 OFFCURVE",
"187 112 CURVE SMOOTH",
"186 165 OFFCURVE"
);
}
);
width = 514;
}
);
unicode = 0046;
},
{
glyphname = G;
layers = (
{
layerId = "51BB9282-3B82-4DF1-A67A-294D3E37D73A";
paths = (
{
closed = 1;
nodes = (
"28 89 OFFCURVE",
"26 248 CURVE SMOOTH",
"24 439 OFFCURVE",
"142 616 OFFCURVE",
"395 618 CURVE SMOOTH",
"488 618 OFFCURVE",
"549 598 OFFCURVE",
"549 598 CURVE",
"551 559 OFFCURVE",
"556 482 OFFCURVE",
"554 450 CURVE",
"503 452 LINE",
"478 520 OFFCURVE",
"430 576 OFFCURVE",
"394 581 CURVE",
"405 598 OFFCURVE",
"545 583 OFFCURVE",
"504 510 CURVE",
"491 513 OFFCURVE",
"432 567 OFFCURVE",
"337 565 CURVE SMOOTH",
"222 564 OFFCURVE",
"127 448 OFFCURVE",
"125 297 CURVE SMOOTH",
"122 163 OFFCURVE",
"193 44 OFFCURVE",
"336 42 CURVE SMOOTH",
"420 40 OFFCURVE",
"459 66 OFFCURVE",
"494 106 CURVE",
"544 82 LINE",
"488 1 OFFCURVE",
"387 -21 OFFCURVE",
"312 -21 CURVE SMOOTH",
"147 -21 OFFCURVE"
);
},
{
closed = 1;
nodes = (
"461 148 OFFCURVE",
"460 203 CURVE",
"457 234 OFFCURVE",
"436 254 OFFCURVE",
"383 251 CURVE",
"378 300 LINE",
"465 294 OFFCURVE",
"522 296 OFFCURVE",
"605 300 CURVE",
"613 254 LINE",
"600 255 OFFCURVE",
"547 260 OFFCURVE",
"547 201 CURVE SMOOTH",
"547 160 OFFCURVE",
"547 109 OFFCURVE",
"544 82 CURVE",
"440 35 LINE",
"459 83 OFFCURVE"
);
}
);
width = 637;
}
);
unicode = 0047;
},
{
glyphname = H;
layers = (
{
layerId = "51BB9282-3B82-4DF1-A67A-294D3E37D73A";
paths = (
{
closed = 1;
nodes = (
"290 49 LINE",
"249 45 OFFCURVE",
"208 63 OFFCURVE",
"206 118 CURVE SMOOTH",
"199 283 OFFCURVE",
"205 409 OFFCURVE",
"213 511 CURVE SMOOTH",
"216 559 OFFCURVE",
"248 564 OFFCURVE",
"295 567 CURVE",
"293 581 OFFCURVE",
"289 617 OFFCURVE",
"289 617 CURVE",
"214 613 OFFCURVE",
"121 612 OFFCURVE",
"27 616 CURVE",
"28 609 OFFCURVE",
"32 579 OFFCURVE",
"34 567 CURVE",
"109 569 OFFCURVE",
"117 537 OFFCURVE",
"119 491 CURVE SMOOTH",
"124 350 OFFCURVE",
"121 192 OFFCURVE",
"116 106 CURVE SMOOTH",
"113 58 OFFCURVE",
"79 49 OFFCURVE",
"30 49 CURVE",
"36 -1 LINE",
"298 0 LINE"
);
},
{
closed = 1;
nodes = (
"567 341 LINE",
"410 336 LINE",
"149 335 LINE",
"149 276 LINE",
"567 276 LINE"
);
},
{
closed = 1;
nodes = (
"661 49 LINE",
"621 45 OFFCURVE",
"580 63 OFFCURVE",
"578 118 CURVE SMOOTH",
"571 283 OFFCURVE",
"577 409 OFFCURVE",
"584 511 CURVE SMOOTH",
"588 559 OFFCURVE",
"620 564 OFFCURVE",
"667 567 CURVE",
"665 581 OFFCURVE",
"661 617 OFFCURVE",
"661 617 CURVE",
"586 613 OFFCURVE",
"494 612 OFFCURVE",
"400 616 CURVE",
"402 609 OFFCURVE",
"405 579 OFFCURVE",
"407 567 CURVE",
"483 569 OFFCURVE",
"490 537 OFFCURVE",
"492 491 CURVE SMOOTH",
"497 350 OFFCURVE",
"494 192 OFFCURVE",
"490 106 CURVE SMOOTH",
"487 58 OFFCURVE",
"452 49 OFFCURVE",
"403 49 CURVE",
"410 -1 LINE",
"670 0 LINE"
);
}
);
width = 693;
}
);
unicode = 0048;
},
{
glyphname = Hbar;
layers = (
{
components = (
{
name = H;
}
);
layerId = "51BB9282-3B82-4DF1-A67A-294D3E37D73A";
paths = (
{
closed = 1;
nodes = (
"651 480 LINE",
"402 474 LINE",
"56 474 LINE",
"56 418 LINE",
"651 418 LINE"
);
}
);
width = 693;
}
);
unicode = 0126;
},
{
glyphname = I;
layers = (
{
layerId = "51BB9282-3B82-4DF1-A67A-294D3E37D73A";
paths = (
{
closed = 1;
nodes = (
"279 42 LINE",
"239 39 OFFCURVE",
"200 63 OFFCURVE",
"198 118 CURVE SMOOTH",
"192 283 OFFCURVE",
"197 409 OFFCURVE",
"205 511 CURVE SMOOTH",
"209 559 OFFCURVE",
"240 567 OFFCURVE",
"287 569 CURVE",
"281 617 LINE",
"206 613 OFFCURVE",
"117 612 OFFCURVE",
"23 616 CURVE",
"25 609 OFFCURVE",
"28 579 OFFCURVE",
"30 567 CURVE",
"105 569 OFFCURVE",
"113 537 OFFCURVE",
"115 491 CURVE SMOOTH",
"120 350 OFFCURVE",
"117 192 OFFCURVE",
"112 106 CURVE SMOOTH",
"109 58 OFFCURVE",
"75 49 OFFCURVE",
"26 48 CURVE",
"32 -1 LINE",
"287 0 LINE"
);
}
);
width = 315;
}
);
unicode = 0049;
},
{
glyphname = J;
layers = (
{
layerId = "51BB9282-3B82-4DF1-A67A-294D3E37D73A";
paths = (
{
closed = 1;
nodes = (
"213 -72 OFFCURVE",
"210 30 CURVE SMOOTH",
"206 201 OFFCURVE",
"205 320 OFFCURVE",
"213 512 CURVE SMOOTH",
"216 554 OFFCURVE",
"239 564 OFFCURVE",
"294 567 CURVE",
"292 581 OFFCURVE",
"288 617 OFFCURVE",
"288 617 CURVE",
"188 611 OFFCURVE",
"122 611 OFFCURVE",
"31 616 CURVE",
"32 609 OFFCURVE",
"34 579 OFFCURVE",
"36 567 CURVE",
"59 567 OFFCURVE",
"119 565 OFFCURVE",
"119 503 CURVE SMOOTH",
"121 362 OFFCURVE",
"132 158 OFFCURVE",
"128 65 CURVE SMOOTH",
"125 -14 OFFCURVE",
"133 -144 OFFCURVE",
"-5 -109 CURVE",
"-26 -149 LINE",
"-15 -155 OFFCURVE",
"16 -175 OFFCURVE",
"59 -175 CURVE SMOOTH",
"187 -174 OFFCURVE"
);
}
);
width = 325;
}
);
unicode = 004A;
},
{
glyphname = K;
layers = (
{
layerId = "51BB9282-3B82-4DF1-A67A-294D3E37D73A";
paths = (
{
closed = 1;
nodes = (
"533 1 OFFCURVE",
"621 0 CURVE",
"611 47 LINE",
"553 46 OFFCURVE",
"407 253 OFFCURVE",
"336 336 CURVE",
"320 315 LINE",
"361 359 OFFCURVE",
"472 480 OFFCURVE",
"514 527 CURVE SMOOTH",
"537 552 OFFCURVE",
"557 571 OFFCURVE",
"588 571 CURVE",
"581 616 LINE",
"581 616 OFFCURVE",
"470 610 OFFCURVE",
"378 614 CURVE",
"385 567 LINE",
"441 569 OFFCURVE",
"444 547 OFFCURVE",
"432 531 CURVE SMOOTH",
"370 450 OFFCURVE",
"278 353 OFFCURVE",
"249 326 CURVE",
"257 301 LINE",
"311 239 OFFCURVE",
"405 117 OFFCURVE",
"419 97 CURVE SMOOTH",
"454 47 OFFCURVE",
"412 43 OFFCURVE",
"384 44 CURVE",
"395 0 LINE",
"483 0 OFFCURVE"
);
},
{
closed = 1;
nodes = (
"293 44 LINE",
"253 41 OFFCURVE",
"214 55 OFFCURVE",
"212 110 CURVE SMOOTH",
"206 276 OFFCURVE",
"211 410 OFFCURVE",
"219 511 CURVE SMOOTH",
"223 560 OFFCURVE",
"266 570 OFFCURVE",
"306 569 CURVE",
"303 584 OFFCURVE",
"300 617 OFFCURVE",
"300 617 CURVE",
"217 612 OFFCURVE",
"139 611 OFFCURVE",
"45 616 CURVE",
"46 609 OFFCURVE",
"49 580 OFFCURVE",
"51 567 CURVE",
"111 569 OFFCURVE",
"129 544 OFFCURVE",
"129 495 CURVE SMOOTH",
"129 354 OFFCURVE",
"129 193 OFFCURVE",
"125 108 CURVE SMOOTH",
"122 59 OFFCURVE",
"101 50 OFFCURVE",
"50 49 CURVE",
"56 -1 LINE",
"301 0 LINE"
);
}
);
width = 656;
}
);
unicode = 004B;
},
{
glyphname = L;
layers = (
{
layerId = "51BB9282-3B82-4DF1-A67A-294D3E37D73A";
paths = (
{
closed = 1;
nodes = (
"499 21 OFFCURVE",
"498 129 OFFCURVE",
"494 163 CURVE",
"437 157 LINE",
"433 128 OFFCURVE",
"422 92 OFFCURVE",
"407 63 CURVE",
"369 58 OFFCURVE",
"284 52 OFFCURVE",
"238 56 CURVE SMOOTH",
"210 59 OFFCURVE",
"204 85 OFFCURVE",
"203 112 CURVE SMOOTH",
"202 152 OFFCURVE",
"203 363 OFFCURVE",
"216 518 CURVE SMOOTH",
"219 564 OFFCURVE",
"245 568 OFFCURVE",
"299 568 CURVE",
"293 615 LINE",
"228 612 OFFCURVE",
"126 609 OFFCURVE",
"41 616 CURVE",
"45 569 LINE",
"99 570 OFFCURVE",
"121 547 OFFCURVE",
"123 511 CURVE SMOOTH",
"130 377 OFFCURVE",
"130 213 OFFCURVE",
"119 113 CURVE SMOOTH",
"114 63 OFFCURVE",
"89 49 OFFCURVE",
"41 49 CURVE",
"47 0 LINE",
"494 0 LINE"
);
}
);
width = 528;
}
);
unicode = 004C;
},
{
glyphname = M;
layers = (
{
layerId = "51BB9282-3B82-4DF1-A67A-294D3E37D73A";
paths = (
{
closed = 1;
nodes = (
"798 41 OFFCURVE",
"778 53 OFFCURVE",
"774 117 CURVE SMOOTH",
"768 203 OFFCURVE",
"766 369 OFFCURVE",
"770 495 CURVE SMOOTH",
"772 557 OFFCURVE",
"804 567 OFFCURVE",
"858 567 CURVE",
"851 616 LINE",
"775 611 OFFCURVE",
"695 611 OFFCURVE",
"646 614 CURVE",
"610 524 OFFCURVE",
"497 230 OFFCURVE",
"419 62 CURVE",
"475 31 LINE",
"536 187 OFFCURVE",
"598 340 OFFCURVE",
"655 466 CURVE",
"667 494 OFFCURVE",
"675 547 OFFCURVE",
"688 570 CURVE SMOOTH",
"692 578 OFFCURVE",
"675 554 OFFCURVE",
"680 562 CURVE",
"689 422 OFFCURVE",
"686 143 OFFCURVE",
"681 107 CURVE SMOOTH",
"673 53 OFFCURVE",
"644 45 OFFCURVE",
"597 47 CURVE",
"604 0 LINE",
"862 -1 LINE",
"855 42 LINE"
);
},
{
closed = 1;
nodes = (
"280 42 LINE",
"233 42 OFFCURVE",
"215 53 OFFCURVE",
"206 107 CURVE SMOOTH",
"202 141 OFFCURVE",
"195 401 OFFCURVE",
"204 541 CURVE",
"196 551 LINE",
"203 540 OFFCURVE",
"222 445 OFFCURVE",
"230 428 CURVE SMOOTH",
"293 306 OFFCURVE",
"397 73 OFFCURVE",
"421 15 CURVE",
"474 31 LINE",
"453 69 LINE",
"451 115 OFFCURVE",
"446 166 OFFCURVE",
"435 204 CURVE",
"390 324 OFFCURVE",
"266 551 OFFCURVE",
"238 615 CURVE",
"166 613 OFFCURVE",
"112 612 OFFCURVE",
"36 616 CURVE",
"38 609 OFFCURVE",
"39 579 OFFCURVE",
"42 567 CURVE",
"88 567 OFFCURVE",
"134 559 OFFCURVE",
"135 497 CURVE SMOOTH",
"136 370 OFFCURVE",
"136 203 OFFCURVE",
"129 117 CURVE SMOOTH",
"126 61 OFFCURVE",
"94 45 OFFCURVE",
"38 47 CURVE",
"44 -1 LINE",
"289 0 LINE"
);
}
);
width = 888;
}
);
unicode = 004D;
},
{
glyphname = N;
layers = (
{
layerId = "51BB9282-3B82-4DF1-A67A-294D3E37D73A";
paths = (
{
closed = 1;
nodes = (
"571 -4 OFFCURVE",
"593 -3 OFFCURVE",
"614 0 CURVE",
"608 166 OFFCURVE",
"606 374 OFFCURVE",
"618 512 CURVE SMOOTH",
"621 554 OFFCURVE",
"643 569 OFFCURVE",
"690 568 CURVE",
"683 617 LINE",
"636 611 OFFCURVE",
"604 611 OFFCURVE",
"573 611 CURVE SMOOTH",
"517 611 OFFCURVE",
"487 613 OFFCURVE",
"444 616 CURVE",
"446 609 OFFCURVE",
"449 579 OFFCURVE",
"451 567 CURVE",
"505 567 OFFCURVE",
"530 557 OFFCURVE",
"535 487 CURVE SMOOTH",
"542 391 OFFCURVE",
"544 136 OFFCURVE",
"530 74 CURVE",
"549 54 LINE",
"536 73 OFFCURVE",
"526 172 OFFCURVE",
"504 205 CURVE SMOOTH",
"410 338 OFFCURVE",
"273 542 OFFCURVE",
"226 614 CURVE",
"146 612 OFFCURVE",
"98 611 OFFCURVE",
"22 616 CURVE",
"23 609 OFFCURVE",
"25 579 OFFCURVE",
"28 567 CURVE",
"82 567 OFFCURVE",
"111 542 OFFCURVE",
"112 487 CURVE SMOOTH",
"113 361 OFFCURVE",
"112 210 OFFCURVE",
"106 125 CURVE SMOOTH",
"102 61 OFFCURVE",
"80 48 OFFCURVE",
"24 47 CURVE",
"30 -1 LINE",
"269 0 LINE",
"262 43 LINE",
"222 43 OFFCURVE",
"193 55 OFFCURVE",
"185 109 CURVE SMOOTH",
"180 145 OFFCURVE",
"177 399 OFFCURVE",
"186 539 CURVE",
"186 539 OFFCURVE",
"173 559 OFFCURVE",
"177 554 CURVE",
"180 550 OFFCURVE",
"219 446 OFFCURVE",
"222 442 CURVE",
"329 295 OFFCURVE",
"400 184 OFFCURVE",
"531 -13 CURVE",
"532 -12 LINE"
);
}
);
width = 713;
}
);
unicode = 004E;
},
{
glyphname = Eng;
layers = (
{
layerId = "51BB9282-3B82-4DF1-A67A-294D3E37D73A";
paths = (
{
closed = 1;
nodes = (
"543 -162 OFFCURVE",
"482 -209 OFFCURVE",
"420 -193 CURVE",
"440 -226 LINE",
"429 -204 OFFCURVE",
"413 -181 OFFCURVE",
"410 -132 CURVE",
"365 -131 LINE",
"357 -154 OFFCURVE",
"353 -179 OFFCURVE",
"351 -203 CURVE",
"367 -226 OFFCURVE",
"417 -244 OFFCURVE",
"463 -244 CURVE SMOOTH",
"554 -244 OFFCURVE",
"615 -172 OFFCURVE",
"614 -89 CURVE SMOOTH",
"612 161 OFFCURVE",
"608 397 OFFCURVE",
"618 512 CURVE SMOOTH",
"621 554 OFFCURVE",
"643 569 OFFCURVE",
"690 568 CURVE",
"683 617 LINE",
"636 611 OFFCURVE",
"604 611 OFFCURVE",
"573 611 CURVE SMOOTH",
"517 611 OFFCURVE",
"487 613 OFFCURVE",
"444 616 CURVE",
"446 609 OFFCURVE",
"449 579 OFFCURVE",
"451 567 CURVE",
"505 567 OFFCURVE",
"530 557 OFFCURVE",
"535 487 CURVE SMOOTH",
"542 391 OFFCURVE",
"551 144 OFFCURVE",
"544 82 CURVE",
"551 69 LINE",
"547 81 OFFCURVE",
"526 172 OFFCURVE",
"504 205 CURVE SMOOTH",
"410 338 OFFCURVE",
"273 542 OFFCURVE",
"226 614 CURVE",
"146 612 OFFCURVE",
"98 611 OFFCURVE",
"22 616 CURVE",
"23 609 OFFCURVE",
"25 579 OFFCURVE",
"28 567 CURVE",
"82 567 OFFCURVE",
"111 542 OFFCURVE",
"112 487 CURVE SMOOTH",
"113 361 OFFCURVE",
"112 210 OFFCURVE",
"106 125 CURVE SMOOTH",
"102 61 OFFCURVE",
"80 48 OFFCURVE",
"24 47 CURVE",
"30 -1 LINE",
"269 0 LINE",
"262 43 LINE",
"222 43 OFFCURVE",
"193 55 OFFCURVE",
"185 109 CURVE SMOOTH",
"180 145 OFFCURVE",
"177 399 OFFCURVE",
"186 539 CURVE",
"186 539 OFFCURVE",
"173 559 OFFCURVE",
"177 554 CURVE",
"180 550 OFFCURVE",
"219 446 OFFCURVE",
"222 442 CURVE",
"329 295 OFFCURVE",
"411 192 OFFCURVE",
"541 -5 CURVE",
"543 -7 LINE",
"543 -40 LINE SMOOTH"
);
}
);
width = 713;
}
);
leftMetricsKey = "=N";
rightMetricsKey = "=N";
unicode = 014A;
},
{
glyphname = O;
layers = (
{
layerId = "51BB9282-3B82-4DF1-A67A-294D3E37D73A";
paths = (
{
closed = 1;
nodes = (
"592 119 OFFCURVE",
"592 336 CURVE SMOOTH",
"592 522 OFFCURVE",
"472 619 OFFCURVE",
"345 619 CURVE SMOOTH",
"160 619 OFFCURVE",
"36 477 OFFCURVE",
"36 263 CURVE SMOOTH",
"36 117 OFFCURVE",
"128 -12 OFFCURVE",
"303 -12 CURVE SMOOTH",
"480 -12 OFFCURVE"
);
},
{
closed = 1;
nodes = (
"129 156 OFFCURVE",
"129 304 CURVE SMOOTH",
"129 486 OFFCURVE",
"228 564 OFFCURVE",
"308 565 CURVE SMOOTH",
"418 567 OFFCURVE",
"493 460 OFFCURVE",
"494 321 CURVE SMOOTH",
"494 162 OFFCURVE",
"427 47 OFFCURVE",
"317 47 CURVE SMOOTH",
"192 47 OFFCURVE"
);
}
);
width = 630;
}
);
unicode = 004F;
},
{
glyphname = P;
layers = (
{
layerId = "51BB9282-3B82-4DF1-A67A-294D3E37D73A";
paths = (
{
closed = 1;
nodes = (
"218 -1 OFFCURVE",
"270 0 CURVE",
"260 43 LINE",
"219 43 OFFCURVE",
"192 52 OFFCURVE",
"187 96 CURVE SMOOTH",
"182 139 OFFCURVE",
"182 201 OFFCURVE",
"182 280 CURVE",
"182 280 OFFCURVE",
"154 264 OFFCURVE",
"162 263 CURVE",
"176 254 OFFCURVE",
"227 249 OFFCURVE",
"254 249 CURVE SMOOTH",
"399 249 OFFCURVE",
"492 340 OFFCURVE",
"491 466 CURVE SMOOTH",
"490 551 OFFCURVE",
"435 619 OFFCURVE",
"309 619 CURVE SMOOTH",
"199 619 OFFCURVE",
"119 608 OFFCURVE",
"18 615 CURVE",
"22 567 LINE",
"88 564 OFFCURVE",
"99 529 OFFCURVE",
"101 484 CURVE SMOOTH",
"105 400 OFFCURVE",
"112 266 OFFCURVE",
"98 101 CURVE SMOOTH",
"95 62 OFFCURVE",
"80 47 OFFCURVE",
"27 47 CURVE",
"35 0 LINE",
"92 0 OFFCURVE"
);
},
{
closed = 1;
nodes = (
"205 311 OFFCURVE",
"184 324 CURVE",
"185 400 OFFCURVE",
"182 503 OFFCURVE",
"188 563 CURVE",
"203 570 OFFCURVE",
"228 577 OFFCURVE",
"257 576 CURVE SMOOTH",
"353 574 OFFCURVE",
"407 529 OFFCURVE",
"406 442 CURVE SMOOTH",
"405 372 OFFCURVE",
"370 299 OFFCURVE",
"276 298 CURVE SMOOTH",
"240 298 OFFCURVE"
);
}
);
width = 520;
}
);
unicode = 0050;
},
{
glyphname = Thorn;
layers = (
{
components = (
{
name = I;
}
);
layerId = "51BB9282-3B82-4DF1-A67A-294D3E37D73A";
paths = (
{
closed = 1;
nodes = (
"199 153 OFFCURVE",
"232 153 CURVE SMOOTH",
"380 153 OFFCURVE",
"514 213 OFFCURVE",
"514 353 CURVE SMOOTH",
"514 464 OFFCURVE",
"427 514 OFFCURVE",
"322 514 CURVE SMOOTH",
"270 514 OFFCURVE",
"219 507 OFFCURVE",
"193 500 CURVE",
"193 457 LINE",
"207 465 OFFCURVE",
"268 467 OFFCURVE",
"292 467 CURVE SMOOTH",
"377 465 OFFCURVE",
"414 415 OFFCURVE",
"414 357 CURVE SMOOTH",
"414 266 OFFCURVE",
"367 199 OFFCURVE",
"281 199 CURVE SMOOTH",
"223 199 OFFCURVE",
"182 231 OFFCURVE",
"182 231 CURVE",
"152 163 LINE",
"169 156 OFFCURVE"
);
}
);
width = 544;
}
);
rightMetricsKey = "=30";
unicode = 00DE;
},
{
glyphname = Q;
layers = (
{
components = (
{
name = O;
}
);
layerId = "51BB9282-3B82-4DF1-A67A-294D3E37D73A";
paths = (
{
closed = 1;
nodes = (
"643 -180 OFFCURVE",
"691 -165 CURVE",
"699 -100 LINE",
"687 -74 LINE",
"687 -74 OFFCURVE",
"618 -100 OFFCURVE",
"524 -99 CURVE SMOOTH",
"437 -97 OFFCURVE",
"278 -62 OFFCURVE",
"235 16 CURVE",
"180 9 LINE",
"203 -45 OFFCURVE",
"316 -181 OFFCURVE",
"504 -184 CURVE SMOOTH",
"591 -185 OFFCURVE"
);
}
);
width = 648;
}
);
unicode = 0051;
},
{
glyphname = R;
layers = (
{
layerId = "51BB9282-3B82-4DF1-A67A-294D3E37D73A";
paths = (
{
closed = 1;
nodes = (
"99 566 OFFCURVE",
"110 531 OFFCURVE",
"112 486 CURVE SMOOTH",
"119 363 OFFCURVE",
"116 266 OFFCURVE",
"109 101 CURVE SMOOTH",
"108 62 OFFCURVE",
"92 47 OFFCURVE",
"39 47 CURVE",
"46 0 LINE",
"282 0 LINE",
"272 43 LINE",
"231 43 OFFCURVE",
"203 52 OFFCURVE",
"199 96 CURVE SMOOTH",
"194 139 OFFCURVE",
"193 236 OFFCURVE",
"194 314 CURVE",
"174 283 LINE",
"189 279 OFFCURVE",
"243 272 OFFCURVE",
"282 272 CURVE SMOOTH",
"396 273 OFFCURVE",
"508 349 OFFCURVE",
"507 475 CURVE SMOOTH",
"506 560 OFFCURVE",
"458 621 OFFCURVE",
"340 621 CURVE SMOOTH",
"232 621 OFFCURVE",
"136 610 OFFCURVE",
"29 617 CURVE",
"33 568 LINE"
);
},
{
closed = 1;
nodes = (
"427 32 OFFCURVE",
"464 0 CURVE",
"599 0 LINE",
"590 47 LINE",
"517 46 OFFCURVE",
"409 249 OFFCURVE",
"359 329 CURVE",
"280 308 LINE",
"352 139 OFFCURVE"
);
},
{
closed = 1;
nodes = (
"243 576 OFFCURVE",
"279 575 CURVE SMOOTH",
"379 574 OFFCURVE",
"421 533 OFFCURVE",
"420 454 CURVE SMOOTH",
"420 388 OFFCURVE",
"381 326 OFFCURVE",
"290 323 CURVE SMOOTH",
"259 323 OFFCURVE",
"219 330 OFFCURVE",
"196 336 CURVE",
"196 413 OFFCURVE",
"193 504 OFFCURVE",
"199 564 CURVE",
"217 571 OFFCURVE"
);
}
);
width = 609;
}
);
unicode = 0052;
},
{
glyphname = S;
layers = (
{
layerId = "51BB9282-3B82-4DF1-A67A-294D3E37D73A";
paths = (
{
closed = 1;
nodes = (
"420 88 OFFCURVE",
"420 170 CURVE SMOOTH",
"420 349 OFFCURVE",
"149 392 OFFCURVE",
"149 501 CURVE SMOOTH",
"149 544 OFFCURVE",
"182 575 OFFCURVE",
"233 575 CURVE SMOOTH",
"311 575 OFFCURVE",
"336 511 OFFCURVE",
"351 493 CURVE",
"297 609 LINE",
"318 561 OFFCURVE",
"332 505 OFFCURVE",
"333 468 CURVE",
"404 460 LINE",
"407 481 OFFCURVE",
"410 514 OFFCURVE",
"410 547 CURVE SMOOTH",
"410 566 OFFCURVE",
"409 584 OFFCURVE",
"407 598 CURVE",
"407 598 OFFCURVE",
"344 623 OFFCURVE",
"259 623 CURVE SMOOTH",
"125 623 OFFCURVE",
"63 546 OFFCURVE",
"63 466 CURVE SMOOTH",
"63 318 OFFCURVE",
"326 291 OFFCURVE",
"326 145 CURVE SMOOTH",
"326 98 OFFCURVE",
"293 46 OFFCURVE",
"224 45 CURVE SMOOTH",
"152 45 OFFCURVE",
"135 78 OFFCURVE",
"104 114 CURVE",
"112 72 OFFCURVE",
"106 47 OFFCURVE",
"152 36 CURVE",
"122 70 OFFCURVE",
"120 106 OFFCURVE",
"117 152 CURVE",
"48 160 LINE",
"42 121 OFFCURVE",
"40 89 OFFCURVE",
"40 55 CURVE SMOOTH",
"40 39 OFFCURVE",
"41 25 OFFCURVE",
"42 13 CURVE",
"42 13 OFFCURVE",
"102 -11 OFFCURVE",
"210 -10 CURVE SMOOTH",
"366 -9 OFFCURVE"
);
}
);
width = 469;
}
);
unicode = 0053;
},
{
color = 0;
glyphname = Germandbls;
lastChange = "2018-02-16 12:36:00 +0000";
layers = (
{
layerId = "51BB9282-3B82-4DF1-A67A-294D3E37D73A";
paths = (
{
closed = 1;
nodes = (
"252 9 OFFCURVE",
"252 9 CURVE",
"249 19 OFFCURVE",
"247 42 OFFCURVE",
"247 62 CURVE SMOOTH",
"247 83 OFFCURVE",
"248 105 OFFCURVE",
"250 126 CURVE",
"300 125 LINE",
"304 91 OFFCURVE",
"310 47 OFFCURVE",
"349 22 CURVE",
"322 27 OFFCURVE",
"295 41 OFFCURVE",
"283 60 CURVE",
"300 47 OFFCURVE",
"326 33 OFFCURVE",
"362 33 CURVE SMOOTH",
"401 33 OFFCURVE",
"429 74 OFFCURVE",
"429 125 CURVE SMOOTH",
"429 180 OFFCURVE",
"400 258 OFFCURVE",
"292 293 CURVE",
"276 312 LINE",
"296 340 OFFCURVE",
"385 406 OFFCURVE",
"385 454 CURVE SMOOTH",
"385 524 OFFCURVE",
"305 589 OFFCURVE",
"248 589 CURVE SMOOTH",
"211 589 OFFCURVE",
"195 562 OFFCURVE",
"193 527 CURVE",
"182 413 OFFCURVE",
"191 201 OFFCURVE",
"193 132 CURVE SMOOTH",
"194 88 OFFCURVE",
"197 44 OFFCURVE",
"202 0 CURVE",
"32 0 LINE",
"24 47 LINE",
"34 47 LINE SMOOTH",
"84 47 OFFCURVE",
"98 68 OFFCURVE",
"103 105 CURVE SMOOTH",
"107 126 OFFCURVE",
"110 160 OFFCURVE",
"110 195 CURVE SMOOTH",
"110 268 OFFCURVE",
"108 480 OFFCURVE",
"108 497 CURVE SMOOTH",
"108 596 OFFCURVE",
"192 634 OFFCURVE",
"254 634 CURVE SMOOTH",
"379 634 OFFCURVE",
"471 589 OFFCURVE",
"471 480 CURVE",
"441 427 OFFCURVE",
"368 360 OFFCURVE",
"337 329 CURVE",
"322 359 LINE",
"459 316 OFFCURVE",
"521 226 OFFCURVE",
"521 143 CURVE SMOOTH",
"521 63 OFFCURVE",
"468 -8 OFFCURVE",
"377 -8 CURVE",
"307 -11 OFFCURVE"
);
}
);
width = 531;
}
);
unicode = 1E9E;
},
{
glyphname = Schwa;
layers = (
{
layerId = "51BB9282-3B82-4DF1-A67A-294D3E37D73A";
paths = (
{
closed = 1;
nodes = (
"407 598 OFFCURVE",
"269 598 CURVE SMOOTH",
"142 597 OFFCURVE",
"69 526 OFFCURVE",
"53 506 CURVE",
"72 480 LINE",
"74 480 OFFCURVE",
"135 537 OFFCURVE",
"229 535 CURVE SMOOTH",
"396 533 OFFCURVE",
"429 408 OFFCURVE",
"427 281 CURVE SMOOTH",
"425 105 OFFCURVE",
"349 54 OFFCURVE",
"283 54 CURVE SMOOTH",
"190 54 OFFCURVE",
"120 138 OFFCURVE",
"120 255 CURVE",
"212 256 LINE",
"455 278 LINE",
"440 324 LINE",
"33 322 LINE",
"12 125 OFFCURVE",
"107 2 OFFCURVE",
"268 3 CURVE SMOOTH",
"394 5 OFFCURVE",
"520 116 OFFCURVE",
"520 333 CURVE SMOOTH",
"520 507 OFFCURVE"
);
}
);
width = 558;
}
);
unicode = 018F;
},
{
glyphname = T;
layers = (
{
layerId = "51BB9282-3B82-4DF1-A67A-294D3E37D73A";
paths = (
{
closed = 1;
nodes = (
"367 50 LINE",
"347 49 OFFCURVE",
"305 52 OFFCURVE",
"301 99 CURVE SMOOTH",
"290 233 OFFCURVE",
"298 440 OFFCURVE",
"319 601 CURVE",
"319 601 OFFCURVE",
"210 583 OFFCURVE",
"162 584 CURVE",
"167 574 LINE",
"190 574 OFFCURVE",
"208 572 OFFCURVE",
"211 538 CURVE SMOOTH",
"219 440 OFFCURVE",
"220 251 OFFCURVE",
"206 112 CURVE SMOOTH",
"203 76 OFFCURVE",
"176 49 OFFCURVE",
"122 47 CURVE",
"126 0 LINE",
"376 0 LINE"
);
},
{
closed = 1;
nodes = (
"523 595 OFFCURVE",
"524 617 CURVE",
"446 611 OFFCURVE",
"310 610 OFFCURVE",
"257 610 CURVE SMOOTH",
"166 610 OFFCURVE",
"99 611 OFFCURVE",
"16 616 CURVE",
"15 572 OFFCURVE",
"10 501 OFFCURVE",
"6 465 CURVE",
"70 474 LINE",
"81 501 OFFCURVE",
"87 558 OFFCURVE",
"116 586 CURVE",
"75 554 LINE",
"103 554 OFFCURVE",
"187 557 OFFCURVE",
"257 557 CURVE SMOOTH",
"323 557 OFFCURVE",
"399 561 OFFCURVE",
"467 537 CURVE",
"402 594 LINE",
"435 564 OFFCURVE",
"454 512 OFFCURVE",
"460 467 CURVE",
"515 460 LINE",
"515 464 OFFCURVE"
);
}
);
width = 532;
}
);
unicode = 0054;
},
{
glyphname = Tbar;
layers = (
{
components = (
{
name = T;
}
);
layerId = "51BB9282-3B82-4DF1-A67A-294D3E37D73A";
paths = (
{
closed = 1;
nodes = (
"478 311 OFFCURVE",
"483 337 OFFCURVE",
"484 358 CURVE",
"352 353 OFFCURVE",
"186 350 OFFCURVE",
"41 358 CURVE",
"30 285 LINE",
"477 285 LINE"
);
}
);
width = 532;
}
);
unicode = 0166;
},
{
glyphname = U;
layers = (
{
layerId = "51BB9282-3B82-4DF1-A67A-294D3E37D73A";
paths = (
{
closed = 1;
nodes = (
"493 35 OFFCURVE",
"505 182 CURVE SMOOTH",
"512 265 OFFCURVE",
"506 384 OFFCURVE",
"513 511 CURVE SMOOTH",
"515 551 OFFCURVE",
"536 564 OFFCURVE",
"590 566 CURVE",
"588 581 OFFCURVE",
"584 616 OFFCURVE",
"584 616 CURVE",
"551 614 OFFCURVE",
"504 613 OFFCURVE",
"457 613 CURVE SMOOTH",
"420 613 OFFCURVE",
"381 614 OFFCURVE",
"347 615 CURVE",
"349 608 OFFCURVE",
"352 583 OFFCURVE",
"354 571 CURVE",
"408 571 OFFCURVE",
"444 564 OFFCURVE",
"444 494 CURVE SMOOTH",
"444 494 LINE SMOOTH",
"445 437 OFFCURVE",
"447 380 OFFCURVE",
"447 324 CURVE SMOOTH",
"447 284 OFFCURVE",
"446 245 OFFCURVE",
"443 206 CURVE SMOOTH",
"436 113 OFFCURVE",
"387 47 OFFCURVE",
"295 47 CURVE SMOOTH",
"201 47 OFFCURVE",
"159 109 OFFCURVE",
"152 194 CURVE SMOOTH",
"152 205 OFFCURVE",
"151 229 OFFCURVE",
"151 260 CURVE SMOOTH",
"151 325 OFFCURVE",
"153 420 OFFCURVE",
"158 487 CURVE SMOOTH",
"162 538 OFFCURVE",
"174 562 OFFCURVE",
"252 567 CURVE",
"249 581 OFFCURVE",
"246 617 OFFCURVE",
"246 617 CURVE",
"199 614 OFFCURVE",
"157 613 OFFCURVE",
"116 613 CURVE SMOOTH",
"72 613 OFFCURVE",
"29 614 OFFCURVE",
"-17 616 CURVE",
"-15 609 OFFCURVE",
"-12 580 OFFCURVE",
"-10 567 CURVE",
"54 568 OFFCURVE",
"65 547 OFFCURVE",
"69 493 CURVE SMOOTH",
"69 483 OFFCURVE",
"69 470 OFFCURVE",
"69 457 CURVE SMOOTH",
"69 382 OFFCURVE",
"63 259 OFFCURVE",
"63 179 CURVE SMOOTH",
"63 21 OFFCURVE",
"189 -13 OFFCURVE",
"278 -13 CURVE SMOOTH",
"377 -13 OFFCURVE"
);
}
);
width = 591;
}
);
unicode = 0055;
},
{
glyphname = Uhorn;
layers = (
{
components = (
{
name = U;
}
);
layerId = "51BB9282-3B82-4DF1-A67A-294D3E37D73A";
paths = (
{
closed = 1;
nodes = (
"669 667 CURVE SMOOTH",
"668 708 OFFCURVE",
"644 762 OFFCURVE",
"597 762 CURVE SMOOTH",
"564 762 OFFCURVE",
"549 742 OFFCURVE",
"553 705 CURVE",
"584 697 OFFCURVE",
"612 680 OFFCURVE",
"612 651 CURVE SMOOTH",
"612 621 OFFCURVE",
"591 616 OFFCURVE",
"551 613 CURVE",
"575 565 LINE",
"624 565 OFFCURVE",
"670 597 OFFCURVE"
);
}
);
width = 669;
}
);
unicode = 01AF;
},
{
glyphname = V;
layers = (
{
layerId = "51BB9282-3B82-4DF1-A67A-294D3E37D73A";
paths = (
{
closed = 1;
nodes = (
"329 2 OFFCURVE",
"359 6 CURVE",
"404 145 OFFCURVE",
"478 330 OFFCURVE",
"550 511 CURVE SMOOTH",
"564 549 OFFCURVE",
"581 575 OFFCURVE",
"644 568 CURVE",
"636 615 LINE",
"557 608 OFFCURVE",
"472 612 OFFCURVE",
"387 615 CURVE",
"394 576 LINE",
"431 577 OFFCURVE",
"493 578 OFFCURVE",
"477 504 CURVE SMOOTH",
"465 455 OFFCURVE",
"370 206 OFFCURVE",
"316 59 CURVE",
"313 90 OFFCURVE",
"304 153 OFFCURVE",
"298 183 CURVE",
"265 290 OFFCURVE",
"216 428 OFFCURVE",
"190 520 CURVE SMOOTH",
"178 565 OFFCURVE",
"216 574 OFFCURVE",
"270 566 CURVE",
"263 615 LINE",
"199 611 OFFCURVE",
"90 611 OFFCURVE",
"4 615 CURVE",
"12 573 LINE",
"64 581 OFFCURVE",
"80 543 OFFCURVE",
"93 515 CURVE",
"170 309 OFFCURVE",
"213 144 OFFCURVE",
"260 -18 CURVE",
"290 -8 OFFCURVE"
);
}
);
width = 636;
}
);
unicode = 0056;
},
{
glyphname = W;
layers = (
{
layerId = "51BB9282-3B82-4DF1-A67A-294D3E37D73A";
paths = (
{
closed = 1;
nodes = (
"665 2 OFFCURVE",
"695 6 CURVE",
"738 145 OFFCURVE",
"810 331 OFFCURVE",
"866 511 CURVE SMOOTH",
"879 551 OFFCURVE",
"897 568 OFFCURVE",
"952 569 CURVE",
"944 616 LINE",
"715 616 LINE",
"722 572 LINE",
"782 573 OFFCURVE",
"805 567 OFFCURVE",
"796 513 CURVE SMOOTH",
"788 464 OFFCURVE",
"700 228 OFFCURVE",
"651 77 CURVE",
"649 104 OFFCURVE",
"651 148 OFFCURVE",
"644 173 CURVE",
"611 285 OFFCURVE",
"574 424 OFFCURVE",
"547 520 CURVE SMOOTH",
"535 565 OFFCURVE",
"571 567 OFFCURVE",
"621 566 CURVE",
"614 615 LINE",
"361 615 LINE",
"367 573 LINE",
"420 574 OFFCURVE",
"437 547 OFFCURVE",
"452 500 CURVE SMOOTH",
"517 298 OFFCURVE",
"556 139 OFFCURVE",
"603 -18 CURVE",
"633 -8 OFFCURVE"
);
},
{
closed = 1;
nodes = (
"306 2 OFFCURVE",
"336 6 CURVE",
"394 145 OFFCURVE",
"472 315 OFFCURVE",
"536 487 CURVE",
"464 477 LINE",
"446 429 OFFCURVE",
"363 236 OFFCURVE",
"296 82 CURVE",
"290 109 OFFCURVE",
"289 159 OFFCURVE",
"283 184 CURVE",
"249 296 OFFCURVE",
"207 425 OFFCURVE",
"181 521 CURVE SMOOTH",
"169 567 OFFCURVE",
"215 570 OFFCURVE",
"263 568 CURVE",
"255 617 LINE",
"187 614 OFFCURVE",
"62 614 OFFCURVE",
"-5 617 CURVE",
"3 567 LINE",
"55 569 OFFCURVE",
"69 544 OFFCURVE",
"85 501 CURVE SMOOTH",
"155 300 OFFCURVE",
"193 139 OFFCURVE",
"239 -18 CURVE",
"270 -8 OFFCURVE"
);
}
);
width = 971;
}
);
unicode = 0057;
},
{
glyphname = X;
layers = (
{
layerId = "51BB9282-3B82-4DF1-A67A-294D3E37D73A";
paths = (
{
closed = 1;
nodes = (
"238 47 LINE",
"167 47 OFFCURVE",
"179 90 OFFCURVE",
"200 126 CURVE SMOOTH",
"232 181 OFFCURVE",
"278 249 OFFCURVE",
"320 294 CURVE",
"334 304 LINE",
"362 344 OFFCURVE",
"419 426 OFFCURVE",
"460 482 CURVE SMOOTH",
"501 537 OFFCURVE",
"534 567 OFFCURVE",
"594 567 CURVE",
"588 617 LINE",
"521 611 OFFCURVE",
"425 611 OFFCURVE",
"350 617 CURVE",
"356 563 LINE",
"411 562 OFFCURVE",
"432 554 OFFCURVE",
"402 505 CURVE SMOOTH",
"377 465 OFFCURVE",
"332 394 OFFCURVE",
"293 344 CURVE",
"263 323 LINE",
"223 258 OFFCURVE",
"149 153 OFFCURVE",
"117 113 CURVE SMOOTH",
"91 81 OFFCURVE",
"72 51 OFFCURVE",
"5 51 CURVE",
"11 1 LINE",
"245 1 LINE"
);
},
{
closed = 1;
nodes = (
"575 48 LINE",
"495 48 OFFCURVE",
"484 74 OFFCURVE",
"323 342 CURVE SMOOTH",
"310 361 OFFCURVE",
"263 447 OFFCURVE",
"230 503 CURVE SMOOTH",
"208 541 OFFCURVE",
"205 566 OFFCURVE",
"283 567 CURVE",
"275 616 LINE",
"199 615 OFFCURVE",
"97 610 OFFCURVE",
"15 617 CURVE",
"22 565 LINE",
"93 565 OFFCURVE",
"95 547 OFFCURVE",
"136 481 CURVE SMOOTH",
"182 404 OFFCURVE",
"219 346 OFFCURVE",
"253 287 CURVE",
"266 272 LINE",
"292 227 OFFCURVE",
"331 156 OFFCURVE",
"357 110 CURVE SMOOTH",
"387 56 OFFCURVE",
"350 49 OFFCURVE",
"306 48 CURVE",
"315 1 LINE",
"588 1 LINE"
);
}
);
width = 620;
}
);
unicode = 0058;
},
{
glyphname = Y;
layers = (
{
layerId = "51BB9282-3B82-4DF1-A67A-294D3E37D73A";
paths = (
{
closed = 1;
nodes = (
"290 246 OFFCURVE",
"313 248 CURVE",
"341 310 OFFCURVE",
"403 389 OFFCURVE",
"477 510 CURVE SMOOTH",
"500 547 OFFCURVE",
"522 571 OFFCURVE",
"568 573 CURVE",
"560 618 LINE",
"485 614 OFFCURVE",
"411 613 OFFCURVE",
"336 618 CURVE",
"343 569 LINE",
"396 571 OFFCURVE",
"436 556 OFFCURVE",
"412 512 CURVE SMOOTH",
"367 429 OFFCURVE",
"314 352 OFFCURVE",
"280 296 CURVE",
"255 376 LINE",
"227 426 OFFCURVE",
"204 478 OFFCURVE",
"186 516 CURVE SMOOTH",
"165 557 OFFCURVE",
"180 571 OFFCURVE",
"239 576 CURVE",
"228 618 LINE",
"140 615 OFFCURVE",
"75 614 OFFCURVE",
"-12 618 CURVE",
"-6 573 LINE",
"30 574 OFFCURVE",
"59 562 OFFCURVE",
"85 514 CURVE SMOOTH",
"164 370 OFFCURVE",
"193 310 OFFCURVE",
"234 231 CURVE",
"260 239 OFFCURVE"
);
},
{
closed = 1;
nodes = (
"390 53 LINE",
"350 48 OFFCURVE",
"334 56 OFFCURVE",
"326 94 CURVE SMOOTH",
"317 130 OFFCURVE",
"307 187 OFFCURVE",
"324 296 CURVE",
"223 287 LINE",
"234 192 OFFCURVE",
"233 151 OFFCURVE",
"228 112 CURVE SMOOTH",
"223 72 OFFCURVE",
"206 42 OFFCURVE",
"150 53 CURVE",
"156 -1 LINE",
"407 0 LINE"
);
}
);
width = 558;
}
);
unicode = 0059;
},
{
glyphname = Z;
layers = (
{
layerId = "51BB9282-3B82-4DF1-A67A-294D3E37D73A";
paths = (
{
closed = 1;
nodes = (
"527 62 LINE SMOOTH",
"527 107 OFFCURVE",
"525 163 OFFCURVE",
"525 163 CURVE",
"462 157 LINE",
"459 128 OFFCURVE",
"451 90 OFFCURVE",
"437 61 CURVE",
"400 55 OFFCURVE",
"309 55 OFFCURVE",
"246 56 CURVE SMOOTH",
"199 57 OFFCURVE",
"136 59 OFFCURVE",
"112 82 CURVE",
"144 43 LINE",
"159 57 OFFCURVE",
"443 517 OFFCURVE",
"511 569 CURVE",
"505 616 LINE",
"447 613 OFFCURVE",
"318 614 OFFCURVE",
"254 614 CURVE SMOOTH",
"188 614 OFFCURVE",
"97 614 OFFCURVE",
"61 616 CURVE",
"62 554 LINE SMOOTH",
"62 508 OFFCURVE",
"65 452 OFFCURVE",
"65 452 CURVE",
"129 458 LINE",
"132 490 OFFCURVE",
"141 528 OFFCURVE",
"159 559 CURVE",
"203 562 OFFCURVE",
"288 564 OFFCURVE",
"344 564 CURVE SMOOTH",
"383 564 OFFCURVE",
"379 554 OFFCURVE",
"370 541 CURVE SMOOTH",
"293 417 OFFCURVE",
"95 106 OFFCURVE",
"22 55 CURVE",
"21 35 OFFCURVE",
"27 11 OFFCURVE",
"26 0 CURVE",
"527 0 LINE"
);
}
);
width = 563;
}
);
unicode = 005A;
},
{
glyphname = a;
lastChange = "2018-02-16 12:47:23 +0000";
layers = (
{
layerId = "51BB9282-3B82-4DF1-A67A-294D3E37D73A";
paths = (
{
closed = 1;
nodes = (
"91 -10 OFFCURVE",
"156 -10 CURVE SMOOTH",
"291 -10 OFFCURVE",
"333 92 OFFCURVE",
"333 92 CURVE",
"312 124 LINE",
"307 93 OFFCURVE",
"263 49 OFFCURVE",
"200 49 CURVE SMOOTH",
"146 49 OFFCURVE",
"114 75 OFFCURVE",
"114 119 CURVE SMOOTH",
"114 178 OFFCURVE",
"176 224 OFFCURVE",
"253 224 CURVE SMOOTH",
"298 224 OFFCURVE",
"332 210 OFFCURVE",
"332 210 CURVE",
"332 274 LINE",
"332 274 OFFCURVE",
"275 271 OFFCURVE",
"204 255 CURVE SMOOTH",
"85 228 OFFCURVE",
"36 174 OFFCURVE",
"36 96 CURVE SMOOTH",
"36 35 OFFCURVE"
);
},
{
closed = 1;
nodes = (
"69 400 OFFCURVE",
"69 378 CURVE SMOOTH",
"69 356 OFFCURVE",
"70 328 OFFCURVE",
"72 302 CURVE",
"132 309 LINE",
"136 359 OFFCURVE",
"149 394 OFFCURVE",
"166 429 CURVE",
"126 365 LINE",
"150 391 OFFCURVE",
"172 427 OFFCURVE",
"227 427 CURVE SMOOTH",
"259 427 OFFCURVE",
"293 410 OFFCURVE",
"307 352 CURVE SMOOTH",
"312 331 OFFCURVE",
"314 288 OFFCURVE",
"314 240 CURVE SMOOTH",
"314 186 OFFCURVE",
"311 125 OFFCURVE",
"306 88 CURVE",
"314 88 LINE",
"317 29 OFFCURVE",
"332 -8 OFFCURVE",
"390 -8 CURVE SMOOTH",
"424 -8 OFFCURVE",
"455 6 OFFCURVE",
"467 12 CURVE",
"458 42 LINE",
"448 42 LINE",
"393 42 OFFCURVE",
"383 100 OFFCURVE",
"383 162 CURVE SMOOTH",
"383 226 OFFCURVE",
"389 293 OFFCURVE",
"388 341 CURVE SMOOTH",
"386 440 OFFCURVE",
"338 470 OFFCURVE",
"259 470 CURVE SMOOTH",
"175 470 OFFCURVE",
"107 436 OFFCURVE",
"70 415 CURVE",
"70 415 OFFCURVE"
);
}
);
width = 479;
}
);
unicode = 0061;
},
{
glyphname = ae;
layers = (
{
layerId = "51BB9282-3B82-4DF1-A67A-294D3E37D73A";
paths = (
{
closed = 1;
nodes = (
"91 -10 OFFCURVE",
"156 -10 CURVE SMOOTH",
"291 -10 OFFCURVE",
"333 92 OFFCURVE",
"333 92 CURVE",
"312 124 LINE",
"307 93 OFFCURVE",
"263 49 OFFCURVE",
"200 49 CURVE SMOOTH",
"156 49 OFFCURVE",
"129 75 OFFCURVE",
"129 119 CURVE SMOOTH",
"129 178 OFFCURVE",
"176 224 OFFCURVE",
"253 224 CURVE SMOOTH",
"298 224 OFFCURVE",
"332 210 OFFCURVE",
"332 210 CURVE",
"332 274 LINE",
"332 274 OFFCURVE",
"275 271 OFFCURVE",
"204 255 CURVE SMOOTH",
"85 228 OFFCURVE",
"31 174 OFFCURVE",
"31 96 CURVE SMOOTH",
"31 25 OFFCURVE"
);
},
{
closed = 1;
nodes = (
"61 400 OFFCURVE",
"61 378 CURVE SMOOTH",
"61 356 OFFCURVE",
"62 328 OFFCURVE",
"64 302 CURVE",
"132 309 LINE",
"136 359 OFFCURVE",
"149 394 OFFCURVE",
"166 429 CURVE",
"126 365 LINE",
"150 391 OFFCURVE",
"172 427 OFFCURVE",
"227 427 CURVE SMOOTH",
"259 427 OFFCURVE",
"293 410 OFFCURVE",
"307 352 CURVE SMOOTH",
"312 331 OFFCURVE",
"314 288 OFFCURVE",
"314 240 CURVE SMOOTH",
"314 186 OFFCURVE",
"311 125 OFFCURVE",
"306 88 CURVE",
"314 88 LINE",
"317 29 OFFCURVE",
"332 -8 OFFCURVE",
"390 -8 CURVE SMOOTH",
"424 -8 OFFCURVE",
"455 6 OFFCURVE",
"467 12 CURVE",
"458 42 LINE",
"448 42 LINE",
"393 42 OFFCURVE",
"393 100 OFFCURVE",
"393 162 CURVE SMOOTH",
"393 226 OFFCURVE",
"399 293 OFFCURVE",
"398 341 CURVE SMOOTH",
"396 440 OFFCURVE",
"358 470 OFFCURVE",
"259 470 CURVE SMOOTH",
"175 470 OFFCURVE",
"99 436 OFFCURVE",
"62 415 CURVE",
"62 415 OFFCURVE"
);
},
{
closed = 1;
nodes = (
"418 -16 OFFCURVE",
"541 -15 CURVE SMOOTH",
"638 -15 OFFCURVE",
"691 42 OFFCURVE",
"703 59 CURVE",
"688 85 LINE",
"686 85 OFFCURVE",
"639 40 OFFCURVE",
"564 41 CURVE SMOOTH",
"442 42 OFFCURVE",
"413 137 OFFCURVE",
"414 239 CURVE SMOOTH",
"416 350 OFFCURVE",
"465 422 OFFCURVE",
"531 422 CURVE SMOOTH",
"593 422 OFFCURVE",
"624 354 OFFCURVE",
"624 279 CURVE",
"575 278 LINE",
"392 260 LINE",
"404 223 LINE",
"719 225 LINE",
"736 383 OFFCURVE",
"654 464 OFFCURVE",
"544 463 CURVE SMOOTH",
"429 461 OFFCURVE",
"322 373 OFFCURVE",
"322 197 CURVE SMOOTH",
"322 58 OFFCURVE"
);
}
);
width = 948;
}
);
unicode = 00E6;
},
{
glyphname = b;
layers = (
{
layerId = "51BB9282-3B82-4DF1-A67A-294D3E37D73A";
paths = (
{
closed = 1;
nodes = (
"487 139 OFFCURVE",
"491 265 CURVE SMOOTH",
"495 403 OFFCURVE",
"417 472 OFFCURVE",
"321 472 CURVE SMOOTH",
"256 472 OFFCURVE",
"178 431 OFFCURVE",
"141 344 CURVE",
"164 311 LINE",
"192 376 OFFCURVE",
"243 410 OFFCURVE",
"286 411 CURVE SMOOTH",
"337 412 OFFCURVE",
"396 372 OFFCURVE",
"395 266 CURVE SMOOTH",
"394 126 OFFCURVE",
"341 37 OFFCURVE",
"256 39 CURVE SMOOTH",
"173 39 OFFCURVE",
"130 109 OFFCURVE",
"130 109 CURVE",
"79 17 LINE",
"112 4 OFFCURVE",
"166 -10 OFFCURVE",
"242 -9 CURVE SMOOTH",
"419 -8 OFFCURVE"
);
},
{
closed = 1;
nodes = (
"174 62 OFFCURVE",
"171 92 OFFCURVE",
"169 125 CURVE SMOOTH",
"166 169 OFFCURVE",
"158 525 OFFCURVE",
"182 655 CURVE",
"182 655 OFFCURVE",
"51 638 OFFCURVE",
"-13 639 CURVE",
"-9 590 LINE",
"46 591 OFFCURVE",
"76 581 OFFCURVE",
"81 544 CURVE SMOOTH",
"95 440 OFFCURVE",
"89 98 OFFCURVE",
"79 17 CURVE",
"176 51 LINE"
);
}
);
width = 530;
}
);
unicode = 0062;
},
{
glyphname = c;
layers = (
{
layerId = "51BB9282-3B82-4DF1-A67A-294D3E37D73A";
paths = (
{
closed = 1;
nodes = (
"115 470 OFFCURVE",
"294 470 CURVE SMOOTH",
"364 470 OFFCURVE",
"408 447 OFFCURVE",
"408 447 CURVE",
"409 437 OFFCURVE",
"409 424 OFFCURVE",
"409 410 CURVE SMOOTH",
"409 383 OFFCURVE",
"408 352 OFFCURVE",
"404 330 CURVE",
"358 334 LINE",
"342 367 OFFCURVE",
"327 397 OFFCURVE",
"290 424 CURVE",
"316 417 OFFCURVE",
"333 402 OFFCURVE",
"344 383 CURVE",
"327 397 OFFCURVE",
"293 418 OFFCURVE",
"253 418 CURVE SMOOTH",
"175 418 OFFCURVE",
"128 333 OFFCURVE",
"128 216 CURVE SMOOTH",
"128 108 OFFCURVE",
"185 41 OFFCURVE",
"280 41 CURVE SMOOTH",
"331 41 OFFCURVE",
"374 62 OFFCURVE",
"403 86 CURVE",
"420 59 LINE",
"377 11 OFFCURVE",
"319 -16 OFFCURVE",
"246 -16 CURVE SMOOTH",
"132 -16 OFFCURVE",
"34 40 OFFCURVE",
"34 198 CURVE SMOOTH",
"34 320 OFFCURVE"
);
}
);
width = 447;
}
);
leftMetricsKey = "=o";
unicode = 0063;
},
{
glyphname = d;
lastChange = "2018-02-16 12:46:59 +0000";
layers = (
{
layerId = "51BB9282-3B82-4DF1-A67A-294D3E37D73A";
paths = (
{
closed = 1;
nodes = (
"524 -6 OFFCURVE",
"551 10 CURVE",
"541 44 LINE",
"534 42 OFFCURVE",
"527 42 OFFCURVE",
"521 42 CURVE SMOOTH",
"466 42 OFFCURVE",
"448 69 OFFCURVE",
"445 125 CURVE SMOOTH",
"444 144 OFFCURVE",
"441 224 OFFCURVE",
"441 318 CURVE SMOOTH",
"441 438 OFFCURVE",
"445 582 OFFCURVE",
"459 655 CURVE",
"459 655 OFFCURVE",
"349 639 OFFCURVE",
"282 639 CURVE SMOOTH",
"273 639 LINE",
"277 590 LINE",
"283 590 LINE SMOOTH",
"335 590 OFFCURVE",
"366 579 OFFCURVE",
"367 544 CURVE SMOOTH",
"370 492 OFFCURVE",
"373 390 OFFCURVE",
"373 296 CURVE SMOOTH",
"373 219 OFFCURVE",
"370 146 OFFCURVE",
"366 109 CURVE",
"373 76 LINE",
"373 34 OFFCURVE",
"391 -16 OFFCURVE",
"460 -16 CURVE SMOOTH",
"493 -16 OFFCURVE"
);
},
{
closed = 1;
nodes = (
"369 51 OFFCURVE",
"393 108 CURVE",
"370 139 LINE",
"354 100 OFFCURVE",
"313 52 OFFCURVE",
"260 52 CURVE SMOOTH",
"176 52 OFFCURVE",
"129 120 OFFCURVE",
"129 207 CURVE SMOOTH",
"129 328 OFFCURVE",
"197 420 OFFCURVE",
"288 420 CURVE SMOOTH",
"344 420 OFFCURVE",
"383 385 OFFCURVE",
"383 385 CURVE",
"414 453 LINE",
"395 460 OFFCURVE",
"362 467 OFFCURVE",
"325 467 CURVE SMOOTH",
"132 467 OFFCURVE",
"51 314 OFFCURVE",
"51 191 CURVE SMOOTH",
"51 73 OFFCURVE",
"116 -10 OFFCURVE",
"226 -10 CURVE SMOOTH",
"320 -10 OFFCURVE"
);
}
);
width = 574;
}
);
unicode = 0064;
userData = {
com.typemytype.robofont.layerData = {
"Jan 30 17, 19:39" = {
anchors = (
);
components = (
);
contours = (
{
points = (
{
smooth = 0;
x = 640;
y = -21;
},
{
smooth = 0;
x = 681;
y = -8;
},
{
segmentType = curve;
smooth = 0;
x = 716;
y = 13;
},
{
segmentType = line;
smooth = 0;
x = 703;
y = 57;
},
{
smooth = 0;
x = 693;
y = 55;
},
{
smooth = 0;
x = 684;
y = 55;
},
{
segmentType = curve;
smooth = 1;
x = 676;
y = 55;
},
{
smooth = 0;
x = 618;
y = 55;
},
{
smooth = 0;
x = 596;
y = 90;
},
{
segmentType = curve;
smooth = 1;
x = 591;
y = 162;
},
{
smooth = 0;
x = 589;
y = 187;
},
{
smooth = 0;
x = 586;
y = 291;
},
{
segmentType = curve;
smooth = 1;
x = 586;
y = 413;
},
{
smooth = 0;
x = 586;
y = 569;
},
{
smooth = 0;
x = 591;
y = 756;
},
{
segmentType = curve;
smooth = 0;
x = 609;
y = 850;
},
{
smooth = 0;
x = 609;
y = 850;
},
{
smooth = 0;
x = 453;
y = 830;
},
{
segmentType = curve;
smooth = 1;
x = 366;
y = 830;
},
{
segmentType = line;
smooth = 0;
x = 355;
y = 830;
},
{
segmentType = line;
smooth = 0;
x = 360;
y = 766;
},
{
segmentType = line;
smooth = 1;
x = 367;
y = 766;
},
{
smooth = 0;
x = 435;
y = 766;
},
{
smooth = 0;
x = 475;
y = 752;
},
{
segmentType = curve;
smooth = 1;
x = 477;
y = 707;
},
{
smooth = 0;
x = 480;
y = 639;
},
{
smooth = 0;
x = 484;
y = 507;
},
{
segmentType = curve;
smooth = 1;
x = 484;
y = 385;
},
{
smooth = 0;
x = 484;
y = 284;
},
{
smooth = 0;
x = 481;
y = 189;
},
{
segmentType = curve;
smooth = 0;
x = 475;
y = 142;
},
{
segmentType = line;
smooth = 0;
x = 484;
y = 99;
},
{
smooth = 0;
x = 484;
y = 44;
},
{
smooth = 0;
x = 508;
y = -21;
},
{
segmentType = curve;
smooth = 1;
x = 598;
y = -21;
}
);
},
{
points = (
{
smooth = 0;
x = 403;
y = -13;
},
{
smooth = 0;
x = 479;
y = 66;
},
{
segmentType = curve;
smooth = 0;
x = 511;
y = 140;
},
{
segmentType = line;
smooth = 0;
x = 480;
y = 181;
},
{
smooth = 0;
x = 460;
y = 130;
},
{
smooth = 0;
x = 407;
y = 67;
},
{
segmentType = curve;
smooth = 1;
x = 328;
y = 67;
},
{
smooth = 0;
x = 228;
y = 67;
},
{
smooth = 0;
x = 180;
y = 156;
},
{
segmentType = curve;
smooth = 1;
x = 180;
y = 261;
},
{
smooth = 0;
x = 180;
y = 426;
},
{
smooth = 0;
x = 256;
y = 545;
},
{
segmentType = curve;
smooth = 1;
x = 374;
y = 545;
},
{
smooth = 0;
x = 447;
y = 545;
},
{
smooth = 0;
x = 498;
y = 500;
},
{
segmentType = curve;
smooth = 0;
x = 498;
y = 500;
},
{
segmentType = line;
smooth = 0;
x = 538;
y = 588;
},
{
smooth = 0;
x = 513;
y = 597;
},
{
smooth = 0;
x = 470;
y = 606;
},
{
segmentType = curve;
smooth = 1;
x = 422;
y = 606;
},
{
smooth = 0;
x = 171;
y = 606;
},
{
smooth = 0;
x = 56;
y = 408;
},
{
segmentType = curve;
smooth = 1;
x = 56;
y = 248;
},
{
smooth = 0;
x = 56;
y = 95;
},
{
smooth = 0;
x = 164;
y = -13;
},
{
segmentType = curve;
smooth = 1;
x = 307;
y = -13;
}
);
}
);
lib = {
};
name = d;
unicodes = (
);
width = 745;
};
};
};
},
{
color = 0;
glyphname = eth;
lastChange = "2018-02-16 12:36:00 +0000";
layers = (
{
layerId = "51BB9282-3B82-4DF1-A67A-294D3E37D73A";
paths = (
{
closed = 1;
nodes = (
"451 87 OFFCURVE",
"451 269 CURVE SMOOTH",
"451 460 OFFCURVE",
"308 628 OFFCURVE",
"164 684 CURVE",
"152 678 OFFCURVE",
"144 658 OFFCURVE",
"144 644 CURVE",
"290 554 OFFCURVE",
"364 461 OFFCURVE",
"364 277 CURVE SMOOTH",
"364 185 OFFCURVE",
"359 51 OFFCURVE",
"246 51 CURVE SMOOTH",
"149 51 OFFCURVE",
"119 132 OFFCURVE",
"119 217 CURVE SMOOTH",
"119 311 OFFCURVE",
"179 378 OFFCURVE",
"257 378 CURVE SMOOTH",
"314 378 OFFCURVE",
"351 364 OFFCURVE",
"374 341 CURVE",
"369 400 LINE",
"351 407 OFFCURVE",
"316 420 OFFCURVE",
"270 420 CURVE SMOOTH",
"105 420 OFFCURVE",
"33 302 OFFCURVE",
"34 188 CURVE SMOOTH",
"35 84 OFFCURVE",
"102 -2 OFFCURVE",
"236 -2 CURVE SMOOTH",
"362 -2 OFFCURVE"
);
},
{
closed = 1;
nodes = (
"280 543 OFFCURVE",
"363 580 OFFCURVE",
"422 603 CURVE",
"400 651 LINE",
"336 619 OFFCURVE",
"247 577 OFFCURVE",
"152 535 CURVE",
"172 489 LINE"
);
}
);
width = 486;
}
);
leftMetricsKey = "=o";
rightMetricsKey = "=o";
unicode = 00F0;
},
{
glyphname = e;
lastChange = "2018-02-16 12:48:26 +0000";
layers = (
{
layerId = "51BB9282-3B82-4DF1-A67A-294D3E37D73A";
paths = (
{
closed = 1;
nodes = (
"132 -16 OFFCURVE",
"254 -15 CURVE SMOOTH",
"352 -15 OFFCURVE",
"404 42 OFFCURVE",
"417 59 CURVE",
"401 85 LINE",
"400 85 OFFCURVE",
"353 40 OFFCURVE",
"277 41 CURVE SMOOTH",
"156 42 OFFCURVE",
"116 137 OFFCURVE",
"118 239 CURVE SMOOTH",
"119 350 OFFCURVE",
"179 422 OFFCURVE",
"244 422 CURVE SMOOTH",
"306 423 OFFCURVE",
"348 354 OFFCURVE",
"348 279 CURVE",
"289 278 LINE",
"95 260 LINE",
"108 223 LINE",
"423 225 LINE",
"440 383 OFFCURVE",
"367 464 OFFCURVE",
"258 463 CURVE SMOOTH",
"142 461 OFFCURVE",
"44 373 OFFCURVE",
"44 197 CURVE SMOOTH",
"44 58 OFFCURVE"
);
}
);
width = 470;
}
);
unicode = 0065;
},
{
glyphname = schwa;
layers = (
{
layerId = "51BB9282-3B82-4DF1-A67A-294D3E37D73A";
paths = (
{
closed = 1;
nodes = (
"357 464 OFFCURVE",
"234 463 CURVE SMOOTH",
"136 462 OFFCURVE",
"84 405 OFFCURVE",
"72 389 CURVE",
"87 362 LINE",
"89 362 OFFCURVE",
"136 407 OFFCURVE",
"211 407 CURVE SMOOTH",
"333 405 OFFCURVE",
"362 310 OFFCURVE",
"360 208 CURVE SMOOTH",
"359 97 OFFCURVE",
"310 25 OFFCURVE",
"244 25 CURVE SMOOTH",
"182 25 OFFCURVE",
"143 93 OFFCURVE",
"143 169 CURVE",
"199 169 LINE",
"383 187 LINE",
"370 224 LINE",
"55 223 LINE",
"39 64 OFFCURVE",
"121 -17 OFFCURVE",
"230 -15 CURVE SMOOTH",
"346 -14 OFFCURVE",
"453 75 OFFCURVE",
"453 250 CURVE SMOOTH",
"453 390 OFFCURVE"
);
}
);
width = 470;
}
);
unicode = 0259;
},
{
glyphname = f;
layers = (
{
layerId = "51BB9282-3B82-4DF1-A67A-294D3E37D73A";
paths = (
{
closed = 1;
nodes = (
"268 42 LINE",
"217 40 OFFCURVE",
"189 69 OFFCURVE",
"184 140 CURVE SMOOTH",
"178 249 OFFCURVE",
"181 400 OFFCURVE",
"182 517 CURVE SMOOTH",
"184 617 OFFCURVE",
"205 649 OFFCURVE",
"239 653 CURVE SMOOTH",
"296 659 OFFCURVE",
"340 601 OFFCURVE",
"372 553 CURVE",
"388 584 OFFCURVE",
"405 640 OFFCURVE",
"405 682 CURVE",
"405 682 OFFCURVE",
"357 699 OFFCURVE",
"306 699 CURVE SMOOTH",
"216 700 OFFCURVE",
"105 655 OFFCURVE",
"103 480 CURVE SMOOTH",
"103 464 OFFCURVE",
"102 450 OFFCURVE",
"102 436 CURVE",
"103 424 OFFCURVE",
"101 412 OFFCURVE",
"101 400 CURVE SMOOTH",
"103 314 OFFCURVE",
"105 242 OFFCURVE",
"105 169 CURVE SMOOTH",
"105 87 OFFCURVE",
"109 42 OFFCURVE",
"19 47 CURVE",
"25 0 LINE",
"276 0 LINE"
);
},
{
closed = 1;
nodes = (
"306 402 LINE",
"296 453 LINE",
"195 449 OFFCURVE",
"132 449 OFFCURVE",
"23 453 CURVE",
"31 400 LINE",
"68 400 OFFCURVE",
"125 390 OFFCURVE",
"126 339 CURVE",
"158 388 LINE"
);
}
);
width = 376;
}
);
unicode = 0066;
},
{
glyphname = g;
layers = (
{
layerId = "51BB9282-3B82-4DF1-A67A-294D3E37D73A";
paths = (
{
closed = 1;
nodes = (
"523 -121 OFFCURVE",
"524 -18 CURVE SMOOTH",
"525 91 OFFCURVE",
"389 100 OFFCURVE",
"206 100 CURVE SMOOTH",
"159 100 OFFCURVE",
"169 143 OFFCURVE",
"210 176 CURVE",
"199 199 LINE",
"147 169 OFFCURVE",
"98 134 OFFCURVE",
"65 95 CURVE",
"72 53 OFFCURVE",
"94 46 OFFCURVE",
"149 44 CURVE SMOOTH",
"271 38 OFFCURVE",
"427 44 OFFCURVE",
"427 -44 CURVE SMOOTH",
"428 -92 OFFCURVE",
"371 -159 OFFCURVE",
"262 -159 CURVE SMOOTH",
"175 -159 OFFCURVE",
"129 -132 OFFCURVE",
"129 -82 CURVE",
"129 -16 OFFCURVE",
"214 34 OFFCURVE",
"282 49 CURVE",
"205 54 LINE",
"124 23 OFFCURVE",
"38 -22 OFFCURVE",
"39 -103 CURVE SMOOTH",
"39 -166 OFFCURVE",
"112 -206 OFFCURVE",
"233 -206 CURVE SMOOTH",
"404 -206 OFFCURVE"
);
},
{
closed = 1;
nodes = (
"445 236 OFFCURVE",
"445 348 CURVE SMOOTH",
"445 439 OFFCURVE",
"343 470 OFFCURVE",
"270 470 CURVE SMOOTH",
"161 470 OFFCURVE",
"56 404 OFFCURVE",
"57 296 CURVE SMOOTH",
"58 222 OFFCURVE",
"126 176 OFFCURVE",
"237 176 CURVE SMOOTH",
"342 176 OFFCURVE"
);
},
{
closed = 1;
nodes = (
"150 244 OFFCURVE",
"150 315 CURVE SMOOTH",
"150 383 OFFCURVE",
"206 429 OFFCURVE",
"258 429 CURVE SMOOTH",
"320 429 OFFCURVE",
"350 379 OFFCURVE",
"350 330 CURVE SMOOTH",
"350 270 OFFCURVE",
"314 219 OFFCURVE",
"248 218 CURVE SMOOTH",
"199 217 OFFCURVE"
);
},
{
closed = 1;
nodes = (
"571 439 OFFCURVE",
"567 467 CURVE",
"488 421 OFFCURVE",
"427 399 OFFCURVE",
"403 397 CURVE",
"436 365 LINE",
"475 365 OFFCURVE",
"526 365 OFFCURVE",
"569 363 CURVE",
"572 387 OFFCURVE"
);
}
);
width = 592;
}
);
unicode = 0067;
},
{
glyphname = h;
lastChange = "2018-02-16 12:48:03 +0000";
layers = (
{
layerId = "51BB9282-3B82-4DF1-A67A-294D3E37D73A";
paths = (
{
closed = 1;
nodes = (
"564 39 LINE",
"540 39 OFFCURVE",
"496 43 OFFCURVE",
"495 101 CURVE",
"497 162 OFFCURVE",
"500 232 OFFCURVE",
"500 287 CURVE SMOOTH",
"500 322 OFFCURVE",
"499 353 OFFCURVE",
"497 370 CURVE SMOOTH",
"486 443 OFFCURVE",
"436 471 OFFCURVE",
"383 471 CURVE SMOOTH",
"300 471 OFFCURVE",
"216 402 OFFCURVE",
"178 350 CURVE",
"197 321 LINE",
"197 321 OFFCURVE",
"249 395 OFFCURVE",
"327 395 CURVE SMOOTH",
"393 395 OFFCURVE",
"416 370 OFFCURVE",
"422 321 CURVE SMOOTH",
"425 298 OFFCURVE",
"427 267 OFFCURVE",
"427 233 CURVE SMOOTH",
"427 193 OFFCURVE",
"426 147 OFFCURVE",
"421 105 CURVE SMOOTH",
"414 43 OFFCURVE",
"378 43 OFFCURVE",
"332 48 CURVE",
"340 0 LINE",
"571 0 LINE"
);
},
{
closed = 1;
nodes = (
"273 39 LINE",
"269 39 LINE SMOOTH",
"225 39 OFFCURVE",
"202 59 OFFCURVE",
"202 132 CURVE SMOOTH",
"202 250 OFFCURVE",
"206 528 OFFCURVE",
"221 655 CURVE",
"221 655 OFFCURVE",
"105 637 OFFCURVE",
"40 638 CURVE",
"45 590 LINE",
"105 590 OFFCURVE",
"129 588 OFFCURVE",
"132 554 CURVE",
"134 498 OFFCURVE",
"135 435 OFFCURVE",
"135 372 CURVE SMOOTH",
"135 270 OFFCURVE",
"132 169 OFFCURVE",
"128 105 CURVE",
"123 68 OFFCURVE",
"99 47 OFFCURVE",
"49 47 CURVE SMOOTH",
"39 47 LINE",
"47 0 LINE",
"281 0 LINE"
);
}
);
width = 598;
}
);
unicode = 0068;
},
{
glyphname = idotless;
lastChange = "2018-02-16 12:49:20 +0000";
layers = (
{
layerId = "51BB9282-3B82-4DF1-A67A-294D3E37D73A";
paths = (
{
closed = 1;
nodes = (
"269 39 LINE",
"265 39 LINE SMOOTH",
"221 39 OFFCURVE",
"199 56 OFFCURVE",
"198 132 CURVE SMOOTH",
"197 210 OFFCURVE",
"202 351 OFFCURVE",
"217 477 CURVE",
"217 477 OFFCURVE",
"105 460 OFFCURVE",
"40 461 CURVE",
"45 413 LINE",
"105 413 OFFCURVE",
"129 410 OFFCURVE",
"132 377 CURVE",
"134 321 OFFCURVE",
"135 258 OFFCURVE",
"135 195 CURVE SMOOTH",
"135 160 OFFCURVE",
"132 126 OFFCURVE",
"128 105 CURVE",
"123 68 OFFCURVE",
"99 47 OFFCURVE",
"49 47 CURVE SMOOTH",
"39 47 LINE",
"47 0 LINE",
"277 0 LINE"
);
}
);
width = 305;
}
);
unicode = 0131;
},
{
glyphname = j;
layers = (
{
components = (
{
name = dotaccent;
transform = "{1, 0, 0, 1, 140, -7}";
}
);
layerId = "51BB9282-3B82-4DF1-A67A-294D3E37D73A";
paths = (
{
closed = 1;
nodes = (
"201 366 OFFCURVE",
"209 466 CURVE",
"209 466 OFFCURVE",
"101 456 OFFCURVE",
"14 457 CURVE",
"18 410 LINE",
"89 410 OFFCURVE",
"112 387 OFFCURVE",
"116 353 CURVE SMOOTH",
"120 306 OFFCURVE",
"130 150 OFFCURVE",
"119 -2 CURVE SMOOTH",
"108 -116 OFFCURVE",
"52 -164 OFFCURVE",
"-22 -146 CURVE",
"-39 -185 LINE",
"-28 -191 OFFCURVE",
"11 -204 OFFCURVE",
"53 -203 CURVE SMOOTH",
"151 -203 OFFCURVE",
"203 -142 OFFCURVE",
"201 -6 CURVE SMOOTH",
"200 76 OFFCURVE"
);
}
);
width = 282;
}
);
unicode = 006A;
},
{
glyphname = jdotless;
layers = (
{
layerId = "51BB9282-3B82-4DF1-A67A-294D3E37D73A";
paths = (
{
closed = 1;
nodes = (
"201 366 OFFCURVE",
"209 466 CURVE",
"209 466 OFFCURVE",
"101 456 OFFCURVE",
"14 457 CURVE",
"18 410 LINE",
"89 410 OFFCURVE",
"112 387 OFFCURVE",
"116 353 CURVE SMOOTH",
"120 306 OFFCURVE",
"130 150 OFFCURVE",
"119 -2 CURVE SMOOTH",
"108 -116 OFFCURVE",
"52 -164 OFFCURVE",
"-22 -146 CURVE",
"-39 -185 LINE",
"-28 -191 OFFCURVE",
"11 -204 OFFCURVE",
"53 -203 CURVE SMOOTH",
"151 -203 OFFCURVE",
"203 -142 OFFCURVE",
"201 -6 CURVE SMOOTH",
"200 76 OFFCURVE"
);
}
);
width = 232;
}
);
unicode = 0237;
},
{
glyphname = k;
layers = (
{
layerId = "51BB9282-3B82-4DF1-A67A-294D3E37D73A";
paths = (
{
closed = 1;
nodes = (
"273 39 LINE",
"269 39 LINE SMOOTH",
"225 39 OFFCURVE",
"202 59 OFFCURVE",
"202 132 CURVE SMOOTH",
"202 250 OFFCURVE",
"206 528 OFFCURVE",
"221 655 CURVE",
"221 655 OFFCURVE",
"95 637 OFFCURVE",
"30 638 CURVE",
"35 590 LINE",
"95 590 OFFCURVE",
"119 588 OFFCURVE",
"122 554 CURVE",
"124 498 OFFCURVE",
"125 435 OFFCURVE",
"125 372 CURVE SMOOTH",
"125 270 OFFCURVE",
"122 169 OFFCURVE",
"118 105 CURVE",
"113 68 OFFCURVE",
"89 47 OFFCURVE",
"39 47 CURVE SMOOTH",
"29 47 LINE",
"37 0 LINE",
"281 0 LINE"
);
},
{
closed = 1;
nodes = (
"507 -5 OFFCURVE",
"556 9 CURVE",
"547 49 LINE",
"416 51 OFFCURVE",
"316 265 OFFCURVE",
"321 275 CURVE",
"295 267 OFFCURVE",
"259 257 OFFCURVE",
"236 263 CURVE",
"264 206 OFFCURVE",
"366 6 OFFCURVE",
"436 -6 CURVE",
"470 -8 OFFCURVE"
);
},
{
closed = 1;
nodes = (
"295 236 OFFCURVE",
"319 242 CURVE",
"341 263 OFFCURVE",
"399 330 OFFCURVE",
"450 383 CURVE SMOOTH",
"473 407 OFFCURVE",
"488 419 OFFCURVE",
"512 420 CURVE",
"502 457 LINE",
"428 454 OFFCURVE",
"362 453 OFFCURVE",
"303 457 CURVE",
"318 417 LINE",
"378 419 OFFCURVE",
"373 399 OFFCURVE",
"363 383 CURVE SMOOTH",
"330 334 OFFCURVE",
"277 290 OFFCURVE",
"263 282 CURVE",
"242 282 OFFCURVE",
"224 286 OFFCURVE",
"203 290 CURVE",
"187 236 LINE",
"227 236 OFFCURVE"
);
}
);
width = 563;
}
);
unicode = 006B;
},
{
glyphname = kgreenlandic;
layers = (
{
layerId = "51BB9282-3B82-4DF1-A67A-294D3E37D73A";
paths = (
{
closed = 1;
nodes = (
"515 1 OFFCURVE",
"603 0 CURVE",
"594 47 LINE",
"553 46 OFFCURVE",
"536 62 OFFCURVE",
"356 263 CURVE",
"359 230 LINE",
"388 266 OFFCURVE",
"467 339 OFFCURVE",
"515 381 CURVE SMOOTH",
"540 403 OFFCURVE",
"563 425 OFFCURVE",
"594 424 CURVE",
"587 470 LINE",
"587 470 OFFCURVE",
"490 464 OFFCURVE",
"397 467 CURVE",
"404 420 LINE",
"460 423 OFFCURVE",
"457 400 OFFCURVE",
"444 385 CURVE SMOOTH",
"394 330 OFFCURVE",
"325 268 OFFCURVE",
"296 242 CURVE",
"303 213 LINE",
"368 143 OFFCURVE",
"402 96 OFFCURVE",
"414 79 CURVE SMOOTH",
"436 49 OFFCURVE",
"424 43 OFFCURVE",
"396 44 CURVE",
"407 0 LINE",
"494 0 OFFCURVE"
);
},
{
closed = 1;
nodes = (
"339 44 LINE",
"299 41 OFFCURVE",
"261 55 OFFCURVE",
"258 110 CURVE SMOOTH",
"252 219 OFFCURVE",
"255 272 OFFCURVE",
"262 363 CURVE SMOOTH",
"266 411 OFFCURVE",
"298 421 OFFCURVE",
"337 420 CURVE",
"331 468 LINE",
"249 464 OFFCURVE",
"205 463 OFFCURVE",
"111 467 CURVE",
"112 460 OFFCURVE",
"115 431 OFFCURVE",
"117 419 CURVE",
"177 420 OFFCURVE",
"187 396 OFFCURVE",
"187 347 CURVE SMOOTH",
"187 222 OFFCURVE",
"187 183 OFFCURVE",
"183 108 CURVE SMOOTH",
"181 59 OFFCURVE",
"167 50 OFFCURVE",
"116 49 CURVE",
"122 -1 LINE",
"347 0 LINE"
);
}
);
width = 571;
}
);
unicode = 0138;
},
{
glyphname = l;
layers = (
{
layerId = "51BB9282-3B82-4DF1-A67A-294D3E37D73A";
paths = (
{
closed = 1;
nodes = (
"273 39 LINE",
"269 39 LINE SMOOTH",
"225 39 OFFCURVE",
"203 56 OFFCURVE",
"202 132 CURVE SMOOTH",
"199 250 OFFCURVE",
"206 528 OFFCURVE",
"221 655 CURVE",
"221 655 OFFCURVE",
"95 637 OFFCURVE",
"30 638 CURVE",
"35 590 LINE",
"95 590 OFFCURVE",
"119 588 OFFCURVE",
"122 554 CURVE",
"124 498 OFFCURVE",
"125 435 OFFCURVE",
"125 372 CURVE SMOOTH",
"125 270 OFFCURVE",
"122 169 OFFCURVE",
"118 105 CURVE",
"113 68 OFFCURVE",
"89 47 OFFCURVE",
"39 47 CURVE SMOOTH",
"29 47 LINE",
"37 0 LINE",
"281 0 LINE"
);
}
);
width = 307;
}
);
unicode = 006C;
},
{
glyphname = m;
layers = (
{
layerId = "51BB9282-3B82-4DF1-A67A-294D3E37D73A";
paths = (
{
closed = 1;
nodes = (
"862 39 LINE",
"838 39 OFFCURVE",
"794 43 OFFCURVE",
"793 101 CURVE",
"795 162 OFFCURVE",
"798 232 OFFCURVE",
"798 287 CURVE SMOOTH",
"798 322 OFFCURVE",
"797 353 OFFCURVE",
"795 370 CURVE SMOOTH",
"784 443 OFFCURVE",
"739 471 OFFCURVE",
"681 471 CURVE SMOOTH",
"598 471 OFFCURVE",
"514 402 OFFCURVE",
"476 350 CURVE",
"495 321 LINE",
"495 321 OFFCURVE",
"547 395 OFFCURVE",
"625 395 CURVE SMOOTH",
"671 395 OFFCURVE",
"703 370 OFFCURVE",
"710 321 CURVE SMOOTH",
"713 298 OFFCURVE",
"715 267 OFFCURVE",
"715 233 CURVE SMOOTH",
"715 193 OFFCURVE",
"714 147 OFFCURVE",
"709 105 CURVE SMOOTH",
"701 43 OFFCURVE",
"662 42 OFFCURVE",
"629 45 CURVE",
"637 0 LINE",
"869 0 LINE"
);
},
{
closed = 1;
nodes = (
"280 37 LINE",
"250 37 OFFCURVE",
"214 42 OFFCURVE",
"214 105 CURVE SMOOTH",
"215 194 OFFCURVE",
"217 305 OFFCURVE",
"221 391 CURVE",
"204 381 LINE",
"209 401 OFFCURVE",
"218 468 OFFCURVE",
"218 468 CURVE SMOOTH",
"218 468 OFFCURVE",
"91 457 OFFCURVE",
"30 458 CURVE",
"35 411 LINE",
"131 409 OFFCURVE",
"132 374 OFFCURVE",
"132 291 CURVE SMOOTH",
"132 240 OFFCURVE",
"132 162 OFFCURVE",
"126 94 CURVE SMOOTH",
"122 53 OFFCURVE",
"82 43 OFFCURVE",
"39 48 CURVE",
"45 0 LINE",
"287 0 LINE"
);
},
{
closed = 1;
nodes = (
"564 39 LINE",
"540 39 OFFCURVE",
"502 43 OFFCURVE",
"501 101 CURVE",
"504 162 OFFCURVE",
"506 232 OFFCURVE",
"506 287 CURVE SMOOTH",
"506 322 OFFCURVE",
"505 353 OFFCURVE",
"503 370 CURVE SMOOTH",
"492 443 OFFCURVE",
"451 471 OFFCURVE",
"393 471 CURVE SMOOTH",
"310 471 OFFCURVE",
"235 420 OFFCURVE",
"197 373 CURVE",
"216 344 LINE",
"216 344 OFFCURVE",
"256 397 OFFCURVE",
"333 397 CURVE SMOOTH",
"379 397 OFFCURVE",
"408 370 OFFCURVE",
"415 321 CURVE SMOOTH",
"418 298 OFFCURVE",
"420 267 OFFCURVE",
"420 233 CURVE SMOOTH",
"420 193 OFFCURVE",
"419 147 OFFCURVE",
"414 105 CURVE SMOOTH",
"407 43 OFFCURVE",
"373 43 OFFCURVE",
"340 46 CURVE",
"348 0 LINE",
"571 0 LINE"
);
}
);
width = 890;
}
);
unicode = 006D;
},
{
glyphname = n;
lastChange = "2018-02-16 12:47:37 +0000";
layers = (
{
layerId = "51BB9282-3B82-4DF1-A67A-294D3E37D73A";
paths = (
{
closed = 1;
nodes = (
"577 39 LINE",
"553 39 OFFCURVE",
"509 43 OFFCURVE",
"508 101 CURVE",
"511 162 OFFCURVE",
"513 232 OFFCURVE",
"513 287 CURVE SMOOTH",
"513 322 OFFCURVE",
"512 353 OFFCURVE",
"510 370 CURVE SMOOTH",
"501 443 OFFCURVE",
"454 471 OFFCURVE",
"396 471 CURVE SMOOTH",
"313 471 OFFCURVE",
"239 402 OFFCURVE",
"201 350 CURVE",
"220 321 LINE",
"220 321 OFFCURVE",
"273 395 OFFCURVE",
"350 395 CURVE SMOOTH",
"396 395 OFFCURVE",
"428 370 OFFCURVE",
"435 321 CURVE SMOOTH",
"438 298 OFFCURVE",
"440 267 OFFCURVE",
"440 233 CURVE SMOOTH",
"440 193 OFFCURVE",
"439 147 OFFCURVE",
"434 105 CURVE SMOOTH",
"427 43 OFFCURVE",
"391 43 OFFCURVE",
"345 48 CURVE",
"353 0 LINE",
"584 0 LINE"
);
},
{
closed = 1;
nodes = (
"287 37 LINE",
"258 37 OFFCURVE",
"222 42 OFFCURVE",
"222 105 CURVE SMOOTH",
"223 194 OFFCURVE",
"221 282 OFFCURVE",
"225 368 CURVE",
"208 358 LINE",
"213 378 OFFCURVE",
"226 468 OFFCURVE",
"226 468 CURVE SMOOTH",
"226 468 OFFCURVE",
"109 457 OFFCURVE",
"48 458 CURVE",
"53 411 LINE",
"149 409 OFFCURVE",
"150 374 OFFCURVE",
"150 291 CURVE SMOOTH",
"150 240 OFFCURVE",
"150 162 OFFCURVE",
"143 94 CURVE SMOOTH",
"139 53 OFFCURVE",
"107 46 OFFCURVE",
"57 48 CURVE",
"63 0 LINE",
"295 0 LINE"
);
}
);
width = 622;
}
);
unicode = 006E;
},
{
glyphname = eng;
layers = (
{
layerId = "51BB9282-3B82-4DF1-A67A-294D3E37D73A";
paths = (
{
closed = 1;
nodes = (
"287 37 LINE",
"258 37 OFFCURVE",
"222 42 OFFCURVE",
"222 105 CURVE SMOOTH",
"223 194 OFFCURVE",
"221 282 OFFCURVE",
"225 368 CURVE",
"208 358 LINE",
"213 378 OFFCURVE",
"226 468 OFFCURVE",
"226 468 CURVE SMOOTH",
"226 468 OFFCURVE",
"99 457 OFFCURVE",
"38 458 CURVE",
"43 411 LINE",
"139 409 OFFCURVE",
"140 374 OFFCURVE",
"140 291 CURVE SMOOTH",
"140 240 OFFCURVE",
"140 162 OFFCURVE",
"133 94 CURVE SMOOTH",
"129 53 OFFCURVE",
"97 46 OFFCURVE",
"47 48 CURVE",
"53 0 LINE",
"295 0 LINE"
);
},
{
closed = 1;
nodes = (
"523 218 OFFCURVE",
"523 287 CURVE SMOOTH",
"523 322 OFFCURVE",
"522 353 OFFCURVE",
"520 370 CURVE SMOOTH",
"509 443 OFFCURVE",
"464 471 OFFCURVE",
"406 471 CURVE SMOOTH",
"323 471 OFFCURVE",
"239 402 OFFCURVE",
"201 350 CURVE",
"220 321 LINE",
"220 321 OFFCURVE",
"273 395 OFFCURVE",
"350 395 CURVE SMOOTH",
"396 395 OFFCURVE",
"427 370 OFFCURVE",
"434 321 CURVE SMOOTH",
"437 298 OFFCURVE",
"440 267 OFFCURVE",
"440 233 CURVE SMOOTH",
"440 126 OFFCURVE",
"440 20 OFFCURVE",
"440 -44 CURVE SMOOTH",
"440 -162 OFFCURVE",
"382 -209 OFFCURVE",
"320 -193 CURVE",
"340 -226 LINE",
"329 -204 OFFCURVE",
"313 -181 OFFCURVE",
"310 -132 CURVE",
"257 -131 LINE",
"249 -154 OFFCURVE",
"245 -179 OFFCURVE",
"243 -203 CURVE",
"259 -226 OFFCURVE",
"317 -244 OFFCURVE",
"363 -244 CURVE SMOOTH",
"454 -244 OFFCURVE",
"517 -172 OFFCURVE",
"516 -89 CURVE",
"516 -12 OFFCURVE"
);
}
);
width = 462;
}
);
unicode = 014B;
},
{
glyphname = o;
lastChange = "2018-02-16 12:49:35 +0000";
layers = (
{
layerId = "51BB9282-3B82-4DF1-A67A-294D3E37D73A";
paths = (
{
closed = 1;
nodes = (
"460 114 OFFCURVE",
"464 249 CURVE SMOOTH",
"469 409 OFFCURVE",
"387 473 OFFCURVE",
"279 474 CURVE SMOOTH",
"138 475 OFFCURVE",
"42 359 OFFCURVE",
"44 189 CURVE SMOOTH",
"45 69 OFFCURVE",
"101 -12 OFFCURVE",
"230 -14 CURVE SMOOTH",
"402 -17 OFFCURVE"
);
},
{
closed = 1;
nodes = (
"119 120 OFFCURVE",
"123 245 CURVE SMOOTH",
"127 389 OFFCURVE",
"209 425 OFFCURVE",
"245 428 CURVE SMOOTH",
"330 436 OFFCURVE",
"397 350 OFFCURVE",
"393 239 CURVE SMOOTH",
"390 129 OFFCURVE",
"340 42 OFFCURVE",
"265 34 CURVE SMOOTH",
"177 24 OFFCURVE"
);
}
);
width = 509;
}
);
unicode = 006F;
},
{
glyphname = ohorn;
layers = (
{
components = (
{
name = o;
}
);
layerId = "51BB9282-3B82-4DF1-A67A-294D3E37D73A";
paths = (
{
closed = 1;
nodes = (
"501 527 CURVE SMOOTH",
"501 566 OFFCURVE",
"484 585 OFFCURVE",
"464 596 CURVE",
"441 598 OFFCURVE",
"420 591 OFFCURVE",
"405 581 CURVE",
"420 564 OFFCURVE",
"431 548 OFFCURVE",
"431 518 CURVE SMOOTH",
"431 470 OFFCURVE",
"403 462 OFFCURVE",
"387 460 CURVE SMOOTH",
"376 458 OFFCURVE",
"349 465 OFFCURVE",
"339 465 CURVE",
"387 413 LINE",
"435 419 OFFCURVE",
"501 460 OFFCURVE"
);
}
);
width = 509;
}
);
unicode = 01A1;
},
{
glyphname = ohornhookabove;
layers = (
{
components = (
{
name = hookabovecomb;
transform = "{1, 0, 0, 1, 268, -103}";
},
{
name = o;
}
);
layerId = "51BB9282-3B82-4DF1-A67A-294D3E37D73A";
paths = (
{
closed = 1;
nodes = (
"482 460 OFFCURVE",
"481 504 CURVE SMOOTH",
"480 547 OFFCURVE",
"453 606 OFFCURVE",
"401 606 CURVE SMOOTH",
"368 606 OFFCURVE",
"353 587 OFFCURVE",
"357 550 CURVE",
"388 540 OFFCURVE",
"424 517 OFFCURVE",
"424 487 CURVE SMOOTH",
"424 467 OFFCURVE",
"400 459 OFFCURVE",
"378 459 CURVE SMOOTH",
"367 459 OFFCURVE",
"356 460 OFFCURVE",
"346 463 CURVE",
"386 423 LINE",
"392 417 OFFCURVE",
"393 415 OFFCURVE",
"397 415 CURVE SMOOTH",
"460 415 OFFCURVE"
);
}
);
width = 509;
}
);
unicode = 1EDF;
},
{
glyphname = p;
layers = (
{
layerId = "51BB9282-3B82-4DF1-A67A-294D3E37D73A";
paths = (
{
closed = 1;
nodes = (
"100 410 OFFCURVE",
"127 386 OFFCURVE",
"131 351 CURVE SMOOTH",
"132 338 OFFCURVE",
"133 316 OFFCURVE",
"133 289 CURVE SMOOTH",
"133 252 OFFCURVE",
"132 137 OFFCURVE",
"129 40 CURVE SMOOTH",
"127 -75 OFFCURVE",
"129 -118 OFFCURVE",
"69 -126 CURVE SMOOTH",
"62 -127 OFFCURVE",
"55 -128 OFFCURVE",
"46 -128 CURVE",
"52 -176 LINE",
"313 -176 LINE",
"306 -139 LINE",
"302 -139 OFFCURVE",
"298 -139 OFFCURVE",
"294 -138 CURVE",
"220 -132 OFFCURVE",
"216 -74 OFFCURVE",
"214 23 CURVE SMOOTH",
"213 63 OFFCURVE",
"213 102 OFFCURVE",
"213 136 CURVE SMOOTH",
"213 215 LINE SMOOTH",
"213 269 OFFCURVE",
"216 325 OFFCURVE",
"219 376 CURVE",
"201 370 LINE",
"206 390 OFFCURVE",
"219 468 OFFCURVE",
"219 468 CURVE SMOOTH",
"219 468 OFFCURVE",
"140 457 OFFCURVE",
"68 457 CURVE SMOOTH",
"55 457 OFFCURVE",
"42 457 OFFCURVE",
"31 458 CURVE",
"36 409 LINE"
);
},
{
closed = 1;
nodes = (
"225 -3 OFFCURVE",
"260 -3 CURVE SMOOTH",
"426 -3 OFFCURVE",
"548 120 OFFCURVE",
"548 283 CURVE SMOOTH",
"548 405 OFFCURVE",
"476 473 OFFCURVE",
"378 473 CURVE SMOOTH",
"291 473 OFFCURVE",
"217 412 OFFCURVE",
"193 355 CURVE",
"216 323 LINE",
"233 364 OFFCURVE",
"283 410 OFFCURVE",
"336 410 CURVE SMOOTH",
"417 410 OFFCURVE",
"445 337 OFFCURVE",
"445 258 CURVE SMOOTH",
"445 148 OFFCURVE",
"403 45 OFFCURVE",
"301 45 CURVE SMOOTH",
"246 45 OFFCURVE",
"206 77 OFFCURVE",
"206 77 CURVE",
"175 9 LINE",
"194 2 OFFCURVE"
);
}
);
width = 592;
}
);
unicode = 0070;
},
{
glyphname = thorn;
layers = (
{
layerId = "51BB9282-3B82-4DF1-A67A-294D3E37D73A";
paths = (
{
closed = 1;
nodes = (
"100 564 OFFCURVE",
"127 540 OFFCURVE",
"131 505 CURVE SMOOTH",
"132 492 OFFCURVE",
"133 470 OFFCURVE",
"133 443 CURVE SMOOTH",
"133 406 OFFCURVE",
"132 137 OFFCURVE",
"129 40 CURVE SMOOTH",
"127 -75 OFFCURVE",
"129 -118 OFFCURVE",
"69 -126 CURVE SMOOTH",
"62 -127 OFFCURVE",
"55 -128 OFFCURVE",
"46 -128 CURVE",
"52 -176 LINE",
"313 -176 LINE",
"306 -139 LINE",
"302 -139 OFFCURVE",
"298 -139 OFFCURVE",
"294 -138 CURVE",
"220 -132 OFFCURVE",
"216 -74 OFFCURVE",
"214 23 CURVE SMOOTH",
"213 103 OFFCURVE",
"213 332 OFFCURVE",
"213 369 CURVE SMOOTH",
"213 470 OFFCURVE",
"212 523 OFFCURVE",
"219 622 CURVE SMOOTH",
"219 622 OFFCURVE",
"140 611 OFFCURVE",
"68 611 CURVE SMOOTH",
"55 611 OFFCURVE",
"42 611 OFFCURVE",
"31 612 CURVE",
"36 563 LINE"
);
},
{
closed = 1;
nodes = (
"269 -9 OFFCURVE",
"329 4 CURVE SMOOTH",
"485 39 OFFCURVE",
"549 176 OFFCURVE",
"548 285 CURVE SMOOTH",
"547 406 OFFCURVE",
"475 473 OFFCURVE",
"378 473 CURVE SMOOTH",
"287 473 OFFCURVE",
"213 412 OFFCURVE",
"187 355 CURVE",
"211 323 LINE",
"228 365 OFFCURVE",
"281 411 OFFCURVE",
"339 410 CURVE SMOOTH",
"418 407 OFFCURVE",
"446 334 OFFCURVE",
"445 255 CURVE SMOOTH",
"444 139 OFFCURVE",
"398 62 OFFCURVE",
"330 48 CURVE SMOOTH",
"260 33 OFFCURVE",
"206 77 OFFCURVE",
"206 77 CURVE",
"175 9 LINE",
"206 -2 OFFCURVE"
);
}
);
width = 592;
}
);
unicode = 00FE;
},
{
glyphname = q;
layers = (
{
layerId = "51BB9282-3B82-4DF1-A67A-294D3E37D73A";
paths = (
{
closed = 1;
nodes = (
"347 36 OFFCURVE",
"384 123 CURVE",
"358 155 LINE",
"330 90 OFFCURVE",
"276 56 OFFCURVE",
"233 55 CURVE SMOOTH",
"185 55 OFFCURVE",
"127 92 OFFCURVE",
"128 197 CURVE SMOOTH",
"129 334 OFFCURVE",
"184 414 OFFCURVE",
"247 426 CURVE SMOOTH",
"337 442 OFFCURVE",
"387 349 OFFCURVE",
"387 349 CURVE",
"443 449 LINE",
"410 462 OFFCURVE",
"360 476 OFFCURVE",
"284 475 CURVE SMOOTH",
"113 474 OFFCURVE",
"39 341 OFFCURVE",
"35 201 CURVE SMOOTH",
"30 69 OFFCURVE",
"99 -6 OFFCURVE",
"210 -6 CURVE SMOOTH",
"281 -6 OFFCURVE"
);
},
{
closed = 1;
nodes = (
"514 -139 LINE",
"466 -139 OFFCURVE",
"443 -99 OFFCURVE",
"440 -50 CURVE SMOOTH",
"433 126 OFFCURVE",
"430 350 OFFCURVE",
"443 449 CURVE",
"288 464 LINE",
"298 430 LINE",
"358 439 OFFCURVE",
"349 404 OFFCURVE",
"353 341 CURVE SMOOTH",
"355 319 OFFCURVE",
"357 122 OFFCURVE",
"356 15 CURVE SMOOTH",
"353 -96 OFFCURVE",
"344 -123 OFFCURVE",
"264 -128 CURVE",
"270 -176 LINE",
"518 -176 LINE"
);
}
);
width = 525;
}
);
unicode = 0071;
},
{
glyphname = r;
layers = (
{
layerId = "51BB9282-3B82-4DF1-A67A-294D3E37D73A";
paths = (
{
closed = 1;
nodes = (
"112 410 OFFCURVE",
"132 391 OFFCURVE",
"138 349 CURVE SMOOTH",
"140 333 OFFCURVE",
"140 314 OFFCURVE",
"140 291 CURVE SMOOTH",
"140 240 OFFCURVE",
"140 162 OFFCURVE",
"133 94 CURVE SMOOTH",
"130 62 OFFCURVE",
"110 49 OFFCURVE",
"82 48 CURVE",
"73 47 OFFCURVE",
"65 47 OFFCURVE",
"56 48 CURVE",
"62 0 LINE",
"325 0 LINE",
"317 37 LINE",
"306 37 LINE",
"274 39 OFFCURVE",
"223 49 OFFCURVE",
"222 113 CURVE SMOOTH",
"220 202 OFFCURVE",
"221 282 OFFCURVE",
"225 368 CURVE",
"210 358 LINE",
"215 378 OFFCURVE",
"226 468 OFFCURVE",
"226 468 CURVE SMOOTH",
"226 468 OFFCURVE",
"126 459 OFFCURVE",
"61 458 CURVE SMOOTH",
"38 458 LINE",
"43 411 LINE"
);
},
{
closed = 1;
nodes = (
"255 357 OFFCURVE",
"296 370 CURVE SMOOTH",
"331 381 OFFCURVE",
"386 370 OFFCURVE",
"386 370 CURVE",
"322 381 LINE",
"352 370 OFFCURVE",
"364 350 OFFCURVE",
"369 332 CURVE",
"417 330 LINE",
"422 365 OFFCURVE",
"427 441 OFFCURVE",
"426 470 CURVE",
"331 470 OFFCURVE",
"197 383 OFFCURVE",
"172 293 CURVE",
"191 265 LINE",
"216 322 OFFCURVE"
);
}
);
width = 446;
}
);
leftMetricsKey = "=n";
unicode = 0072;
},
{
glyphname = s;
lastChange = "2018-02-16 12:49:12 +0000";
layers = (
{
layerId = "51BB9282-3B82-4DF1-A67A-294D3E37D73A";
paths = (
{
closed = 1;
nodes = (
"39 5 OFFCURVE",
"39 5 CURVE",
"39 14 OFFCURVE",
"38 25 OFFCURVE",
"38 38 CURVE SMOOTH",
"38 64 OFFCURVE",
"40 95 OFFCURVE",
"45 127 CURVE",
"99 120 LINE",
"101 84 OFFCURVE",
"101 50 OFFCURVE",
"119 23 CURVE",
"88 32 OFFCURVE",
"85 65 OFFCURVE",
"80 99 CURVE",
"89 80 OFFCURVE",
"114 28 OFFCURVE",
"187 28 CURVE SMOOTH",
"238 28 OFFCURVE",
"290 57 OFFCURVE",
"290 105 CURVE SMOOTH",
"290 213 OFFCURVE",
"50 206 OFFCURVE",
"50 344 CURVE SMOOTH",
"50 406 OFFCURVE",
"109 467 OFFCURVE",
"217 467 CURVE SMOOTH",
"289 467 OFFCURVE",
"333 447 OFFCURVE",
"333 447 CURVE",
"333 436 OFFCURVE",
"334 422 OFFCURVE",
"334 407 CURVE SMOOTH",
"334 381 OFFCURVE",
"333 353 OFFCURVE",
"330 336 CURVE",
"279 343 LINE",
"278 371 OFFCURVE",
"266 418 OFFCURVE",
"250 455 CURVE",
"293 356 LINE",
"282 368 OFFCURVE",
"266 427 OFFCURVE",
"201 427 CURVE SMOOTH",
"161 427 OFFCURVE",
"120 403 OFFCURVE",
"120 366 CURVE SMOOTH",
"120 262 OFFCURVE",
"357 271 OFFCURVE",
"357 125 CURVE SMOOTH",
"357 43 OFFCURVE",
"288 -19 OFFCURVE",
"179 -19 CURVE SMOOTH",
"93 -19 OFFCURVE"
);
}
);
width = 398;
}
);
unicode = 0073;
userData = {
com.typemytype.robofont.layerData = {
"Regular Nov 4 16, 19:41" = {
anchors = (
{
name = top;
x = 284;
y = 670;
},
{
name = bottom;
x = 256;
y = -10;
}
);
components = (
);
contours = (
{
points = (
{
smooth = 0;
x = 387;
y = -25;
},
{
smooth = 0;
x = 477;
y = 56;
},
{
segmentType = curve;
smooth = 1;
x = 477;
y = 162;
},
{
smooth = 0;
x = 477;
y = 352;
},
{
smooth = 0;
x = 182;
y = 340;
},
{
segmentType = curve;
smooth = 1;
x = 182;
y = 475;
},
{
smooth = 0;
x = 182;
y = 524;
},
{
smooth = 0;
x = 222;
y = 555;
},
{
segmentType = curve;
smooth = 1;
x = 274;
y = 555;
},
{
smooth = 0;
x = 358;
y = 554;
},
{
smooth = 0;
x = 379;
y = 478;
},
{
segmentType = curve;
smooth = 0;
x = 393;
y = 462;
},
{
segmentType = line;
smooth = 1;
x = 338;
y = 591;
},
{
smooth = 0;
x = 359;
y = 543;
},
{
smooth = 0;
x = 374;
y = 482;
},
{
segmentType = curve;
smooth = 0;
x = 375;
y = 445;
},
{
segmentType = line;
smooth = 0;
x = 455;
y = 437;
},
{
smooth = 0;
x = 458;
y = 459;
},
{
smooth = 0;
x = 460;
y = 495;
},
{
segmentType = curve;
smooth = 1;
x = 460;
y = 528;
},
{
smooth = 0;
x = 460;
y = 548;
},
{
smooth = 0;
x = 459;
y = 566;
},
{
segmentType = curve;
smooth = 0;
x = 458;
y = 580;
},
{
smooth = 0;
x = 458;
y = 580;
},
{
smooth = 0;
x = 388;
y = 606;
},
{
segmentType = curve;
smooth = 1;
x = 295;
y = 606;
},
{
smooth = 0;
x = 154;
y = 606;
},
{
smooth = 0;
x = 78;
y = 527;
},
{
segmentType = curve;
smooth = 1;
x = 78;
y = 434;
},
{
smooth = 0;
x = 78;
y = 267;
},
{
smooth = 0;
x = 366;
y = 264;
},
{
segmentType = curve;
smooth = 1;
x = 366;
y = 136;
},
{
smooth = 0;
x = 366;
y = 74;
},
{
smooth = 0;
x = 322;
y = 36;
},
{
segmentType = curve;
smooth = 1;
x = 256;
y = 36;
},
{
smooth = 0;
x = 168;
y = 36;
},
{
smooth = 0;
x = 147;
y = 94;
},
{
segmentType = curve;
smooth = 0;
x = 115;
y = 128;
},
{
smooth = 0;
x = 122;
y = 85;
},
{
smooth = 0;
x = 134;
y = 41;
},
{
segmentType = curve;
smooth = 0;
x = 175;
y = 30;
},
{
smooth = 0;
x = 151;
y = 65;
},
{
smooth = 0;
x = 142;
y = 109;
},
{
segmentType = curve;
smooth = 0;
x = 139;
y = 156;
},
{
segmentType = line;
smooth = 0;
x = 56;
y = 165;
},
{
smooth = 0;
x = 50;
y = 124;
},
{
smooth = 0;
x = 47;
y = 83;
},
{
segmentType = curve;
smooth = 1;
x = 47;
y = 49;
},
{
smooth = 0;
x = 47;
y = 33;
},
{
smooth = 0;
x = 48;
y = 18;
},
{
segmentType = curve;
smooth = 0;
x = 49;
y = 7;
},
{
smooth = 0;
x = 49;
y = 7;
},
{
smooth = 0;
x = 132;
y = -25;
},
{
segmentType = curve;
smooth = 1;
x = 245;
y = -25;
}
);
}
);
lib = {
};
name = s;
unicodes = (
);
width = 531;
};
};
};
},
{
color = 0;
glyphname = germandbls;
lastChange = "2018-02-16 12:36:03 +0000";
layers = (
{
layerId = "51BB9282-3B82-4DF1-A67A-294D3E37D73A";
paths = (
{
closed = 1;
nodes = (
"252 9 OFFCURVE",
"252 9 CURVE",
"249 19 OFFCURVE",
"247 42 OFFCURVE",
"247 62 CURVE SMOOTH",
"247 83 OFFCURVE",
"248 105 OFFCURVE",
"250 126 CURVE",
"300 125 LINE",
"304 91 OFFCURVE",
"310 47 OFFCURVE",
"349 22 CURVE",
"322 27 OFFCURVE",
"295 41 OFFCURVE",
"283 60 CURVE",
"300 47 OFFCURVE",
"326 33 OFFCURVE",
"362 33 CURVE SMOOTH",
"401 33 OFFCURVE",
"429 74 OFFCURVE",
"429 125 CURVE SMOOTH",
"429 180 OFFCURVE",
"400 258 OFFCURVE",
"292 293 CURVE",
"276 312 LINE",
"296 340 OFFCURVE",
"345 406 OFFCURVE",
"345 484 CURVE SMOOTH",
"345 544 OFFCURVE",
"305 589 OFFCURVE",
"248 589 CURVE SMOOTH",
"211 589 OFFCURVE",
"195 562 OFFCURVE",
"193 527 CURVE",
"182 413 OFFCURVE",
"191 201 OFFCURVE",
"193 132 CURVE SMOOTH",
"194 88 OFFCURVE",
"197 44 OFFCURVE",
"202 0 CURVE",
"32 0 LINE",
"24 47 LINE",
"34 47 LINE SMOOTH",
"84 47 OFFCURVE",
"98 68 OFFCURVE",
"103 105 CURVE SMOOTH",
"107 126 OFFCURVE",
"110 160 OFFCURVE",
"110 195 CURVE SMOOTH",
"110 268 OFFCURVE",
"109 342 OFFCURVE",
"106 404 CURVE",
"115 311 LINE",
"107 361 OFFCURVE",
"97 381 OFFCURVE",
"20 381 CURVE",
"15 429 LINE",
"49 429 OFFCURVE",
"94 433 OFFCURVE",
"144 441 CURVE",
"108 428 LINE",
"108 449 OFFCURVE",
"108 480 OFFCURVE",
"108 497 CURVE SMOOTH",
"108 596 OFFCURVE",
"192 634 OFFCURVE",
"277 634 CURVE SMOOTH",
"379 634 OFFCURVE",
"441 579 OFFCURVE",
"441 500 CURVE SMOOTH",
"441 427 OFFCURVE",
"368 360 OFFCURVE",
"337 329 CURVE",
"322 359 LINE",
"459 316 OFFCURVE",
"521 226 OFFCURVE",
"521 143 CURVE SMOOTH",
"521 63 OFFCURVE",
"468 -8 OFFCURVE",
"377 -8 CURVE",
"307 -11 OFFCURVE"
);
}
);
width = 572;
}
);
rightMetricsKey = "=B";
unicode = 00DF;
},
{
glyphname = t;
layers = (
{
layerId = "51BB9282-3B82-4DF1-A67A-294D3E37D73A";
paths = (
{
closed = 1;
nodes = (
"313 25 OFFCURVE",
"330 43 CURVE",
"310 69 LINE",
"291 57 OFFCURVE",
"271 51 OFFCURVE",
"253 51 CURVE SMOOTH",
"223 51 OFFCURVE",
"194 66 OFFCURVE",
"182 99 CURVE SMOOTH",
"173 125 OFFCURVE",
"177 189 OFFCURVE",
"177 283 CURVE SMOOTH",
"177 312 OFFCURVE",
"179 358 OFFCURVE",
"182 390 CURVE",
"311 400 LINE",
"302 450 LINE",
"184 450 LINE",
"186 506 OFFCURVE",
"189 562 OFFCURVE",
"193 610 CURVE",
"105 591 LINE",
"104 522 OFFCURVE",
"104 450 OFFCURVE",
"104 450 CURVE SMOOTH",
"12 450 LINE",
"19 398 LINE",
"65 398 OFFCURVE",
"99 383 OFFCURVE",
"99 383 CURVE",
"102 297 OFFCURVE",
"91 149 OFFCURVE",
"91 99 CURVE SMOOTH",
"91 28 OFFCURVE",
"122 -13 OFFCURVE",
"195 -13 CURVE SMOOTH",
"258 -13 OFFCURVE"
);
}
);
width = 354;
}
);
unicode = 0074;
},
{
glyphname = tbar;
layers = (
{
components = (
{
name = t;
}
);
layerId = "51BB9282-3B82-4DF1-A67A-294D3E37D73A";
paths = (
{
closed = 1;
nodes = (
"294 253 OFFCURVE",
"293 265 OFFCURVE",
"292 286 CURVE",
"206 283 OFFCURVE",
"93 280 OFFCURVE",
"10 286 CURVE",
"15 226 LINE",
"298 226 LINE"
);
}
);
width = 462;
}
);
unicode = 0167;
},
{
glyphname = u;
layers = (
{
layerId = "51BB9282-3B82-4DF1-A67A-294D3E37D73A";
paths = (
{
closed = 1;
nodes = (
"369 59 OFFCURVE",
"407 111 CURVE",
"387 139 LINE",
"387 139 OFFCURVE",
"335 65 OFFCURVE",
"257 65 CURVE SMOOTH",
"212 65 OFFCURVE",
"177 91 OFFCURVE",
"170 139 CURVE SMOOTH",
"167 162 OFFCURVE",
"166 193 OFFCURVE",
"166 227 CURVE SMOOTH",
"166 309 OFFCURVE",
"171 396 OFFCURVE",
"184 463 CURVE",
"130 456 OFFCURVE",
"68 450 OFFCURVE",
"-3 454 CURVE",
"2 404 LINE",
"25 406 OFFCURVE",
"92 403 OFFCURVE",
"89 348 CURVE SMOOTH",
"87 290 OFFCURVE",
"83 228 OFFCURVE",
"83 173 CURVE SMOOTH",
"83 139 OFFCURVE",
"85 107 OFFCURVE",
"88 90 CURVE SMOOTH",
"99 18 OFFCURVE",
"143 -11 OFFCURVE",
"202 -11 CURVE SMOOTH",
"284 -11 OFFCURVE"
);
},
{
closed = 1;
nodes = (
"547 43 LINE",
"461 45 OFFCURVE",
"467 89 OFFCURVE",
"467 169 CURVE SMOOTH",
"467 240 OFFCURVE",
"472 346 OFFCURVE",
"480 457 CURVE",
"392 447 LINE",
"384 370 OFFCURVE",
"383 312 OFFCURVE",
"383 246 CURVE SMOOTH",
"383 190 LINE SMOOTH",
"383 156 OFFCURVE",
"383 124 OFFCURVE",
"382 92 CURVE",
"382 92 OFFCURVE",
"390 109 OFFCURVE",
"396 109 CURVE SMOOTH",
"398 109 OFFCURVE",
"397 105 OFFCURVE",
"397 99 CURVE",
"392 79 OFFCURVE",
"387 0 OFFCURVE",
"387 0 CURVE",
"554 0 LINE"
);
},
{
closed = 1;
nodes = (
"481 464 LINE",
"437 457 OFFCURVE",
"346 451 OFFCURVE",
"290 455 CURVE",
"296 409 LINE",
"325 410 OFFCURVE",
"389 412 OFFCURVE",
"385 345 CURVE",
"474 355 LINE"
);
}
);
width = 561;
}
);
unicode = 0075;
},
{
glyphname = uhorn;
layers = (
{
components = (
{
name = u;
}
);
layerId = "51BB9282-3B82-4DF1-A67A-294D3E37D73A";
paths = (
{
closed = 1;
nodes = (
"547 526 CURVE SMOOTH",
"547 564 OFFCURVE",
"530 584 OFFCURVE",
"510 594 CURVE",
"487 597 OFFCURVE",
"466 589 OFFCURVE",
"450 579 CURVE",
"466 562 OFFCURVE",
"477 547 OFFCURVE",
"477 517 CURVE SMOOTH",
"477 469 OFFCURVE",
"448 460 OFFCURVE",
"432 458 CURVE SMOOTH",
"421 457 OFFCURVE",
"410 455 OFFCURVE",
"400 455 CURVE",
"432 412 LINE",
"480 417 OFFCURVE",
"547 458 OFFCURVE"
);
}
);
width = 561;
}
);
unicode = 01B0;
},
{
glyphname = v;
layers = (
{
layerId = "51BB9282-3B82-4DF1-A67A-294D3E37D73A";
paths = (
{
closed = 1;
nodes = (
"320 75 OFFCURVE",
"383 216 OFFCURVE",
"443 353 CURVE SMOOTH",
"457 385 OFFCURVE",
"462 415 OFFCURVE",
"516 417 CURVE",
"507 461 LINE",
"433 458 OFFCURVE",
"374 457 OFFCURVE",
"300 461 CURVE",
"306 413 LINE",
"359 415 OFFCURVE",
"398 407 OFFCURVE",
"383 363 CURVE SMOOTH",
"336 234 OFFCURVE",
"275 112 OFFCURVE",
"252 55 CURVE",
"252 55 OFFCURVE",
"250 105 OFFCURVE",
"246 122 CURVE",
"223 193 OFFCURVE",
"196 281 OFFCURVE",
"172 357 CURVE",
"160 407 OFFCURVE",
"179 415 OFFCURVE",
"238 420 CURVE",
"227 461 LINE",
"142 459 OFFCURVE",
"87 457 OFFCURVE",
"2 461 CURVE",
"13 412 LINE",
"49 413 OFFCURVE",
"67 408 OFFCURVE",
"82 358 CURVE SMOOTH",
"141 176 OFFCURVE",
"172 74 OFFCURVE",
"202 -12 CURVE",
"291 14 LINE"
);
}
);
width = 507;
}
);
unicode = 0076;
},
{
glyphname = w;
layers = (
{
layerId = "51BB9282-3B82-4DF1-A67A-294D3E37D73A";
paths = (
{
closed = 1;
nodes = (
"578 62 OFFCURVE",
"631 215 OFFCURVE",
"684 351 CURVE SMOOTH",
"699 391 OFFCURVE",
"705 413 OFFCURVE",
"752 414 CURVE",
"743 459 LINE",
"671 454 OFFCURVE",
"618 454 OFFCURVE",
"543 459 CURVE",
"550 410 LINE",
"602 413 OFFCURVE",
"639 399 OFFCURVE",
"624 353 CURVE SMOOTH",
"580 226 OFFCURVE",
"547 122 OFFCURVE",
"523 67 CURVE",
"523 67 OFFCURVE",
"520 132 OFFCURVE",
"512 159 CURVE SMOOTH",
"490 233 OFFCURVE",
"470 278 OFFCURVE",
"448 354 CURVE SMOOTH",
"434 403 OFFCURVE",
"448 415 OFFCURVE",
"495 417 CURVE",
"487 459 LINE",
"415 457 OFFCURVE",
"365 456 OFFCURVE",
"280 459 CURVE",
"293 410 LINE",
"330 411 OFFCURVE",
"353 398 OFFCURVE",
"360 371 CURVE SMOOTH",
"413 189 OFFCURVE",
"457 74 OFFCURVE",
"483 -12 CURVE",
"554 1 LINE"
);
},
{
closed = 1;
nodes = (
"306 62 OFFCURVE",
"360 215 OFFCURVE",
"420 351 CURVE",
"369 353 LINE",
"316 226 OFFCURVE",
"273 120 OFFCURVE",
"250 65 CURVE",
"250 65 OFFCURVE",
"249 132 OFFCURVE",
"240 159 CURVE SMOOTH",
"217 233 OFFCURVE",
"200 279 OFFCURVE",
"175 354 CURVE SMOOTH",
"155 413 OFFCURVE",
"199 417 OFFCURVE",
"242 417 CURVE",
"231 459 LINE",
"149 454 OFFCURVE",
"97 452 OFFCURVE",
"5 459 CURVE",
"11 410 LINE",
"47 410 OFFCURVE",
"69 405 OFFCURVE",
"85 356 CURVE SMOOTH",
"146 172 OFFCURVE",
"179 74 OFFCURVE",
"209 -12 CURVE",
"279 1 LINE"
);
}
);
width = 751;
}
);
unicode = 0077;
},
{
glyphname = x;
layers = (
{
layerId = "51BB9282-3B82-4DF1-A67A-294D3E37D73A";
paths = (
{
closed = 1;
nodes = (
"467 45 LINE",
"442 45 OFFCURVE",
"422 55 OFFCURVE",
"393 90 CURVE SMOOTH",
"349 143 OFFCURVE",
"305 213 OFFCURVE",
"279 248 CURVE SMOOTH",
"268 262 LINE",
"244 296 OFFCURVE",
"216 341 OFFCURVE",
"200 368 CURVE SMOOTH",
"182 400 OFFCURVE",
"192 417 OFFCURVE",
"236 417 CURVE",
"228 460 LINE",
"169 456 OFFCURVE",
"100 456 OFFCURVE",
"25 460 CURVE",
"29 416 LINE",
"59 417 OFFCURVE",
"83 409 OFFCURVE",
"112 363 CURVE SMOOTH",
"145 310 OFFCURVE",
"181 259 OFFCURVE",
"205 219 CURVE",
"211 219 LINE",
"243 182 OFFCURVE",
"275 126 OFFCURVE",
"302 89 CURVE SMOOTH",
"330 51 OFFCURVE",
"302 40 OFFCURVE",
"259 41 CURVE",
"266 -2 LINE",
"479 -2 LINE"
);
},
{
closed = 1;
nodes = (
"206 39 LINE",
"152 36 OFFCURVE",
"158 61 OFFCURVE",
"176 88 CURVE SMOOTH",
"201 127 OFFCURVE",
"236 182 OFFCURVE",
"266 216 CURVE",
"274 222 LINE",
"297 253 OFFCURVE",
"341 312 OFFCURVE",
"377 358 CURVE SMOOTH",
"403 393 OFFCURVE",
"424 417 OFFCURVE",
"466 419 CURVE",
"460 460 LINE",
"407 457 OFFCURVE",
"336 457 OFFCURVE",
"276 461 CURVE",
"285 417 LINE",
"332 416 OFFCURVE",
"333 394 OFFCURVE",
"323 375 CURVE SMOOTH",
"301 338 OFFCURVE",
"263 291 OFFCURVE",
"231 249 CURVE",
"220 243 LINE",
"188 196 OFFCURVE",
"133 115 OFFCURVE",
"112 88 CURVE SMOOTH",
"92 64 OFFCURVE",
"65 41 OFFCURVE",
"24 42 CURVE",
"31 -2 LINE",
"216 -2 LINE"
);
}
);
width = 495;
}
);
unicode = 0078;
},
{
glyphname = y;
layers = (
{
layerId = "51BB9282-3B82-4DF1-A67A-294D3E37D73A";
paths = (
{
closed = 1;
nodes = (
"270 10 OFFCURVE",
"293 12 CURVE",
"321 74 OFFCURVE",
"379 215 OFFCURVE",
"437 351 CURVE SMOOTH",
"454 390 OFFCURVE",
"459 413 OFFCURVE",
"513 414 CURVE",
"504 459 LINE",
"430 456 OFFCURVE",
"371 454 OFFCURVE",
"296 459 CURVE",
"303 410 LINE",
"356 413 OFFCURVE",
"387 399 OFFCURVE",
"373 353 CURVE SMOOTH",
"347 272 OFFCURVE",
"281 109 OFFCURVE",
"255 54 CURVE",
"255 54 OFFCURVE",
"239 129 OFFCURVE",
"231 156 CURVE SMOOTH",
"207 229 OFFCURVE",
"188 280 OFFCURVE",
"166 354 CURVE SMOOTH",
"151 403 OFFCURVE",
"191 413 OFFCURVE",
"249 417 CURVE",
"239 459 LINE",
"151 457 OFFCURVE",
"85 455 OFFCURVE",
"-2 459 CURVE",
"4 414 LINE",
"40 415 OFFCURVE",
"64 405 OFFCURVE",
"80 356 CURVE SMOOTH",
"140 172 OFFCURVE",
"172 80 OFFCURVE",
"202 -6 CURVE",
"228 -3 OFFCURVE"
);
},
{
closed = 1;
nodes = (
"189 -185 OFFCURVE",
"230 -122 CURVE SMOOTH",
"256 -82 OFFCURVE",
"284 -7 OFFCURVE",
"304 39 CURVE",
"252 43 LINE",
"218 -30 OFFCURVE",
"182 -129 OFFCURVE",
"33 -110 CURVE",
"25 -126 OFFCURVE",
"19 -178 OFFCURVE",
"49 -203 CURVE",
"114 -206 OFFCURVE"
);
}
);
width = 512;
}
);
unicode = 0079;
},
{
glyphname = z;
layers = (
{
layerId = "51BB9282-3B82-4DF1-A67A-294D3E37D73A";
paths = (
{
closed = 1;
nodes = (
"413 42 OFFCURVE",
"414 91 OFFCURVE",
"413 139 CURVE",
"411 139 OFFCURVE",
"375 135 OFFCURVE",
"367 135 CURVE",
"367 96 OFFCURVE",
"361 62 OFFCURVE",
"350 60 CURVE SMOOTH",
"293 51 OFFCURVE",
"237 52 OFFCURVE",
"230 52 CURVE SMOOTH",
"146 52 OFFCURVE",
"156 68 OFFCURVE",
"186 116 CURVE SMOOTH",
"201 139 OFFCURVE",
"373 378 OFFCURVE",
"416 420 CURVE",
"411 460 LINE",
"355 457 OFFCURVE",
"172 453 OFFCURVE",
"54 460 CURVE",
"50 417 OFFCURVE",
"49 363 OFFCURVE",
"52 322 CURVE",
"99 326 LINE",
"98 342 OFFCURVE",
"105 387 OFFCURVE",
"114 401 CURVE",
"151 407 OFFCURVE",
"252 411 OFFCURVE",
"295 404 CURVE",
"263 349 OFFCURVE",
"111 129 OFFCURVE",
"28 45 CURVE",
"33 0 LINE",
"403 0 LINE"
);
}
);
width = 438;
}
);
unicode = 007A;
},
{
glyphname = f_f;
layers = (
{
layerId = "51BB9282-3B82-4DF1-A67A-294D3E37D73A";
paths = (
{
closed = 1;
nodes = (
"567 42 LINE",
"517 40 OFFCURVE",
"488 69 OFFCURVE",
"484 140 CURVE SMOOTH",
"477 238 OFFCURVE",
"480 381 OFFCURVE",
"482 486 CURVE SMOOTH",
"484 586 OFFCURVE",
"504 618 OFFCURVE",
"539 622 CURVE SMOOTH",
"596 628 OFFCURVE",
"640 571 OFFCURVE",
"671 522 CURVE",
"688 553 OFFCURVE",
"705 609 OFFCURVE",
"705 651 CURVE",
"705 651 OFFCURVE",
"656 668 OFFCURVE",
"606 668 CURVE SMOOTH",
"515 668 OFFCURVE",
"403 624 OFFCURVE",
"403 449 CURVE SMOOTH",
"403 447 OFFCURVE",
"402 437 OFFCURVE",
"402 436 CURVE",
"403 424 OFFCURVE",
"400 412 OFFCURVE",
"400 400 CURVE SMOOTH",
"400 314 OFFCURVE",
"404 242 OFFCURVE",
"404 169 CURVE SMOOTH",
"404 87 OFFCURVE",
"409 42 OFFCURVE",
"319 47 CURVE",
"324 0 LINE",
"575 0 LINE"
);
},
{
closed = 1;
nodes = (
"268 42 LINE",
"217 40 OFFCURVE",
"189 69 OFFCURVE",
"184 140 CURVE SMOOTH",
"178 249 OFFCURVE",
"181 400 OFFCURVE",
"182 517 CURVE SMOOTH",
"184 617 OFFCURVE",
"205 649 OFFCURVE",
"239 653 CURVE SMOOTH",
"296 659 OFFCURVE",
"340 601 OFFCURVE",
"372 553 CURVE",
"388 584 OFFCURVE",
"405 640 OFFCURVE",
"405 682 CURVE",
"405 682 OFFCURVE",
"357 699 OFFCURVE",
"306 699 CURVE SMOOTH",
"216 700 OFFCURVE",
"105 655 OFFCURVE",
"103 480 CURVE SMOOTH",
"103 464 OFFCURVE",
"102 450 OFFCURVE",
"102 436 CURVE",
"103 424 OFFCURVE",
"101 412 OFFCURVE",
"101 400 CURVE SMOOTH",
"103 314 OFFCURVE",
"105 242 OFFCURVE",
"105 169 CURVE SMOOTH",
"105 87 OFFCURVE",
"109 42 OFFCURVE",
"19 47 CURVE",
"25 0 LINE",
"276 0 LINE"
);
},
{
closed = 1;
nodes = (
"290 451 OFFCURVE",
"286 451 CURVE SMOOTH",
"186 451 OFFCURVE",
"126 449 OFFCURVE",
"23 453 CURVE",
"31 400 LINE",
"68 400 OFFCURVE",
"125 390 OFFCURVE",
"126 339 CURVE",
"158 388 LINE",
"290 390 LINE",
"310 391 OFFCURVE",
"401 385 OFFCURVE",
"425 383 CURVE",
"457 388 LINE",
"605 402 LINE",
"595 453 LINE",
"501 449 OFFCURVE"
);
}
);
width = 676;
}
);
leftMetricsKey = f;
rightMetricsKey = f;
},
{
glyphname = f_f_i;
layers = (
{
components = (
{
name = f_f;
}
);
layerId = "51BB9282-3B82-4DF1-A67A-294D3E37D73A";
paths = (
{
closed = 1;
nodes = (
"872 39 LINE",
"868 39 LINE SMOOTH",
"824 39 OFFCURVE",
"802 56 OFFCURVE",
"801 132 CURVE SMOOTH",
"798 210 OFFCURVE",
"805 350 OFFCURVE",
"820 476 CURVE",
"820 476 OFFCURVE",
"655 450 OFFCURVE",
"591 452 CURVE",
"596 402 LINE",
"656 402 OFFCURVE",
"718 400 OFFCURVE",
"721 366 CURVE",
"723 313 OFFCURVE",
"724 256 OFFCURVE",
"724 195 CURVE SMOOTH",
"724 160 OFFCURVE",
"721 126 OFFCURVE",
"717 105 CURVE",
"712 68 OFFCURVE",
"688 47 OFFCURVE",
"638 47 CURVE SMOOTH",
"628 47 LINE",
"636 0 LINE",
"880 0 LINE"
);
}
);
width = 908;
}
);
leftMetricsKey = f;
rightMetricsKey = i;
},
{
glyphname = f_f_l;
layers = (
{
layerId = "51BB9282-3B82-4DF1-A67A-294D3E37D73A";
paths = (
{
closed = 1;
nodes = (
"567 42 LINE",
"517 40 OFFCURVE",
"488 69 OFFCURVE",
"484 140 CURVE SMOOTH",
"477 238 OFFCURVE",
"480 381 OFFCURVE",
"482 486 CURVE SMOOTH",
"484 586 OFFCURVE",
"527 618 OFFCURVE",
"585 622 CURVE SMOOTH",
"642 626 OFFCURVE",
"698 578 OFFCURVE",
"729 530 CURVE",
"745 561 OFFCURVE",
"820 586 OFFCURVE",
"820 628 CURVE",
"820 628 OFFCURVE",
"679 668 OFFCURVE",
"606 668 CURVE SMOOTH",
"515 668 OFFCURVE",
"403 624 OFFCURVE",
"403 449 CURVE SMOOTH",
"403 447 OFFCURVE",
"402 437 OFFCURVE",
"402 436 CURVE",
"403 424 OFFCURVE",
"400 412 OFFCURVE",
"400 400 CURVE SMOOTH",
"400 314 OFFCURVE",
"404 242 OFFCURVE",
"404 169 CURVE SMOOTH",
"404 87 OFFCURVE",
"409 42 OFFCURVE",
"319 47 CURVE",
"324 0 LINE",
"575 0 LINE"
);
},
{
closed = 1;
nodes = (
"268 42 LINE",
"217 40 OFFCURVE",
"189 69 OFFCURVE",
"184 140 CURVE SMOOTH",
"178 249 OFFCURVE",
"181 400 OFFCURVE",
"182 517 CURVE SMOOTH",
"184 617 OFFCURVE",
"205 649 OFFCURVE",
"239 653 CURVE SMOOTH",
"296 659 OFFCURVE",
"340 601 OFFCURVE",
"372 553 CURVE",
"388 584 OFFCURVE",
"405 640 OFFCURVE",
"405 682 CURVE",
"405 682 OFFCURVE",
"357 699 OFFCURVE",
"306 699 CURVE SMOOTH",
"216 700 OFFCURVE",
"105 655 OFFCURVE",
"103 480 CURVE SMOOTH",
"103 464 OFFCURVE",
"102 450 OFFCURVE",
"102 436 CURVE",
"103 424 OFFCURVE",
"101 412 OFFCURVE",
"101 400 CURVE SMOOTH",
"103 314 OFFCURVE",
"105 242 OFFCURVE",
"105 169 CURVE SMOOTH",
"105 87 OFFCURVE",
"109 42 OFFCURVE",
"19 47 CURVE",
"25 0 LINE",
"276 0 LINE"
);
},
{
closed = 1;
nodes = (
"290 451 OFFCURVE",
"286 451 CURVE SMOOTH",
"186 451 OFFCURVE",
"126 449 OFFCURVE",
"23 453 CURVE",
"31 400 LINE",
"68 400 OFFCURVE",
"125 390 OFFCURVE",
"126 339 CURVE",
"158 388 LINE",
"290 390 LINE",
"310 391 OFFCURVE",
"401 385 OFFCURVE",
"425 383 CURVE",
"457 388 LINE",
"605 402 LINE",
"595 453 LINE",
"501 449 OFFCURVE"
);
},
{
closed = 1;
nodes = (
"880 39 LINE",
"875 39 LINE SMOOTH",
"832 39 OFFCURVE",
"809 56 OFFCURVE",
"809 132 CURVE SMOOTH",
"806 250 OFFCURVE",
"805 505 OFFCURVE",
"820 631 CURVE",
"820 631 OFFCURVE",
"701 637 OFFCURVE",
"637 638 CURVE",
"642 628 LINE",
"702 628 OFFCURVE",
"725 588 OFFCURVE",
"729 554 CURVE",
"731 498 OFFCURVE",
"732 435 OFFCURVE",
"732 372 CURVE SMOOTH",
"732 270 OFFCURVE",
"729 169 OFFCURVE",
"725 105 CURVE",
"720 68 OFFCURVE",
"695 47 OFFCURVE",
"645 47 CURVE SMOOTH",
"636 47 LINE",
"644 0 LINE",
"888 0 LINE"
);
}
);
width = 914;
}
);
leftMetricsKey = f;
rightMetricsKey = "=l";
},
{
glyphname = fi;
layers = (
{
layerId = "51BB9282-3B82-4DF1-A67A-294D3E37D73A";
paths = (
{
closed = 1;
nodes = (
"268 42 LINE",
"217 40 OFFCURVE",
"189 69 OFFCURVE",
"184 140 CURVE SMOOTH",
"178 249 OFFCURVE",
"181 400 OFFCURVE",
"182 517 CURVE SMOOTH",
"184 617 OFFCURVE",
"205 649 OFFCURVE",
"239 653 CURVE SMOOTH",
"296 659 OFFCURVE",
"340 601 OFFCURVE",
"372 553 CURVE",
"388 584 OFFCURVE",
"405 640 OFFCURVE",
"405 682 CURVE",
"405 682 OFFCURVE",
"357 699 OFFCURVE",
"306 699 CURVE SMOOTH",
"216 700 OFFCURVE",
"105 655 OFFCURVE",
"103 480 CURVE SMOOTH",
"103 464 OFFCURVE",
"102 450 OFFCURVE",
"102 436 CURVE",
"103 424 OFFCURVE",
"101 412 OFFCURVE",
"101 400 CURVE SMOOTH",
"103 314 OFFCURVE",
"105 242 OFFCURVE",
"105 169 CURVE SMOOTH",
"105 87 OFFCURVE",
"109 42 OFFCURVE",
"19 47 CURVE",
"25 0 LINE",
"276 0 LINE"
);
},
{
closed = 1;
nodes = (
"306 402 LINE",
"296 453 LINE",
"195 449 OFFCURVE",
"132 449 OFFCURVE",
"23 453 CURVE",
"31 400 LINE",
"68 400 OFFCURVE",
"125 390 OFFCURVE",
"126 339 CURVE",
"158 388 LINE"
);
},
{
closed = 1;
nodes = (
"611 39 LINE",
"587 39 OFFCURVE",
"539 45 OFFCURVE",
"539 118 CURVE SMOOTH",
"539 167 OFFCURVE",
"538 308 OFFCURVE",
"558 470 CURVE",
"558 470 OFFCURVE",
"431 452 OFFCURVE",
"367 454 CURVE",
"373 405 LINE",
"433 405 OFFCURVE",
"459 403 OFFCURVE",
"460 363 CURVE SMOOTH",
"464 238 OFFCURVE",
"462 166 OFFCURVE",
"456 111 CURVE SMOOTH",
"451 68 OFFCURVE",
"424 44 OFFCURVE",
"367 47 CURVE",
"374 0 LINE",
"618 0 LINE"
);
}
);
width = 692;
}
);
unicode = FB01;
},
{
glyphname = A.sc;
layers = (
{
layerId = "51BB9282-3B82-4DF1-A67A-294D3E37D73A";
paths = (
{
closed = 1;
nodes = (
"226 33 LINE",
"196 32 OFFCURVE",
"150 32 OFFCURVE",
"164 95 CURVE SMOOTH",
"173 137 OFFCURVE",
"234 313 OFFCURVE",
"273 450 CURVE",
"278 423 OFFCURVE",
"288 387 OFFCURVE",
"293 361 CURVE",
"322 266 OFFCURVE",
"370 163 OFFCURVE",
"392 81 CURVE SMOOTH",
"403 42 OFFCURVE",
"376 35 OFFCURVE",
"330 35 CURVE",
"336 0 LINE",
"561 0 LINE",
"555 36 LINE",
"511 35 OFFCURVE",
"497 68 OFFCURVE",
"486 98 CURVE SMOOTH",
"420 273 OFFCURVE",
"375 393 OFFCURVE",
"335 530 CURVE",
"310 521 OFFCURVE",
"259 514 OFFCURVE",
"233 510 CURVE",
"197 389 OFFCURVE",
"152 246 OFFCURVE",
"92 89 CURVE SMOOTH",
"79 56 OFFCURVE",
"62 41 OFFCURVE",
"16 40 CURVE",
"23 0 LINE",
"233 0 LINE"
);
},
{
closed = 1;
nodes = (
"389 223 LINE",
"177 223 LINE",
"177 171 LINE",
"389 171 LINE"
);
}
);
width = 579;
}
);
},
{
glyphname = B.sc;
layers = (
{
layerId = "51BB9282-3B82-4DF1-A67A-294D3E37D73A";
paths = (
{
closed = 1;
nodes = (
"374 0 OFFCURVE",
"482 32 OFFCURVE",
"484 144 CURVE SMOOTH",
"484 212 OFFCURVE",
"434 276 OFFCURVE",
"356 286 CURVE",
"335 270 LINE",
"403 273 OFFCURVE",
"448 340 OFFCURVE",
"447 402 CURVE SMOOTH",
"447 483 OFFCURVE",
"383 526 OFFCURVE",
"295 526 CURVE SMOOTH",
"196 526 OFFCURVE",
"161 514 OFFCURVE",
"38 523 CURVE",
"45 481 LINE",
"105 486 OFFCURVE",
"116 449 OFFCURVE",
"118 411 CURVE SMOOTH",
"122 306 OFFCURVE",
"121 224 OFFCURVE",
"115 83 CURVE SMOOTH",
"114 51 OFFCURVE",
"93 34 OFFCURVE",
"42 40 CURVE",
"49 0 LINE",
"269 0 LINE SMOOTH"
);
},
{
closed = 1;
nodes = (
"209 42 OFFCURVE",
"206 81 CURVE",
"199 129 OFFCURVE",
"199 180 OFFCURVE",
"199 246 CURVE",
"223 250 OFFCURVE",
"260 253 OFFCURVE",
"288 253 CURVE SMOOTH",
"357 251 OFFCURVE",
"396 200 OFFCURVE",
"396 143 CURVE SMOOTH",
"396 78 OFFCURVE",
"354 43 OFFCURVE",
"280 42 CURVE SMOOTH",
"246 42 OFFCURVE"
);
},
{
closed = 1;
nodes = (
"199 427 OFFCURVE",
"205 478 CURVE",
"219 484 OFFCURVE",
"243 486 OFFCURVE",
"273 485 CURVE SMOOTH",
"332 484 OFFCURVE",
"361 444 OFFCURVE",
"360 384 CURVE SMOOTH",
"358 347 OFFCURVE",
"329 279 OFFCURVE",
"201 295 CURVE",
"202 359 OFFCURVE"
);
}
);
width = 509;
}
);
},
{
glyphname = C.sc;
layers = (
{
layerId = "51BB9282-3B82-4DF1-A67A-294D3E37D73A";
paths = (
{
closed = 1;
nodes = (
"411 22 OFFCURVE",
"458 79 CURVE",
"432 108 LINE",
"398 77 OFFCURVE",
"354 52 OFFCURVE",
"290 52 CURVE SMOOTH",
"196 50 OFFCURVE",
"121 115 OFFCURVE",
"119 231 CURVE SMOOTH",
"116 359 OFFCURVE",
"172 466 OFFCURVE",
"275 466 CURVE SMOOTH",
"350 466 OFFCURVE",
"377 425 OFFCURVE",
"387 423 CURVE",
"422 484 OFFCURVE",
"310 505 OFFCURVE",
"301 491 CURVE",
"331 487 OFFCURVE",
"378 420 OFFCURVE",
"399 363 CURVE",
"445 361 LINE",
"452 388 OFFCURVE",
"454 474 OFFCURVE",
"452 507 CURVE",
"452 507 OFFCURVE",
"400 529 OFFCURVE",
"313 522 CURVE SMOOTH",
"97 504 OFFCURVE",
"15 347 OFFCURVE",
"25 190 CURVE SMOOTH",
"34 55 OFFCURVE",
"146 -12 OFFCURVE",
"261 -12 CURVE SMOOTH",
"354 -12 OFFCURVE"
);
}
);
width = 497;
}
);
},
{
glyphname = D.sc;
layers = (
{
layerId = "51BB9282-3B82-4DF1-A67A-294D3E37D73A";
paths = (
{
closed = 1;
nodes = (
"189 -1 OFFCURVE",
"239 0 CURVE SMOOTH",
"416 3 OFFCURVE",
"511 91 OFFCURVE",
"514 302 CURVE SMOOTH",
"515 464 OFFCURVE",
"422 526 OFFCURVE",
"316 526 CURVE SMOOTH",
"253 526 OFFCURVE",
"155 514 OFFCURVE",
"19 522 CURVE",
"26 481 LINE",
"86 486 OFFCURVE",
"97 449 OFFCURVE",
"99 411 CURVE SMOOTH",
"105 306 OFFCURVE",
"102 229 OFFCURVE",
"96 88 CURVE SMOOTH",
"95 55 OFFCURVE",
"69 38 OFFCURVE",
"23 40 CURVE",
"30 0 LINE",
"84 0 OFFCURVE"
);
},
{
closed = 1;
nodes = (
"199 52 OFFCURVE",
"195 93 CURVE SMOOTH",
"186 221 OFFCURVE",
"184 316 OFFCURVE",
"195 470 CURVE",
"213 477 OFFCURVE",
"233 484 OFFCURVE",
"268 483 CURVE SMOOTH",
"364 480 OFFCURVE",
"431 396 OFFCURVE",
"426 243 CURVE SMOOTH",
"422 129 OFFCURVE",
"374 51 OFFCURVE",
"264 49 CURVE SMOOTH",
"229 49 OFFCURVE"
);
}
);
width = 539;
}
);
},
{
glyphname = E.sc;
layers = (
{
layerId = "51BB9282-3B82-4DF1-A67A-294D3E37D73A";
paths = (
{
closed = 1;
nodes = (
"423 56 OFFCURVE",
"422 136 OFFCURVE",
"422 139 CURVE",
"367 133 LINE",
"357 82 OFFCURVE",
"342 51 OFFCURVE",
"314 19 CURVE",
"365 59 LINE",
"332 51 OFFCURVE",
"266 42 OFFCURVE",
"206 48 CURVE SMOOTH",
"182 51 OFFCURVE",
"179 71 OFFCURVE",
"179 89 CURVE SMOOTH",
"176 169 OFFCURVE",
"172 306 OFFCURVE",
"186 438 CURVE SMOOTH",
"187 458 OFFCURVE",
"196 477 OFFCURVE",
"228 477 CURVE SMOOTH",
"293 477 OFFCURVE",
"323 476 OFFCURVE",
"375 470 CURVE",
"313 504 LINE",
"341 479 OFFCURVE",
"358 429 OFFCURVE",
"362 390 CURVE",
"417 385 LINE",
"417 385 OFFCURVE",
"423 433 OFFCURVE",
"423 471 CURVE SMOOTH",
"423 487 OFFCURVE",
"421 524 OFFCURVE",
"421 524 CURVE",
"357 521 OFFCURVE",
"296 521 OFFCURVE",
"239 521 CURVE SMOOTH",
"185 521 OFFCURVE",
"83 520 OFFCURVE",
"33 524 CURVE",
"37 484 LINE",
"87 487 OFFCURVE",
"92 466 OFFCURVE",
"94 434 CURVE SMOOTH",
"101 320 OFFCURVE",
"95 194 OFFCURVE",
"88 101 CURVE SMOOTH",
"85 69 OFFCURVE",
"80 43 OFFCURVE",
"30 38 CURVE",
"35 0 LINE",
"419 0 LINE"
);
},
{
closed = 1;
nodes = (
"273 247 OFFCURVE",
"354 243 CURVE",
"354 310 LINE",
"260 298 LINE",
"133 298 LINE",
"133 240 LINE",
"215 242 OFFCURVE"
);
}
);
width = 472;
}
);
},
{
glyphname = F.sc;
layers = (
{
layerId = "51BB9282-3B82-4DF1-A67A-294D3E37D73A";
paths = (
{
closed = 1;
nodes = (
"262 32 LINE",
"210 32 OFFCURVE",
"199 66 OFFCURVE",
"197 95 CURVE SMOOTH",
"194 132 OFFCURVE",
"193 290 OFFCURVE",
"203 434 CURVE SMOOTH",
"205 461 OFFCURVE",
"215 477 OFFCURVE",
"253 477 CURVE SMOOTH",
"409 472 LINE",
"353 504 LINE",
"381 479 OFFCURVE",
"398 429 OFFCURVE",
"403 390 CURVE",
"462 385 LINE",
"462 385 OFFCURVE",
"468 433 OFFCURVE",
"468 471 CURVE SMOOTH",
"468 487 OFFCURVE",
"466 524 OFFCURVE",
"466 524 CURVE",
"383 521 OFFCURVE",
"298 520 OFFCURVE",
"242 520 CURVE SMOOTH",
"186 520 OFFCURVE",
"99 520 OFFCURVE",
"48 524 CURVE",
"52 484 LINE",
"102 487 OFFCURVE",
"111 466 OFFCURVE",
"112 434 CURVE SMOOTH",
"119 316 OFFCURVE",
"116 177 OFFCURVE",
"109 89 CURVE",
"103 47 OFFCURVE",
"91 0 OFFCURVE",
"91 0 CURVE",
"251 1 LINE"
);
},
{
closed = 1;
nodes = (
"273 33 LINE",
"263 33 OFFCURVE",
"196 33 OFFCURVE",
"197 95 CURVE",
"109 90 LINE",
"104 59 OFFCURVE",
"90 38 OFFCURVE",
"35 40 CURVE",
"42 0 LINE",
"280 0 LINE"
);
},
{
closed = 1;
nodes = (
"300 290 LINE",
"142 290 LINE",
"142 242 LINE",
"224 243 OFFCURVE",
"312 242 OFFCURVE",
"393 237 CURVE",
"393 302 LINE"
);
}
);
width = 496;
}
);
},
{
glyphname = G.sc;
layers = (
{
layerId = "51BB9282-3B82-4DF1-A67A-294D3E37D73A";
paths = (
{
closed = 1;
nodes = (
"435 2 OFFCURVE",
"474 47 CURVE",
"430 82 LINE",
"401 54 OFFCURVE",
"375 39 OFFCURVE",
"306 40 CURVE SMOOTH",
"180 42 OFFCURVE",
"118 133 OFFCURVE",
"116 259 CURVE SMOOTH",
"114 399 OFFCURVE",
"206 481 OFFCURVE",
"309 483 CURVE SMOOTH",
"399 485 OFFCURVE",
"422 442 OFFCURVE",
"435 440 CURVE",
"470 502 OFFCURVE",
"350 514 OFFCURVE",
"341 501 CURVE",
"371 496 OFFCURVE",
"413 448 OFFCURVE",
"434 390 CURVE",
"477 389 LINE",
"479 416 OFFCURVE",
"474 481 OFFCURVE",
"473 515 CURVE",
"473 515 OFFCURVE",
"415 531 OFFCURVE",
"337 531 CURVE SMOOTH",
"122 531 OFFCURVE",
"18 400 OFFCURVE",
"20 236 CURVE SMOOTH",
"22 90 OFFCURVE",
"115 -19 OFFCURVE",
"298 -19 CURVE SMOOTH",
"365 -19 OFFCURVE"
);
},
{
closed = 1;
nodes = (
"476 76 OFFCURVE",
"476 125 OFFCURVE",
"476 169 CURVE SMOOTH",
"476 220 OFFCURVE",
"521 215 OFFCURVE",
"531 215 CURVE",
"525 254 LINE",
"454 250 OFFCURVE",
"406 249 OFFCURVE",
"332 254 CURVE",
"336 212 LINE",
"381 214 OFFCURVE",
"400 197 OFFCURVE",
"402 171 CURVE",
"402 122 OFFCURVE",
"400 65 OFFCURVE",
"384 22 CURVE",
"474 47 LINE"
);
}
);
width = 561;
}
);
},
{
glyphname = H.sc;
layers = (
{
layerId = "51BB9282-3B82-4DF1-A67A-294D3E37D73A";
paths = (
{
closed = 1;
nodes = (
"534 32 LINE",
"480 32 OFFCURVE",
"493 66 OFFCURVE",
"491 95 CURVE SMOOTH",
"490 136 OFFCURVE",
"490 388 OFFCURVE",
"506 519 CURVE",
"403 503 LINE",
"410 382 OFFCURVE",
"413 195 OFFCURVE",
"403 89 CURVE SMOOTH",
"400 47 OFFCURVE",
"386 0 OFFCURVE",
"386 0 CURVE",
"523 1 LINE"
);
},
{
closed = 1;
nodes = (
"237 33 LINE",
"225 33 OFFCURVE",
"176 33 OFFCURVE",
"176 95 CURVE",
"92 89 LINE",
"88 59 OFFCURVE",
"72 37 OFFCURVE",
"29 40 CURVE",
"35 0 LINE",
"243 0 LINE"
);
},
{
closed = 1;
nodes = (
"219 32 LINE",
"166 32 OFFCURVE",
"179 66 OFFCURVE",
"177 95 CURVE SMOOTH",
"175 136 OFFCURVE",
"177 388 OFFCURVE",
"193 519 CURVE",
"93 503 LINE",
"99 382 OFFCURVE",
"101 195 OFFCURVE",
"92 89 CURVE SMOOTH",
"88 47 OFFCURVE",
"74 0 OFFCURVE",
"74 0 CURVE",
"209 1 LINE"
);
},
{
closed = 1;
nodes = (
"545 33 LINE",
"533 32 OFFCURVE",
"490 32 OFFCURVE",
"491 91 CURVE",
"404 92 LINE",
"401 60 OFFCURVE",
"379 35 OFFCURVE",
"329 38 CURVE",
"336 0 LINE",
"551 0 LINE"
);
},
{
closed = 1;
nodes = (
"477 295 LINE",
"333 290 LINE",
"118 290 LINE",
"118 234 LINE",
"477 234 LINE"
);
},
{
closed = 1;
nodes = (
"229 491 OFFCURVE",
"240 490 CURVE",
"234 524 LINE",
"163 521 OFFCURVE",
"105 518 OFFCURVE",
"31 524 CURVE",
"35 484 LINE",
"85 487 OFFCURVE",
"91 465 OFFCURVE",
"95 434 CURVE",
"185 428 LINE",
"184 490 OFFCURVE"
);
},
{
closed = 1;
nodes = (
"539 491 OFFCURVE",
"551 490 CURVE",
"547 524 LINE",
"498 521 OFFCURVE",
"402 519 OFFCURVE",
"339 524 CURVE",
"344 484 LINE",
"393 487 OFFCURVE",
"402 465 OFFCURVE",
"407 434 CURVE",
"497 428 LINE",
"500 490 OFFCURVE"
);
}
);
width = 584;
}
);
},
{
glyphname = I.sc;
layers = (
{
layerId = "51BB9282-3B82-4DF1-A67A-294D3E37D73A";
paths = (
{
closed = 1;
nodes = (
"284 42 LINE",
"250 39 OFFCURVE",
"210 47 OFFCURVE",
"208 94 CURVE SMOOTH",
"203 234 OFFCURVE",
"207 348 OFFCURVE",
"214 434 CURVE SMOOTH",
"217 476 OFFCURVE",
"261 487 OFFCURVE",
"295 482 CURVE",
"293 494 OFFCURVE",
"290 524 OFFCURVE",
"290 524 CURVE",
"199 519 OFFCURVE",
"111 518 OFFCURVE",
"31 524 CURVE",
"32 517 OFFCURVE",
"35 490 OFFCURVE",
"37 479 CURVE",
"94 486 OFFCURVE",
"122 457 OFFCURVE",
"122 417 CURVE SMOOTH",
"122 298 OFFCURVE",
"122 164 OFFCURVE",
"119 92 CURVE SMOOTH",
"116 50 OFFCURVE",
"81 38 OFFCURVE",
"33 42 CURVE",
"39 -1 LINE",
"291 0 LINE"
);
}
);
width = 319;
}
);
},
{
glyphname = J.sc;
layers = (
{
layerId = "51BB9282-3B82-4DF1-A67A-294D3E37D73A";
paths = (
{
closed = 1;
nodes = (
"200 -55 OFFCURVE",
"198 32 CURVE SMOOTH",
"195 178 OFFCURVE",
"186 273 OFFCURVE",
"200 436 CURVE SMOOTH",
"203 472 OFFCURVE",
"223 481 OFFCURVE",
"269 483 CURVE",
"266 496 OFFCURVE",
"263 524 OFFCURVE",
"263 524 CURVE",
"179 519 OFFCURVE",
"106 519 OFFCURVE",
"29 523 CURVE",
"29 517 OFFCURVE",
"31 491 OFFCURVE",
"33 481 CURVE",
"52 481 OFFCURVE",
"102 480 OFFCURVE",
"103 427 CURVE SMOOTH",
"105 307 OFFCURVE",
"114 141 OFFCURVE",
"110 62 CURVE SMOOTH",
"107 -5 OFFCURVE",
"115 -100 OFFCURVE",
"-2 -71 CURVE",
"-20 -112 LINE",
"-11 -117 OFFCURVE",
"16 -134 OFFCURVE",
"52 -134 CURVE SMOOTH",
"160 -134 OFFCURVE"
);
}
);
width = 279;
}
);
},
{
glyphname = K.sc;
layers = (
{
layerId = "51BB9282-3B82-4DF1-A67A-294D3E37D73A";
paths = (
{
closed = 1;
nodes = (
"464 2 OFFCURVE",
"538 1 CURVE",
"531 41 LINE",
"474 40 OFFCURVE",
"361 210 OFFCURVE",
"307 278 CURVE",
"341 315 OFFCURVE",
"430 410 OFFCURVE",
"464 450 CURVE",
"484 471 OFFCURVE",
"505 487 OFFCURVE",
"531 487 CURVE",
"526 525 LINE",
"526 525 OFFCURVE",
"422 521 OFFCURVE",
"343 524 CURVE",
"349 484 LINE",
"400 486 OFFCURVE",
"392 467 OFFCURVE",
"382 454 CURVE SMOOTH",
"327 384 OFFCURVE",
"246 297 OFFCURVE",
"220 275 CURVE",
"222 246 LINE",
"267 190 OFFCURVE",
"342 92 OFFCURVE",
"353 75 CURVE SMOOTH",
"383 33 OFFCURVE",
"350 37 OFFCURVE",
"326 38 CURVE",
"335 1 LINE",
"410 1 OFFCURVE"
);
},
{
closed = 1;
nodes = (
"259 38 LINE",
"225 35 OFFCURVE",
"192 48 OFFCURVE",
"189 94 CURVE SMOOTH",
"185 235 OFFCURVE",
"189 349 OFFCURVE",
"196 435 CURVE SMOOTH",
"199 477 OFFCURVE",
"236 485 OFFCURVE",
"270 484 CURVE",
"264 525 LINE",
"194 521 OFFCURVE",
"116 520 OFFCURVE",
"35 524 CURVE",
"37 518 OFFCURVE",
"39 494 OFFCURVE",
"41 483 CURVE",
"92 484 OFFCURVE",
"105 464 OFFCURVE",
"106 421 CURVE SMOOTH",
"107 302 OFFCURVE",
"104 165 OFFCURVE",
"99 92 CURVE SMOOTH",
"97 51 OFFCURVE",
"83 43 OFFCURVE",
"40 42 CURVE",
"45 0 LINE",
"266 1 LINE"
);
}
);
width = 571;
}
);
},
{
glyphname = L.sc;
layers = (
{
layerId = "51BB9282-3B82-4DF1-A67A-294D3E37D73A";
paths = (
{
closed = 1;
nodes = (
"428 18 OFFCURVE",
"428 109 OFFCURVE",
"424 139 CURVE",
"376 133 LINE",
"373 110 OFFCURVE",
"363 82 OFFCURVE",
"350 59 CURVE",
"316 55 OFFCURVE",
"239 49 OFFCURVE",
"197 53 CURVE SMOOTH",
"174 56 OFFCURVE",
"171 78 OFFCURVE",
"170 100 CURVE SMOOTH",
"169 135 OFFCURVE",
"169 310 OFFCURVE",
"180 440 CURVE SMOOTH",
"183 479 OFFCURVE",
"205 481 OFFCURVE",
"250 481 CURVE",
"246 523 LINE",
"187 521 OFFCURVE",
"92 518 OFFCURVE",
"14 524 CURVE",
"18 484 LINE",
"68 487 OFFCURVE",
"82 466 OFFCURVE",
"84 434 CURVE SMOOTH",
"90 320 OFFCURVE",
"90 180 OFFCURVE",
"81 96 CURVE SMOOTH",
"76 54 OFFCURVE",
"55 42 OFFCURVE",
"14 42 CURVE",
"18 0 LINE",
"425 0 LINE"
);
}
);
width = 446;
}
);
},
{
glyphname = M.sc;
layers = (
{
layerId = "51BB9282-3B82-4DF1-A67A-294D3E37D73A";
paths = (
{
closed = 1;
nodes = (
"688 35 OFFCURVE",
"661 52 OFFCURVE",
"658 105 CURVE SMOOTH",
"652 179 OFFCURVE",
"651 313 OFFCURVE",
"653 420 CURVE SMOOTH",
"654 473 OFFCURVE",
"691 477 OFFCURVE",
"737 477 CURVE",
"735 487 OFFCURVE",
"732 504 OFFCURVE",
"730 524 CURVE",
"660 517 OFFCURVE",
"607 517 OFFCURVE",
"526 520 CURVE",
"495 443 OFFCURVE",
"409 175 OFFCURVE",
"337 32 CURVE",
"387 10 LINE",
"462 173 OFFCURVE",
"515 363 OFFCURVE",
"580 476 CURVE SMOOTH",
"584 483 OFFCURVE",
"554 451 OFFCURVE",
"557 458 CURVE",
"566 339 OFFCURVE",
"563 122 OFFCURVE",
"559 91 CURVE SMOOTH",
"552 45 OFFCURVE",
"508 40 OFFCURVE",
"474 45 CURVE",
"480 0 LINE",
"743 -1 LINE",
"735 45 LINE"
);
},
{
closed = 1;
nodes = (
"381 43 LINE",
"376 68 OFFCURVE",
"371 125 OFFCURVE",
"364 163 CURVE",
"329 266 OFFCURVE",
"224 465 OFFCURVE",
"203 520 CURVE",
"122 517 OFFCURVE",
"79 517 OFFCURVE",
"8 524 CURVE",
"10 517 OFFCURVE",
"12 487 OFFCURVE",
"15 477 CURVE",
"47 478 OFFCURVE",
"97 474 OFFCURVE",
"98 420 CURVE SMOOTH",
"100 313 OFFCURVE",
"99 179 OFFCURVE",
"93 105 CURVE SMOOTH",
"90 52 OFFCURVE",
"52 35 OFFCURVE",
"5 45 CURVE",
"10 -1 LINE",
"245 0 LINE",
"238 45 LINE",
"203 40 OFFCURVE",
"167 45 OFFCURVE",
"159 91 CURVE SMOOTH",
"156 119 OFFCURVE",
"153 321 OFFCURVE",
"159 440 CURVE",
"160 446 OFFCURVE",
"141 419 OFFCURVE",
"142 425 CURVE",
"172 378 OFFCURVE",
"316 58 OFFCURVE",
"341 -4 CURVE",
"387 10 LINE"
);
}
);
width = 760;
}
);
},
{
glyphname = N.sc;
layers = (
{
layerId = "51BB9282-3B82-4DF1-A67A-294D3E37D73A";
paths = (
{
closed = 1;
nodes = (
"492 -4 OFFCURVE",
"503 -4 OFFCURVE",
"521 -1 CURVE",
"516 140 OFFCURVE",
"512 317 OFFCURVE",
"524 434 CURVE SMOOTH",
"527 464 OFFCURVE",
"551 479 OFFCURVE",
"585 480 CURVE",
"583 494 OFFCURVE",
"580 524 OFFCURVE",
"580 524 CURVE",
"540 520 OFFCURVE",
"508 519 OFFCURVE",
"481 519 CURVE SMOOTH",
"434 519 OFFCURVE",
"417 521 OFFCURVE",
"377 523 CURVE",
"378 517 OFFCURVE",
"380 487 OFFCURVE",
"383 476 CURVE",
"428 477 OFFCURVE",
"450 467 OFFCURVE",
"454 413 CURVE SMOOTH",
"460 332 OFFCURVE",
"461 115 OFFCURVE",
"450 62 CURVE",
"446 55 OFFCURVE",
"484 81 OFFCURVE",
"480 75 CURVE",
"462 82 OFFCURVE",
"446 166 OFFCURVE",
"427 194 CURVE",
"347 300 OFFCURVE",
"232 461 OFFCURVE",
"191 519 CURVE",
"116 516 OFFCURVE",
"76 517 OFFCURVE",
"12 523 CURVE",
"13 517 OFFCURVE",
"15 487 OFFCURVE",
"18 476 CURVE",
"63 476 OFFCURVE",
"93 467 OFFCURVE",
"94 420 CURVE SMOOTH",
"95 313 OFFCURVE",
"95 178 OFFCURVE",
"89 105 CURVE SMOOTH",
"85 51 OFFCURVE",
"62 35 OFFCURVE",
"14 44 CURVE",
"19 -2 LINE",
"241 -1 LINE",
"234 44 LINE",
"200 40 OFFCURVE",
"163 44 OFFCURVE",
"156 90 CURVE SMOOTH",
"152 121 OFFCURVE",
"149 338 OFFCURVE",
"158 457 CURVE",
"162 461 OFFCURVE",
"131 443 OFFCURVE",
"136 447 CURVE",
"138 443 OFFCURVE",
"178 368 OFFCURVE",
"180 365 CURVE SMOOTH",
"273 247 OFFCURVE",
"344 146 OFFCURVE",
"458 -12 CURVE",
"459 -12 LINE"
);
}
);
width = 600;
}
);
},
{
glyphname = O.sc;
layers = (
{
layerId = "51BB9282-3B82-4DF1-A67A-294D3E37D73A";
paths = (
{
closed = 1;
nodes = (
"514 129 OFFCURVE",
"514 283 CURVE SMOOTH",
"513 456 OFFCURVE",
"410 530 OFFCURVE",
"292 525 CURVE SMOOTH",
"135 519 OFFCURVE",
"15 392 OFFCURVE",
"24 199 CURVE SMOOTH",
"29 70 OFFCURVE",
"118 -21 OFFCURVE",
"259 -18 CURVE SMOOTH",
"443 -15 OFFCURVE"
);
},
{
closed = 1;
nodes = (
"126 118 OFFCURVE",
"125 252 CURVE SMOOTH",
"124 410 OFFCURVE",
"191 464 OFFCURVE",
"245 473 CURVE SMOOTH",
"339 488 OFFCURVE",
"411 395 OFFCURVE",
"411 265 CURVE SMOOTH",
"412 124 OFFCURVE",
"370 39 OFFCURVE",
"290 33 CURVE SMOOTH",
"183 27 OFFCURVE"
);
}
);
width = 548;
}
);
},
{
glyphname = P.sc;
layers = (
{
layerId = "51BB9282-3B82-4DF1-A67A-294D3E37D73A";
paths = (
{
closed = 1;
nodes = (
"192 -1 OFFCURVE",
"239 0 CURVE",
"230 40 LINE",
"196 40 OFFCURVE",
"172 42 OFFCURVE",
"167 81 CURVE SMOOTH",
"163 114 OFFCURVE",
"161 144 OFFCURVE",
"161 206 CURVE",
"161 206 OFFCURVE",
"206 204 OFFCURVE",
"240 208 CURVE SMOOTH",
"341 220 OFFCURVE",
"435 286 OFFCURVE",
"433 395 CURVE SMOOTH",
"432 467 OFFCURVE",
"393 527 OFFCURVE",
"281 527 CURVE SMOOTH",
"178 527 OFFCURVE",
"102 516 OFFCURVE",
"7 524 CURVE",
"10 487 LINE",
"66 485 OFFCURVE",
"79 455 OFFCURVE",
"80 417 CURVE SMOOTH",
"83 312 OFFCURVE",
"82 229 OFFCURVE",
"78 87 CURVE SMOOTH",
"77 55 OFFCURVE",
"70 40 OFFCURVE",
"19 40 CURVE",
"26 0 LINE",
"76 0 OFFCURVE"
);
},
{
closed = 1;
nodes = (
"181 259 OFFCURVE",
"163 267 CURVE",
"164 334 OFFCURVE",
"161 427 OFFCURVE",
"167 480 CURVE",
"181 485 OFFCURVE",
"214 490 OFFCURVE",
"234 490 CURVE SMOOTH",
"296 490 OFFCURVE",
"344 450 OFFCURVE",
"344 384 CURVE SMOOTH",
"344 322 OFFCURVE",
"318 259 OFFCURVE",
"238 256 CURVE SMOOTH",
"210 255 OFFCURVE"
);
}
);
width = 453;
}
);
},
{
glyphname = Q.sc;
layers = (
{
layerId = "51BB9282-3B82-4DF1-A67A-294D3E37D73A";
paths = (
{
closed = 1;
nodes = (
"522 136 OFFCURVE",
"521 288 CURVE SMOOTH",
"521 457 OFFCURVE",
"427 531 OFFCURVE",
"303 526 CURVE SMOOTH",
"143 520 OFFCURVE",
"27 394 OFFCURVE",
"35 204 CURVE SMOOTH",
"41 77 OFFCURVE",
"117 -13 OFFCURVE",
"259 -11 CURVE SMOOTH",
"450 -7 OFFCURVE"
);
},
{
closed = 1;
nodes = (
"526 -146 OFFCURVE",
"567 -133 CURVE",
"574 -71 LINE",
"563 -49 LINE",
"563 -49 OFFCURVE",
"505 -71 OFFCURVE",
"425 -69 CURVE SMOOTH",
"351 -67 OFFCURVE",
"275 -61 OFFCURVE",
"238 0 CURVE",
"192 -5 LINE",
"211 -52 OFFCURVE",
"249 -137 OFFCURVE",
"408 -150 CURVE SMOOTH",
"482 -156 OFFCURVE"
);
},
{
closed = 1;
nodes = (
"133 124 OFFCURVE",
"132 256 CURVE SMOOTH",
"132 412 OFFCURVE",
"201 465 OFFCURVE",
"256 474 CURVE SMOOTH",
"347 488 OFFCURVE",
"419 397 OFFCURVE",
"419 270 CURVE SMOOTH",
"420 131 OFFCURVE",
"377 49 OFFCURVE",
"297 37 CURVE SMOOTH",
"190 23 OFFCURVE"
);
}
);
width = 592;
}
);
},
{
glyphname = R.sc;
layers = (
{
layerId = "51BB9282-3B82-4DF1-A67A-294D3E37D73A";
paths = (
{
closed = 1;
nodes = (
"221 -1 OFFCURVE",
"268 0 CURVE",
"259 40 LINE",
"225 40 OFFCURVE",
"201 42 OFFCURVE",
"196 81 CURVE SMOOTH",
"193 114 OFFCURVE",
"190 153 OFFCURVE",
"190 215 CURVE",
"190 215 OFFCURVE",
"235 212 OFFCURVE",
"269 216 CURVE SMOOTH",
"370 228 OFFCURVE",
"464 286 OFFCURVE",
"462 395 CURVE SMOOTH",
"461 467 OFFCURVE",
"422 527 OFFCURVE",
"310 527 CURVE SMOOTH",
"207 527 OFFCURVE",
"131 516 OFFCURVE",
"36 524 CURVE",
"39 487 LINE",
"95 485 OFFCURVE",
"108 455 OFFCURVE",
"109 417 CURVE SMOOTH",
"115 312 OFFCURVE",
"112 229 OFFCURVE",
"107 87 CURVE SMOOTH",
"105 55 OFFCURVE",
"99 40 OFFCURVE",
"48 40 CURVE",
"55 0 LINE",
"105 0 OFFCURVE"
);
},
{
closed = 1;
nodes = (
"538 42 LINE",
"480 41 OFFCURVE",
"390 191 OFFCURVE",
"342 260 CURVE",
"270 229 LINE",
"310 174 OFFCURVE",
"357 101 OFFCURVE",
"367 85 CURVE SMOOTH",
"397 42 OFFCURVE",
"352 38 OFFCURVE",
"328 39 CURVE",
"337 1 LINE",
"547 1 LINE"
);
},
{
closed = 1;
nodes = (
"210 261 OFFCURVE",
"192 266 CURVE",
"193 333 OFFCURVE",
"190 427 OFFCURVE",
"196 480 CURVE",
"210 485 OFFCURVE",
"242 490 OFFCURVE",
"272 490 CURVE SMOOTH",
"328 489 OFFCURVE",
"373 450 OFFCURVE",
"373 384 CURVE SMOOTH",
"372 322 OFFCURVE",
"336 264 OFFCURVE",
"264 260 CURVE SMOOTH",
"236 259 OFFCURVE"
);
}
);
width = 576;
}
);
},
{
glyphname = S.sc;
layers = (
{
layerId = "51BB9282-3B82-4DF1-A67A-294D3E37D73A";
paths = (
{
closed = 1;
nodes = (
"393 62 OFFCURVE",
"383 151 CURVE SMOOTH",
"370 295 OFFCURVE",
"154 296 OFFCURVE",
"139 407 CURVE SMOOTH",
"134 453 OFFCURVE",
"151 490 OFFCURVE",
"204 490 CURVE SMOOTH",
"279 489 OFFCURVE",
"292 427 OFFCURVE",
"304 411 CURVE",
"259 519 LINE",
"259 519 OFFCURVE",
"288 429 OFFCURVE",
"290 397 CURVE",
"353 390 LINE",
"357 419 OFFCURVE",
"359 479 OFFCURVE",
"355 510 CURVE",
"355 510 OFFCURVE",
"306 527 OFFCURVE",
"227 529 CURVE SMOOTH",
"89 531 OFFCURVE",
"28 444 OFFCURVE",
"42 362 CURVE SMOOTH",
"64 226 OFFCURVE",
"300 214 OFFCURVE",
"283 101 CURVE SMOOTH",
"277 62 OFFCURVE",
"241 31 OFFCURVE",
"182 38 CURVE SMOOTH",
"117 46 OFFCURVE",
"98 89 OFFCURVE",
"73 117 CURVE",
"81 81 OFFCURVE",
"100 44 OFFCURVE",
"139 35 CURVE",
"113 64 OFFCURVE",
"105 101 OFFCURVE",
"102 140 CURVE",
"38 148 LINE",
"29 97 OFFCURVE",
"28 45 OFFCURVE",
"32 15 CURVE",
"32 15 OFFCURVE",
"92 -12 OFFCURVE",
"179 -12 CURVE SMOOTH",
"326 -11 OFFCURVE"
);
}
);
width = 440;
}
);
},
{
glyphname = T.sc;
layers = (
{
layerId = "51BB9282-3B82-4DF1-A67A-294D3E37D73A";
paths = (
{
closed = 1;
nodes = (
"343 42 LINE",
"326 42 OFFCURVE",
"290 44 OFFCURVE",
"286 85 CURVE SMOOTH",
"277 199 OFFCURVE",
"284 377 OFFCURVE",
"302 514 CURVE",
"302 514 OFFCURVE",
"199 499 OFFCURVE",
"152 500 CURVE",
"157 491 LINE",
"177 491 OFFCURVE",
"193 490 OFFCURVE",
"195 460 CURVE SMOOTH",
"201 377 OFFCURVE",
"203 214 OFFCURVE",
"191 96 CURVE SMOOTH",
"188 65 OFFCURVE",
"166 38 OFFCURVE",
"119 40 CURVE",
"122 0 LINE",
"350 0 LINE"
);
},
{
closed = 1;
nodes = (
"407 522 OFFCURVE",
"288 521 OFFCURVE",
"241 521 CURVE SMOOTH",
"161 521 OFFCURVE",
"102 523 OFFCURVE",
"28 527 CURVE",
"28 490 OFFCURVE",
"23 429 OFFCURVE",
"20 398 CURVE",
"82 406 LINE",
"91 429 OFFCURVE",
"96 477 OFFCURVE",
"122 501 CURVE",
"86 477 LINE",
"110 477 OFFCURVE",
"182 480 OFFCURVE",
"241 480 CURVE SMOOTH",
"297 480 OFFCURVE",
"362 483 OFFCURVE",
"420 463 CURVE",
"364 507 LINE",
"392 482 OFFCURVE",
"409 438 OFFCURVE",
"413 400 CURVE",
"468 394 LINE",
"476 527 LINE"
);
}
);
width = 494;
}
);
},
{
glyphname = U.sc;
layers = (
{
layerId = "51BB9282-3B82-4DF1-A67A-294D3E37D73A";
paths = (
{
closed = 1;
nodes = (
"454 32 OFFCURVE",
"465 156 CURVE SMOOTH",
"470 226 OFFCURVE",
"466 326 OFFCURVE",
"471 434 CURVE SMOOTH",
"474 468 OFFCURVE",
"504 485 OFFCURVE",
"537 480 CURVE",
"531 523 LINE",
"492 517 OFFCURVE",
"475 517 OFFCURVE",
"449 517 CURVE SMOOTH",
"398 517 OFFCURVE",
"365 518 OFFCURVE",
"319 522 CURVE",
"320 517 OFFCURVE",
"323 486 OFFCURVE",
"325 476 CURVE",
"371 482 OFFCURVE",
"407 479 OFFCURVE",
"408 420 CURVE",
"406 336 OFFCURVE",
"411 253 OFFCURVE",
"406 174 CURVE SMOOTH",
"400 95 OFFCURVE",
"357 47 OFFCURVE",
"294 42 CURVE SMOOTH",
"216 35 OFFCURVE",
"179 89 OFFCURVE",
"172 166 CURVE SMOOTH",
"170 194 OFFCURVE",
"172 316 OFFCURVE",
"177 400 CURVE SMOOTH",
"180 444 OFFCURVE",
"196 490 OFFCURVE",
"256 481 CURVE",
"254 494 OFFCURVE",
"251 524 OFFCURVE",
"251 524 CURVE",
"211 518 OFFCURVE",
"152 517 OFFCURVE",
"126 517 CURVE SMOOTH",
"71 517 OFFCURVE",
"58 519 OFFCURVE",
"8 523 CURVE",
"9 517 OFFCURVE",
"12 487 OFFCURVE",
"14 477 CURVE",
"68 484 OFFCURVE",
"75 464 OFFCURVE",
"79 418 CURVE SMOOTH",
"81 363 OFFCURVE",
"74 234 OFFCURVE",
"74 153 CURVE SMOOTH",
"74 19 OFFCURVE",
"190 -10 OFFCURVE",
"272 -10 CURVE SMOOTH",
"357 -10 OFFCURVE"
);
}
);
width = 546;
}
);
},
{
glyphname = V.sc;
layers = (
{
layerId = "51BB9282-3B82-4DF1-A67A-294D3E37D73A";
paths = (
{
closed = 1;
nodes = (
"317 0 OFFCURVE",
"343 4 CURVE",
"379 122 OFFCURVE",
"439 280 OFFCURVE",
"500 433 CURVE SMOOTH",
"512 465 OFFCURVE",
"527 487 OFFCURVE",
"580 482 CURVE",
"573 521 LINE",
"506 516 OFFCURVE",
"425 519 OFFCURVE",
"353 521 CURVE",
"359 488 LINE",
"390 489 OFFCURVE",
"444 490 OFFCURVE",
"430 427 CURVE SMOOTH",
"420 386 OFFCURVE",
"343 180 OFFCURVE",
"297 55 CURVE",
"292 82 OFFCURVE",
"289 133 OFFCURVE",
"283 159 CURVE",
"255 250 OFFCURVE",
"209 363 OFFCURVE",
"186 440 CURVE SMOOTH",
"176 479 OFFCURVE",
"209 487 OFFCURVE",
"256 480 CURVE",
"249 521 LINE",
"196 517 OFFCURVE",
"81 518 OFFCURVE",
"8 521 CURVE",
"14 486 LINE",
"59 492 OFFCURVE",
"72 460 OFFCURVE",
"84 437 CURVE",
"149 261 OFFCURVE",
"199 121 OFFCURVE",
"239 -16 CURVE",
"264 -8 OFFCURVE"
);
}
);
width = 597;
}
);
},
{
glyphname = W.sc;
layers = (
{
layerId = "51BB9282-3B82-4DF1-A67A-294D3E37D73A";
paths = (
{
closed = 1;
nodes = (
"569 0 OFFCURVE",
"594 4 CURVE",
"631 122 OFFCURVE",
"682 274 OFFCURVE",
"727 428 CURVE SMOOTH",
"737 462 OFFCURVE",
"760 477 OFFCURVE",
"806 478 CURVE",
"802 518 LINE",
"588 518 LINE",
"594 480 LINE",
"645 481 OFFCURVE",
"665 475 OFFCURVE",
"657 430 CURVE SMOOTH",
"649 387 OFFCURVE",
"588 193 OFFCURVE",
"547 64 CURVE",
"544 87 OFFCURVE",
"543 132 OFFCURVE",
"538 146 CURVE SMOOTH",
"508 240 OFFCURVE",
"484 352 OFFCURVE",
"462 434 CURVE SMOOTH",
"451 472 OFFCURVE",
"482 474 OFFCURVE",
"524 473 CURVE",
"518 514 LINE",
"296 514 LINE",
"301 478 LINE",
"346 480 OFFCURVE",
"359 449 OFFCURVE",
"368 417 CURVE SMOOTH",
"421 242 OFFCURVE",
"457 117 OFFCURVE",
"497 -16 CURVE",
"522 -8 OFFCURVE"
);
},
{
closed = 1;
nodes = (
"271 0 OFFCURVE",
"296 4 CURVE",
"339 122 OFFCURVE",
"390 280 OFFCURVE",
"446 426 CURVE",
"377 417 LINE",
"364 378 OFFCURVE",
"309 209 OFFCURVE",
"259 78 CURVE",
"255 101 OFFCURVE",
"252 133 OFFCURVE",
"246 155 CURVE",
"218 250 OFFCURVE",
"183 357 OFFCURVE",
"162 439 CURVE SMOOTH",
"151 477 OFFCURVE",
"190 480 OFFCURVE",
"231 479 CURVE",
"224 521 LINE",
"166 516 OFFCURVE",
"70 517 OFFCURVE",
"-5 521 CURVE",
"1 478 LINE",
"45 479 OFFCURVE",
"58 459 OFFCURVE",
"70 422 CURVE SMOOTH",
"129 252 OFFCURVE",
"159 117 OFFCURVE",
"199 -16 CURVE",
"224 -8 OFFCURVE"
);
}
);
width = 807;
}
);
},
{
glyphname = X.sc;
layers = (
{
layerId = "51BB9282-3B82-4DF1-A67A-294D3E37D73A";
paths = (
{
closed = 1;
nodes = (
"213 46 LINE",
"150 43 OFFCURVE",
"158 71 OFFCURVE",
"178 102 CURVE SMOOTH",
"206 147 OFFCURVE",
"246 202 OFFCURVE",
"282 239 CURVE",
"290 246 LINE",
"316 283 OFFCURVE",
"371 351 OFFCURVE",
"407 405 CURVE SMOOTH",
"437 450 OFFCURVE",
"461 477 OFFCURVE",
"510 480 CURVE",
"503 520 LINE",
"441 515 OFFCURVE",
"362 515 OFFCURVE",
"293 520 CURVE",
"303 477 LINE",
"357 476 OFFCURVE",
"359 452 OFFCURVE",
"346 424 CURVE SMOOTH",
"326 380 OFFCURVE",
"277 326 OFFCURVE",
"241 279 CURVE",
"229 270 LINE",
"192 218 OFFCURVE",
"129 133 OFFCURVE",
"105 102 CURVE SMOOTH",
"83 75 OFFCURVE",
"51 49 OFFCURVE",
"5 49 CURVE",
"12 0 LINE",
"223 0 LINE"
);
},
{
closed = 1;
nodes = (
"497 53 LINE",
"469 54 OFFCURVE",
"444 64 OFFCURVE",
"413 105 CURVE SMOOTH",
"366 166 OFFCURVE",
"316 237 OFFCURVE",
"286 277 CURVE SMOOTH",
"274 293 LINE",
"246 333 OFFCURVE",
"207 382 OFFCURVE",
"192 412 CURVE SMOOTH",
"171 455 OFFCURVE",
"182 474 OFFCURVE",
"233 476 CURVE",
"224 519 LINE",
"156 515 OFFCURVE",
"92 513 OFFCURVE",
"5 519 CURVE",
"11 474 LINE",
"45 474 OFFCURVE",
"53 471 OFFCURVE",
"93 413 CURVE SMOOTH",
"128 363 OFFCURVE",
"194 276 OFFCURVE",
"221 231 CURVE",
"228 224 LINE",
"259 182 OFFCURVE",
"283 146 OFFCURVE",
"313 104 CURVE SMOOTH",
"343 60 OFFCURVE",
"314 48 OFFCURVE",
"266 49 CURVE",
"274 0 LINE",
"511 0 LINE"
);
}
);
width = 526;
}
);
},
{
glyphname = Y.sc;
layers = (
{
layerId = "51BB9282-3B82-4DF1-A67A-294D3E37D73A";
paths = (
{
closed = 1;
nodes = (
"266 216 OFFCURVE",
"285 219 CURVE",
"309 271 OFFCURVE",
"355 334 OFFCURVE",
"425 434 CURVE SMOOTH",
"444 461 OFFCURVE",
"463 482 OFFCURVE",
"502 483 CURVE",
"495 521 LINE",
"431 518 OFFCURVE",
"369 517 OFFCURVE",
"305 521 CURVE",
"311 480 LINE",
"356 482 OFFCURVE",
"390 469 OFFCURVE",
"369 435 CURVE SMOOTH",
"327 367 OFFCURVE",
"286 307 OFFCURVE",
"257 259 CURVE",
"257 259 OFFCURVE",
"243 296 OFFCURVE",
"236 320 CURVE",
"212 362 OFFCURVE",
"194 409 OFFCURVE",
"177 439 CURVE SMOOTH",
"159 470 OFFCURVE",
"172 482 OFFCURVE",
"222 486 CURVE",
"213 521 LINE",
"138 519 OFFCURVE",
"68 518 OFFCURVE",
"-7 521 CURVE",
"-2 483 LINE",
"29 483 OFFCURVE",
"54 474 OFFCURVE",
"76 437 CURVE SMOOTH",
"147 317 OFFCURVE",
"168 259 OFFCURVE",
"203 193 CURVE",
"226 199 OFFCURVE"
);
},
{
closed = 1;
nodes = (
"351 45 LINE",
"317 43 OFFCURVE",
"303 59 OFFCURVE",
"296 91 CURVE SMOOTH",
"289 122 OFFCURVE",
"290 152 OFFCURVE",
"294 244 CURVE",
"196 252 LINE",
"206 171 OFFCURVE",
"205 129 OFFCURVE",
"200 95 CURVE SMOOTH",
"196 61 OFFCURVE",
"186 43 OFFCURVE",
"139 45 CURVE",
"145 -1 LINE",
"365 0 LINE"
);
}
);
width = 512;
}
);
},
{
glyphname = Z.sc;
layers = (
{
layerId = "51BB9282-3B82-4DF1-A67A-294D3E37D73A";
paths = (
{
closed = 1;
nodes = (
"432 53 LINE SMOOTH",
"433 92 OFFCURVE",
"430 140 OFFCURVE",
"430 140 CURVE",
"376 135 LINE",
"373 109 OFFCURVE",
"367 85 OFFCURVE",
"354 60 CURVE",
"323 55 OFFCURVE",
"245 55 OFFCURVE",
"190 56 CURVE SMOOTH",
"150 57 OFFCURVE",
"112 59 OFFCURVE",
"92 79 CURVE",
"126 45 LINE",
"139 56 OFFCURVE",
"368 428 OFFCURVE",
"427 472 CURVE",
"421 520 LINE",
"371 517 OFFCURVE",
"253 519 OFFCURVE",
"198 519 CURVE SMOOTH",
"141 519 OFFCURVE",
"63 518 OFFCURVE",
"32 520 CURVE",
"33 466 LINE SMOOTH",
"34 428 OFFCURVE",
"36 379 OFFCURVE",
"36 379 CURVE",
"90 385 LINE",
"93 412 OFFCURVE",
"101 435 OFFCURVE",
"116 461 CURVE",
"154 464 OFFCURVE",
"219 466 OFFCURVE",
"267 466 CURVE SMOOTH",
"300 466 OFFCURVE",
"297 457 OFFCURVE",
"290 446 CURVE SMOOTH",
"223 341 OFFCURVE",
"61 91 OFFCURVE",
"-1 47 CURVE",
"-2 30 OFFCURVE",
"3 9 OFFCURVE",
"2 0 CURVE",
"431 0 LINE"
);
}
);
width = 452;
}
);
},
{
glyphname = sinA;
lastChange = "2018-01-03 07:48:42 +0000";
layers = (
{
layerId = "51BB9282-3B82-4DF1-A67A-294D3E37D73A";
paths = (
{
closed = 1;
nodes = (
"354 -15 OFFCURVE",
"435 -6 OFFCURVE",
"486 19 CURVE",
"491 36 OFFCURVE",
"489 68 OFFCURVE",
"481 89 CURVE",
"419 39 OFFCURVE",
"348 22 OFFCURVE",
"305 22 CURVE SMOOTH",
"165 22 OFFCURVE",
"101 81 OFFCURVE",
"101 157 CURVE SMOOTH",
"101 224 OFFCURVE",
"148 287 OFFCURVE",
"231 287 CURVE SMOOTH",
"258 287 OFFCURVE",
"296 277 OFFCURVE",
"320 262 CURVE",
"333 272 LINE",
"334 280 OFFCURVE",
"335 291 OFFCURVE",
"335 299 CURVE SMOOTH",
"335 395 OFFCURVE",
"268 465 OFFCURVE",
"179 465 CURVE SMOOTH",
"113 465 OFFCURVE",
"77 429 OFFCURVE",
"77 388 CURVE SMOOTH",
"77 353 OFFCURVE",
"101 336 OFFCURVE",
"118 335 CURVE",
"128 379 OFFCURVE",
"171 414 OFFCURVE",
"214 414 CURVE SMOOTH",
"260 414 OFFCURVE",
"287 381 OFFCURVE",
"287 332 CURVE SMOOTH",
"287 296 OFFCURVE",
"281 293 OFFCURVE",
"279 290 CURVE",
"311 320 LINE",
"286 323 OFFCURVE",
"266 325 OFFCURVE",
"250 325 CURVE SMOOTH",
"122 325 OFFCURVE",
"22 268 OFFCURVE",
"22 153 CURVE SMOOTH",
"22 40 OFFCURVE",
"153 -15 OFFCURVE",
"274 -15 CURVE SMOOTH"
);
},
{
closed = 1;
nodes = (
"410 325 LINE SMOOTH",
"409 363 OFFCURVE",
"409 380 OFFCURVE",
"420 421 CURVE",
"459 389 OFFCURVE",
"472 362 OFFCURVE",
"472 327 CURVE SMOOTH",
"472 274 OFFCURVE",
"439 246 OFFCURVE",
"373 246 CURVE",
"390 214 LINE",
"470 220 OFFCURVE",
"521 269 OFFCURVE",
"521 327 CURVE SMOOTH",
"521 399 OFFCURVE",
"471 418 OFFCURVE",
"419 461 CURVE",
"403 454 LINE",
"390 438 OFFCURVE",
"367 399 OFFCURVE",
"367 361 CURVE SMOOTH",
"367 92 OFFCURVE",
"357 -136 OFFCURVE",
"353 -227 CURVE",
"418 -227 LINE"
);
}
);
width = 551;
}
);
unicode = 0D85;
},
{
glyphname = sinBa;
lastChange = "2018-02-23 07:37:08 +0000";
layers = (
{
layerId = "51BB9282-3B82-4DF1-A67A-294D3E37D73A";
paths = (
{
closed = 1;
nodes = (
"165 332 OFFCURVE",
"261 332 CURVE SMOOTH",
"320 332 OFFCURVE",
"388 315 OFFCURVE",
"422 258 CURVE",
"380 257 OFFCURVE",
"305 213 OFFCURVE",
"305 120 CURVE SMOOTH",
"305 58 OFFCURVE",
"346 -9 OFFCURVE",
"432 -9 CURVE SMOOTH",
"559 -9 OFFCURVE",
"614 122 OFFCURVE",
"614 251 CURVE SMOOTH",
"614 462 OFFCURVE",
"467 598 OFFCURVE",
"288 598 CURVE SMOOTH",
"224 598 OFFCURVE",
"163 582 OFFCURVE",
"126 563 CURVE",
"118 547 OFFCURVE",
"115 515 OFFCURVE",
"119 490 CURVE",
"119 488 OFFCURVE",
"191 527 OFFCURVE",
"296 527 CURVE SMOOTH",
"467 527 OFFCURVE",
"566 427 OFFCURVE",
"566 276 CURVE SMOOTH",
"566 169 OFFCURVE",
"513 70 OFFCURVE",
"416 70 CURVE SMOOTH",
"381 70 OFFCURVE",
"343 89 OFFCURVE",
"343 135 CURVE SMOOTH",
"343 181 OFFCURVE",
"399 206 OFFCURVE",
"439 197 CURVE",
"448 200 OFFCURVE",
"455 202 OFFCURVE",
"462 208 CURVE",
"458 316 OFFCURVE",
"379 411 OFFCURVE",
"263 411 CURVE SMOOTH",
"152 411 OFFCURVE",
"62 298 OFFCURVE",
"62 192 CURVE SMOOTH",
"62 90 OFFCURVE",
"98 -6 OFFCURVE",
"194 -6 CURVE SMOOTH",
"249 -6 OFFCURVE",
"287 36 OFFCURVE",
"287 94 CURVE SMOOTH",
"287 144 OFFCURVE",
"259 185 OFFCURVE",
"209 185 CURVE SMOOTH",
"159 185 OFFCURVE",
"135 145 OFFCURVE",
"135 107 CURVE SMOOTH",
"135 82 OFFCURVE",
"142 64 OFFCURVE",
"152 48 CURVE",
"187 30 LINE",
"172 46 OFFCURVE",
"169 57 OFFCURVE",
"169 72 CURVE SMOOTH",
"169 116 OFFCURVE",
"197 127 OFFCURVE",
"217 127 CURVE SMOOTH",
"237 127 OFFCURVE",
"257 116 OFFCURVE",
"257 93 CURVE SMOOTH",
"257 60 OFFCURVE",
"217 49 OFFCURVE",
"195 49 CURVE SMOOTH",
"152 49 OFFCURVE",
"93 86 OFFCURVE",
"93 173 CURVE SMOOTH",
"93 271 OFFCURVE"
);
}
);
width = 653;
}
);
unicode = 0DB6;
userData = {
com.typemytype.robofont.layerData = {
"Jan 19 17, 02:25" = {
anchors = (
{
name = rakaransaya;
x = 799;
y = 363;
}
);
components = (
);
contours = (
{
points = (
{
segmentType = curve;
smooth = 1;
x = 55;
y = 180;
},
{
smooth = 0;
x = 55;
y = 186;
},
{
smooth = 0;
x = 55;
y = 193;
},
{
segmentType = curve;
smooth = 1;
x = 55.434;
y = 200;
},
{
smooth = 0;
x = 67;
y = 379;
},
{
smooth = 0;
x = 187;
y = 502;
},
{
segmentType = curve;
smooth = 1;
x = 339;
y = 502;
},
{
smooth = 0;
x = 473;
y = 502;
},
{
smooth = 0;
x = 543;
y = 410;
},
{
segmentType = curve;
smooth = 0;
x = 535.251;
y = 311;
},
{
smooth = 0;
x = 490.094;
y = 308;
},
{
smooth = 0;
x = 433.605;
y = 270.03;
},
{
segmentType = curve;
smooth = 1;
x = 425.014;
y = 192;
},
{
smooth = 0;
x = 425;
y = 188;
},
{
smooth = 0;
x = 424;
y = 184;
},
{
segmentType = curve;
smooth = 1;
x = 424;
y = 181;
},
{
smooth = 0;
x = 424;
y = 135;
},
{
smooth = 0;
x = 459;
y = 104;
},
{
segmentType = curve;
smooth = 1;
x = 534;
y = 104;
},
{
smooth = 0;
x = 674;
y = 104;
},
{
smooth = 0;
x = 738;
y = 265;
},
{
segmentType = curve;
smooth = 1;
x = 738;
y = 384;
},
{
smooth = 0;
x = 738;
y = 581;
},
{
smooth = 0;
x = 599;
y = 688;
},
{
segmentType = curve;
smooth = 1;
x = 369;
y = 688;
},
{
smooth = 0;
x = 243;
y = 688;
},
{
smooth = 0;
x = 155;
y = 626;
},
{
segmentType = curve;
smooth = 1;
x = 154;
y = 627;
},
{
smooth = 0;
x = 151;
y = 629;
},
{
smooth = 0;
x = 149;
y = 635;
},
{
segmentType = curve;
smooth = 1;
x = 149;
y = 643;
},
{
smooth = 0;
x = 149;
y = 665;
},
{
smooth = 0;
x = 160;
y = 704;
},
{
segmentType = curve;
smooth = 0;
x = 174;
y = 726;
},
{
smooth = 0;
x = 218;
y = 754;
},
{
smooth = 0;
x = 289;
y = 778;
},
{
segmentType = curve;
smooth = 1;
x = 381;
y = 778;
},
{
smooth = 0;
x = 610;
y = 778;
},
{
smooth = 0;
x = 810;
y = 625;
},
{
segmentType = curve;
smooth = 1;
x = 797.557;
y = 355;
},
{
smooth = 0;
x = 789;
y = 148;
},
{
smooth = 0;
x = 698;
y = -12;
},
{
segmentType = curve;
smooth = 1;
x = 536;
y = -12;
},
{
smooth = 0;
x = 401;
y = -12;
},
{
smooth = 0;
x = 363;
y = 84;
},
{
segmentType = curve;
smooth = 1;
x = 368.18;
y = 157;
},
{
smooth = 0;
x = 375.955;
y = 267.19;
},
{
smooth = 0;
x = 439.842;
y = 322.286;
},
{
segmentType = curve;
smooth = 0;
x = 497.509;
y = 335;
},
{
smooth = 0;
x = 486;
y = 363;
},
{
smooth = 0;
x = 397;
y = 407;
},
{
segmentType = curve;
smooth = 1;
x = 312;
y = 407;
},
{
smooth = 0;
x = 204;
y = 407;
},
{
smooth = 0;
x = 93;
y = 329;
},
{
segmentType = curve;
smooth = 1;
x = 93;
y = 201;
},
{
smooth = 0;
x = 93;
y = 112;
},
{
smooth = 0;
x = 161;
y = 64;
},
{
segmentType = curve;
smooth = 0;
x = 194.939;
y = 57;
},
{
segmentType = line;
smooth = 0;
x = 168.677;
y = 52;
},
{
smooth = 0;
x = 160;
y = 69;
},
{
smooth = 0;
x = 156;
y = 87;
},
{
segmentType = curve;
smooth = 1;
x = 156;
y = 105;
},
{
smooth = 0;
x = 156;
y = 157;
},
{
smooth = 0;
x = 192;
y = 207;
},
{
segmentType = curve;
smooth = 1;
x = 255.8;
y = 207;
},
{
smooth = 0;
x = 305.829;
y = 206.727;
},
{
smooth = 0;
x = 345.279;
y = 161.003;
},
{
segmentType = curve;
smooth = 1;
x = 340.455;
y = 105;
},
{
smooth = 0;
x = 334.438;
y = 35.152;
},
{
smooth = 0;
x = 291.009;
y = -18;
},
{
segmentType = curve;
smooth = 1;
x = 233;
y = -18;
},
{
smooth = 0;
x = 105;
y = -18;
},
{
smooth = 0;
x = 55;
y = 77;
}
);
},
{
points = (
{
segmentType = curve;
smooth = 1;
x = 195;
y = 101;
},
{
smooth = 0;
x = 195;
y = 78;
},
{
smooth = 0;
x = 206;
y = 59;
},
{
segmentType = curve;
smooth = 1;
x = 237;
y = 59;
},
{
smooth = 0;
x = 270;
y = 59;
},
{
smooth = 0;
x = 288;
y = 95;
},
{
segmentType = curve;
smooth = 1;
x = 288;
y = 125;
},
{
smooth = 0;
x = 288;
y = 153;
},
{
smooth = 0;
x = 268;
y = 164;
},
{
segmentType = curve;
smooth = 1;
x = 245.547;
y = 164;
},
{
smooth = 0;
x = 217;
y = 164;
},
{
smooth = 0;
x = 195;
y = 135;
}
);
}
);
lib = {
};
name = sinBa;
unicodes = (
);
width = 848;
};
};
};
},
{
color = 5;
glyphname = sinBha;
lastChange = "2018-02-16 12:36:04 +0000";
layers = (
{
layerId = "51BB9282-3B82-4DF1-A67A-294D3E37D73A";
paths = (
{
closed = 1;
nodes = (
"421 -8 OFFCURVE",
"495 81 OFFCURVE",
"495 172 CURVE SMOOTH",
"495 263 OFFCURVE",
"434 301 OFFCURVE",
"398 301 CURVE",
"388 253 LINE",
"408 253 OFFCURVE",
"461 239 OFFCURVE",
"461 185 CURVE SMOOTH",
"460 129 OFFCURVE",
"396 75 OFFCURVE",
"273 77 CURVE SMOOTH",
"194 78 OFFCURVE",
"125 115 OFFCURVE",
"125 168 CURVE SMOOTH",
"125 260 OFFCURVE",
"241 276 OFFCURVE",
"325 253 CURVE",
"334 264 LINE",
"354 338 OFFCURVE",
"336 456 OFFCURVE",
"222 456 CURVE SMOOTH",
"154 456 OFFCURVE",
"108 418 OFFCURVE",
"106 379 CURVE SMOOTH",
"103 342 OFFCURVE",
"132 324 OFFCURVE",
"165 323 CURVE",
"174 350 OFFCURVE",
"189 399 OFFCURVE",
"233 407 CURVE",
"256 410 OFFCURVE",
"289 403 OFFCURVE",
"296 377 CURVE SMOOTH",
"302 353 OFFCURVE",
"294 321 OFFCURVE",
"288 309 CURVE",
"182 310 OFFCURVE",
"91 263 OFFCURVE",
"90 160 CURVE SMOOTH",
"89 65 OFFCURVE",
"168 -8 OFFCURVE",
"295 -8 CURVE SMOOTH"
);
},
{
closed = 1;
nodes = (
"673 -7 OFFCURVE",
"749 117 OFFCURVE",
"749 248 CURVE SMOOTH",
"749 371 OFFCURVE",
"667 454 OFFCURVE",
"575 454 CURVE SMOOTH",
"434 454 OFFCURVE",
"359 333 OFFCURVE",
"354 170 CURVE",
"359 169 OFFCURVE",
"363 169 OFFCURVE",
"368 169 CURVE SMOOTH",
"375 169 OFFCURVE",
"382 169 OFFCURVE",
"390 170 CURVE",
"388 177 OFFCURVE",
"387 190 OFFCURVE",
"387 197 CURVE SMOOTH",
"387 305 OFFCURVE",
"448 364 OFFCURVE",
"564 364 CURVE SMOOTH",
"628 364 OFFCURVE",
"702 323 OFFCURVE",
"703 226 CURVE SMOOTH",
"704 141 OFFCURVE",
"647 66 OFFCURVE",
"548 66 CURVE SMOOTH",
"532 66 OFFCURVE",
"510 69 OFFCURVE",
"493 73 CURVE",
"493 72 OFFCURVE",
"483 69 OFFCURVE",
"483 67 CURVE SMOOTH",
"483 50 OFFCURVE",
"503 7 OFFCURVE",
"522 -10 CURVE"
);
},
{
closed = 1;
nodes = (
"57 248 OFFCURVE",
"166 303 OFFCURVE",
"301 294 CURVE",
"314 309 LINE",
"230 310 OFFCURVE",
"82 307 OFFCURVE",
"20 296 CURVE",
"10 275 OFFCURVE",
"6 253 OFFCURVE",
"5 230 CURVE",
"14 223 LINE"
);
}
);
width = 799;
}
);
leftMetricsKey = sinBHa;
rightMetricsKey = sinBha;
unicode = 0DB7;
},
{
glyphname = sinCa;
lastChange = "2018-02-15 11:39:15 +0000";
layers = (
{
layerId = "51BB9282-3B82-4DF1-A67A-294D3E37D73A";
paths = (
{
closed = 1;
nodes = (
"627 141 OFFCURVE",
"627 303 CURVE SMOOTH",
"627 501 OFFCURVE",
"495 611 OFFCURVE",
"339 611 CURVE SMOOTH",
"297 611 OFFCURVE",
"235 600 OFFCURVE",
"199 582 CURVE",
"191 565 OFFCURVE",
"190 539 OFFCURVE",
"190 531 CURVE SMOOTH",
"190 523 OFFCURVE",
"191 515 OFFCURVE",
"192 512 CURVE",
"195 512 OFFCURVE",
"254 539 OFFCURVE",
"332 539 CURVE SMOOTH",
"440 539 OFFCURVE",
"585 482 OFFCURVE",
"585 304 CURVE SMOOTH",
"585 188 OFFCURVE",
"513 75 OFFCURVE",
"338 75 CURVE SMOOTH",
"251 75 OFFCURVE",
"152 101 OFFCURVE",
"152 161 CURVE SMOOTH",
"152 211 OFFCURVE",
"223 236 OFFCURVE",
"296 236 CURVE SMOOTH",
"316 236 OFFCURVE",
"336 234 OFFCURVE",
"356 231 CURVE",
"372 243 LINE",
"374 255 OFFCURVE",
"376 267 OFFCURVE",
"376 281 CURVE SMOOTH",
"376 350 OFFCURVE",
"329 430 OFFCURVE",
"236 430 CURVE SMOOTH",
"177 430 OFFCURVE",
"142 397 OFFCURVE",
"142 360 CURVE SMOOTH",
"142 335 OFFCURVE",
"159 319 OFFCURVE",
"189 319 CURVE SMOOTH",
"193 319 OFFCURVE",
"196 319 OFFCURVE",
"200 320 CURVE",
"201 328 OFFCURVE",
"220 372 OFFCURVE",
"268 372 CURVE SMOOTH",
"306 372 OFFCURVE",
"340 346 OFFCURVE",
"338 295 CURVE",
"332 293 OFFCURVE",
"321 293 OFFCURVE",
"315 293 CURVE SMOOTH",
"301 293 OFFCURVE",
"115 260 OFFCURVE",
"115 136 CURVE SMOOTH",
"115 43 OFFCURVE",
"220 -13 OFFCURVE",
"340 -13 CURVE SMOOTH",
"539 -13 OFFCURVE"
);
},
{
closed = 1;
nodes = (
"195 277 OFFCURVE",
"333 284 CURVE",
"339 296 LINE",
"252 296 OFFCURVE",
"110 289 OFFCURVE",
"49 277 CURVE",
"42 263 OFFCURVE",
"36 234 OFFCURVE",
"36 212 CURVE",
"46 204 LINE",
"88 229 OFFCURVE"
);
}
);
width = 675;
}
);
unicode = 0DA0;
userData = {
com.typemytype.robofont.layerData = {
"Jan 19 17, 02:22" = {
anchors = (
{
name = rakaransaya;
x = 822;
y = 393;
}
);
components = (
);
contours = (
{
points = (
{
segmentType = curve;
smooth = 1;
x = 122.757;
y = 178;
},
{
smooth = 0;
x = 130.67;
y = 326.801;
},
{
smooth = 0;
x = 299.59;
y = 351.437;
},
{
segmentType = curve;
smooth = 1;
x = 408.553;
y = 381;
},
{
smooth = 0;
x = 417.23;
y = 381;
},
{
smooth = 0;
x = 430.553;
y = 381;
},
{
segmentType = curve;
smooth = 0;
x = 438.5;
y = 383;
},
{
smooth = 0;
x = 440.959;
y = 449;
},
{
smooth = 0;
x = 396.741;
y = 483;
},
{
segmentType = curve;
smooth = 1;
x = 347.741;
y = 483;
},
{
smooth = 0;
x = 285.741;
y = 483;
},
{
smooth = 0;
x = 260.754;
y = 426;
},
{
segmentType = curve;
smooth = 0;
x = 260.177;
y = 415;
},
{
smooth = 0;
x = 255;
y = 414;
},
{
smooth = 0;
x = 250;
y = 414;
},
{
segmentType = curve;
smooth = 1;
x = 245;
y = 414;
},
{
smooth = 0;
x = 206;
y = 414;
},
{
smooth = 0;
x = 184;
y = 436;
},
{
segmentType = curve;
smooth = 1;
x = 184;
y = 466;
},
{
smooth = 0;
x = 184;
y = 524;
},
{
smooth = 0;
x = 242;
y = 558;
},
{
segmentType = curve;
smooth = 1;
x = 300.671;
y = 558;
},
{
smooth = 0;
x = 431;
y = 558;
},
{
smooth = 0;
x = 488;
y = 454;
},
{
segmentType = curve;
smooth = 1;
x = 488;
y = 364;
},
{
smooth = 0;
x = 488;
y = 347;
},
{
smooth = 0;
x = 486;
y = 331;
},
{
segmentType = curve;
smooth = 0;
x = 482.988;
y = 316;
},
{
segmentType = line;
smooth = 0;
x = 462.15;
y = 300;
},
{
smooth = 0;
x = 437.359;
y = 304;
},
{
smooth = 0;
x = 410.465;
y = 306;
},
{
segmentType = curve;
smooth = 1;
x = 384.465;
y = 306;
},
{
smooth = 0;
x = 275;
y = 306;
},
{
smooth = 0;
x = 172;
y = 274;
},
{
segmentType = curve;
smooth = 1;
x = 172;
y = 198;
},
{
smooth = 0;
x = 172;
y = 138;
},
{
smooth = 0;
x = 286;
y = 96;
},
{
segmentType = curve;
smooth = 1;
x = 427;
y = 96;
},
{
smooth = 0;
x = 644;
y = 96;
},
{
smooth = 0;
x = 759;
y = 216;
},
{
segmentType = curve;
smooth = 1;
x = 770.597;
y = 423;
},
{
smooth = 0;
x = 781;
y = 605;
},
{
smooth = 0;
x = 646.552;
y = 715;
},
{
segmentType = curve;
smooth = 1;
x = 464.899;
y = 715;
},
{
smooth = 0;
x = 327.994;
y = 715;
},
{
smooth = 0;
x = 233.945;
y = 655;
},
{
segmentType = curve;
smooth = 0;
x = 231.755;
y = 655;
},
{
smooth = 0;
x = 231;
y = 658;
},
{
smooth = 0;
x = 230;
y = 662;
},
{
segmentType = curve;
smooth = 1;
x = 230;
y = 667;
},
{
smooth = 0;
x = 230;
y = 692;
},
{
smooth = 0;
x = 243;
y = 738;
},
{
segmentType = curve;
smooth = 0;
x = 252.048;
y = 756;
},
{
smooth = 0;
x = 297.869;
y = 777.808;
},
{
smooth = 0;
x = 370.62;
y = 798;
},
{
segmentType = curve;
smooth = 1;
x = 467.249;
y = 798;
},
{
smooth = 0;
x = 686;
y = 798;
},
{
smooth = 0;
x = 827;
y = 651;
},
{
segmentType = curve;
smooth = 1;
x = 827;
y = 424;
},
{
smooth = 0;
x = 827;
y = 169;
},
{
smooth = 0;
x = 688;
y = -17;
},
{
segmentType = curve;
smooth = 1;
x = 442;
y = -17;
},
{
smooth = 0;
x = 260;
y = -17;
},
{
smooth = 0;
x = 116.258;
y = 54;
}
);
},
{
points = (
{
segmentType = line;
smooth = 0;
x = 34.312;
y = 275;
},
{
segmentType = line;
smooth = 0;
x = 49.767;
y = 360;
},
{
smooth = 0;
x = 130.359;
y = 374.609;
},
{
smooth = 0;
x = 327.429;
y = 385.043;
},
{
segmentType = curve;
smooth = 0;
x = 439.972;
y = 384;
},
{
segmentType = line;
smooth = 0;
x = 433.186;
y = 369;
},
{
smooth = 0;
x = 252.505;
y = 359.913;
},
{
smooth = 0;
x = 100.774;
y = 298.32;
},
{
segmentType = curve;
smooth = 0;
x = 46.787;
y = 265;
}
);
}
);
lib = {
};
name = sinCa;
unicodes = (
);
width = 877;
};
};
};
},
{
glyphname = sinCha;
layers = (
{
anchors = (
{
name = _si_MaU;
position = "{570, 196}";
}
);
layerId = "51BB9282-3B82-4DF1-A67A-294D3E37D73A";
paths = (
{
closed = 1;
nodes = (
"581 70 OFFCURVE",
"581 193 CURVE SMOOTH",
"581 275 OFFCURVE",
"524 321 OFFCURVE",
"433 321 CURVE SMOOTH",
"408 321 OFFCURVE",
"383 316 OFFCURVE",
"361 305 CURVE",
"367 270 LINE",
"369 301 LINE",
"369 346 OFFCURVE",
"383 399 OFFCURVE",
"454 399 CURVE SMOOTH",
"491 399 OFFCURVE",
"532 372 OFFCURVE",
"532 317 CURVE SMOOTH",
"532 266 OFFCURVE",
"501 201 OFFCURVE",
"441 201 CURVE SMOOTH",
"358 201 OFFCURVE",
"369 287 OFFCURVE",
"369 317 CURVE SMOOTH",
"369 424 OFFCURVE",
"406 477 OFFCURVE",
"464 542 CURVE SMOOTH",
"506 591 OFFCURVE",
"596 640 OFFCURVE",
"596 640 CURVE",
"593 665 OFFCURVE",
"572 688 OFFCURVE",
"563 692 CURVE",
"419 605 OFFCURVE",
"325 476 OFFCURVE",
"325 295 CURVE SMOOTH",
"325 176 OFFCURVE",
"387 156 OFFCURVE",
"430 156 CURVE SMOOTH",
"521 156 OFFCURVE",
"569 256 OFFCURVE",
"569 341 CURVE SMOOTH",
"569 402 OFFCURVE",
"528 454 OFFCURVE",
"472 454 CURVE SMOOTH",
"380 454 OFFCURVE",
"318 341 OFFCURVE",
"330 256 CURVE",
"345 248 LINE",
"377 259 OFFCURVE",
"412 272 OFFCURVE",
"447 272 CURVE SMOOTH",
"501 272 OFFCURVE",
"545 251 OFFCURVE",
"545 199 CURVE SMOOTH",
"545 127 OFFCURVE",
"450 63 OFFCURVE",
"316 63 CURVE SMOOTH",
"160 63 OFFCURVE",
"78 116 OFFCURVE",
"78 179 CURVE SMOOTH",
"78 231 OFFCURVE",
"137 260 OFFCURVE",
"223 260 CURVE SMOOTH",
"242 260 OFFCURVE",
"263 259 OFFCURVE",
"285 256 CURVE",
"296 267 LINE",
"300 284 OFFCURVE",
"302 304 OFFCURVE",
"302 324 CURVE SMOOTH",
"302 387 OFFCURVE",
"277 454 OFFCURVE",
"184 454 CURVE SMOOTH",
"123 454 OFFCURVE",
"85 420 OFFCURVE",
"85 382 CURVE SMOOTH",
"85 345 OFFCURVE",
"112 332 OFFCURVE",
"138 330 CURVE",
"146 361 OFFCURVE",
"176 403 OFFCURVE",
"218 403 CURVE SMOOTH",
"252 403 OFFCURVE",
"267 379 OFFCURVE",
"267 348 CURVE SMOOTH",
"267 315 OFFCURVE",
"246 295 OFFCURVE",
"236 286 CURVE",
"273 316 LINE",
"262 317 OFFCURVE",
"250 318 OFFCURVE",
"239 318 CURVE SMOOTH",
"143 318 OFFCURVE",
"46 261 OFFCURVE",
"46 169 CURVE SMOOTH",
"46 78 OFFCURVE",
"117 -20 OFFCURVE",
"321 -20 CURVE SMOOTH",
"464 -20 OFFCURVE"
);
}
);
width = 605;
}
);
unicode = 0DA1;
},
{
glyphname = sinDa;
lastChange = "2018-02-16 18:09:12 +0000";
layers = (
{
anchors = (
{
name = Virama;
position = "{358, 407}";
}
);
layerId = "51BB9282-3B82-4DF1-A67A-294D3E37D73A";
paths = (
{
closed = 1;
nodes = (
"370 -3 OFFCURVE",
"404 12 CURVE",
"412 30 OFFCURVE",
"418 60 OFFCURVE",
"418 90 CURVE",
"409 101 LINE",
"361 65 OFFCURVE",
"303 43 OFFCURVE",
"238 43 CURVE SMOOTH",
"138 43 OFFCURVE",
"86 78 OFFCURVE",
"86 130 CURVE SMOOTH",
"86 198 OFFCURVE",
"157 269 OFFCURVE",
"300 269 CURVE SMOOTH",
"323 269 OFFCURVE",
"375 265 OFFCURVE",
"402 261 CURVE",
"416 276 LINE",
"422 365 OFFCURVE",
"366 479 OFFCURVE",
"249 479 CURVE SMOOTH",
"171 479 OFFCURVE",
"117 439 OFFCURVE",
"117 383 CURVE SMOOTH",
"117 353 OFFCURVE",
"139 337 OFFCURVE",
"173 337 CURVE SMOOTH",
"184 337 OFFCURVE",
"194 339 OFFCURVE",
"207 341 CURVE",
"205 348 OFFCURVE",
"205 354 OFFCURVE",
"205 362 CURVE SMOOTH",
"205 405 OFFCURVE",
"241 428 OFFCURVE",
"278 428 CURVE SMOOTH",
"331 428 OFFCURVE",
"350 380 OFFCURVE",
"355 326 CURVE",
"342 329 OFFCURVE",
"329 330 OFFCURVE",
"303 330 CURVE SMOOTH",
"148 330 OFFCURVE",
"45 242 OFFCURVE",
"45 127 CURVE SMOOTH",
"45 36 OFFCURVE",
"121 -32 OFFCURVE",
"241 -32 CURVE SMOOTH",
"318 -32 OFFCURVE"
);
},
{
closed = 1;
nodes = (
"422 -181 OFFCURVE",
"414 -169 CURVE",
"383 -183 OFFCURVE",
"359 -194 OFFCURVE",
"316 -194 CURVE SMOOTH",
"246 -194 OFFCURVE",
"227 -158 OFFCURVE",
"227 -130 CURVE SMOOTH",
"227 -59 OFFCURVE",
"322 -21 OFFCURVE",
"360 -7 CURVE",
"321 3 LINE",
"265 -21 OFFCURVE",
"163 -70 OFFCURVE",
"163 -164 CURVE SMOOTH",
"163 -206 OFFCURVE",
"201 -263 OFFCURVE",
"325 -263 CURVE SMOOTH",
"370 -263 OFFCURVE",
"416 -252 OFFCURVE",
"429 -247 CURVE",
"432 -206 OFFCURVE"
);
}
);
width = 483;
}
);
unicode = 0DAF;
},
{
glyphname = sinDda;
lastChange = "2018-02-16 18:15:29 +0000";
layers = (
{
layerId = "51BB9282-3B82-4DF1-A67A-294D3E37D73A";
paths = (
{
closed = 1;
nodes = (
"171 270 OFFCURVE",
"294 277 CURVE",
"328 289 LINE",
"240 290 OFFCURVE",
"96 281 OFFCURVE",
"32 269 CURVE",
"25 248 OFFCURVE",
"21 226 OFFCURVE",
"20 203 CURVE",
"30 196 LINE",
"67 222 OFFCURVE"
);
},
{
closed = 1;
nodes = (
"147 -15 OFFCURVE",
"232 -15 CURVE SMOOTH",
"321 -15 OFFCURVE",
"363 49 OFFCURVE",
"366 93 CURVE",
"368 95 OFFCURVE",
"361 90 OFFCURVE",
"362 92 CURVE",
"361 86 OFFCURVE",
"361 80 OFFCURVE",
"361 75 CURVE SMOOTH",
"361 30 OFFCURVE",
"392 -19 OFFCURVE",
"466 -19 CURVE SMOOTH",
"595 -19 OFFCURVE",
"652 127 OFFCURVE",
"652 255 CURVE SMOOTH",
"652 444 OFFCURVE",
"542 601 OFFCURVE",
"331 601 CURVE SMOOTH",
"282 601 OFFCURVE",
"198 586 OFFCURVE",
"158 567 CURVE",
"148 551 OFFCURVE",
"144 517 OFFCURVE",
"146 496 CURVE",
"154 500 OFFCURVE",
"244 533 OFFCURVE",
"331 533 CURVE SMOOTH",
"469 533 OFFCURVE",
"607 458 OFFCURVE",
"607 284 CURVE SMOOTH",
"607 182 OFFCURVE",
"559 63 OFFCURVE",
"462 63 CURVE SMOOTH",
"411 63 OFFCURVE",
"381 96 OFFCURVE",
"381 146 CURVE SMOOTH",
"381 155 OFFCURVE",
"382 160 OFFCURVE",
"383 167 CURVE",
"363 162 LINE",
"347 105 OFFCURVE",
"311 64 OFFCURVE",
"241 64 CURVE SMOOTH",
"174 64 OFFCURVE",
"138 101 OFFCURVE",
"138 146 CURVE SMOOTH",
"138 207 OFFCURVE",
"198 240 OFFCURVE",
"257 240 CURVE SMOOTH",
"287 240 OFFCURVE",
"306 236 OFFCURVE",
"327 227 CURVE",
"339 235 LINE",
"341 244 OFFCURVE",
"341 248 OFFCURVE",
"341 268 CURVE SMOOTH",
"341 356 OFFCURVE",
"284 424 OFFCURVE",
"197 424 CURVE SMOOTH",
"152 424 OFFCURVE",
"111 399 OFFCURVE",
"111 356 CURVE SMOOTH",
"111 333 OFFCURVE",
"129 310 OFFCURVE",
"171 314 CURVE",
"171 330 OFFCURVE",
"186 370 OFFCURVE",
"237 370 CURVE SMOOTH",
"259 370 OFFCURVE",
"296 358 OFFCURVE",
"296 311 CURVE SMOOTH",
"296 304 OFFCURVE",
"295 295 OFFCURVE",
"293 286 CURVE",
"288 284 OFFCURVE",
"286 284 OFFCURVE",
"275 282 CURVE SMOOTH",
"198 268 OFFCURVE",
"91 240 OFFCURVE",
"91 118 CURVE SMOOTH",
"91 44 OFFCURVE"
);
}
);
width = 696;
}
);
unicode = 0DA9;
},
{
glyphname = sinDdha;
lastChange = "2018-02-16 14:48:44 +0000";
layers = (
{
layerId = "51BB9282-3B82-4DF1-A67A-294D3E37D73A";
paths = (
{
closed = 1;
nodes = (
"522 467 OFFCURVE",
"489 461 OFFCURVE",
"453 461 CURVE SMOOTH",
"318 461 OFFCURVE",
"290 538 OFFCURVE",
"290 630 CURVE",
"260 614 LINE",
"258 606 OFFCURVE",
"255 585 OFFCURVE",
"255 567 CURVE SMOOTH",
"255 466 OFFCURVE",
"314 417 OFFCURVE",
"412 417 CURVE SMOOTH",
"479 417 OFFCURVE",
"535 440 OFFCURVE",
"552 452 CURVE",
"543 476 LINE"
);
},
{
closed = 1;
nodes = (
"171 270 OFFCURVE",
"294 277 CURVE",
"328 289 LINE",
"240 290 OFFCURVE",
"96 281 OFFCURVE",
"32 269 CURVE",
"25 248 OFFCURVE",
"21 226 OFFCURVE",
"20 203 CURVE",
"30 196 LINE",
"67 222 OFFCURVE"
);
},
{
closed = 1;
nodes = (
"296 304 OFFCURVE",
"295 295 OFFCURVE",
"293 286 CURVE",
"288 284 OFFCURVE",
"286 284 OFFCURVE",
"275 282 CURVE SMOOTH",
"198 268 OFFCURVE",
"91 240 OFFCURVE",
"91 118 CURVE SMOOTH",
"91 39 OFFCURVE",
"147 -15 OFFCURVE",
"232 -15 CURVE SMOOTH",
"321 -15 OFFCURVE",
"363 49 OFFCURVE",
"366 93 CURVE",
"362 92 LINE",
"361 86 OFFCURVE",
"361 80 OFFCURVE",
"361 75 CURVE SMOOTH",
"361 30 OFFCURVE",
"392 -19 OFFCURVE",
"466 -19 CURVE SMOOTH",
"595 -19 OFFCURVE",
"645 146 OFFCURVE",
"645 269 CURVE SMOOTH",
"645 487 OFFCURVE",
"451 630 OFFCURVE",
"290 630 CURVE",
"264 558 LINE",
"272 559 OFFCURVE",
"280 559 OFFCURVE",
"288 559 CURVE SMOOTH",
"437 559 OFFCURVE",
"605 451 OFFCURVE",
"605 268 CURVE SMOOTH",
"605 185 OFFCURVE",
"566 63 OFFCURVE",
"462 63 CURVE SMOOTH",
"411 63 OFFCURVE",
"381 96 OFFCURVE",
"381 146 CURVE SMOOTH",
"381 155 OFFCURVE",
"382 160 OFFCURVE",
"383 167 CURVE",
"363 162 LINE",
"347 105 OFFCURVE",
"311 64 OFFCURVE",
"233 64 CURVE SMOOTH",
"174 64 OFFCURVE",
"138 92 OFFCURVE",
"138 146 CURVE SMOOTH",
"138 207 OFFCURVE",
"198 240 OFFCURVE",
"257 240 CURVE SMOOTH",
"287 240 OFFCURVE",
"306 236 OFFCURVE",
"327 227 CURVE",
"339 235 LINE",
"341 244 OFFCURVE",
"341 248 OFFCURVE",
"341 268 CURVE SMOOTH",
"341 356 OFFCURVE",
"284 424 OFFCURVE",
"197 424 CURVE SMOOTH",
"152 424 OFFCURVE",
"111 399 OFFCURVE",
"111 356 CURVE SMOOTH",
"111 333 OFFCURVE",
"129 310 OFFCURVE",
"171 314 CURVE",
"171 330 OFFCURVE",
"186 370 OFFCURVE",
"237 370 CURVE SMOOTH",
"259 370 OFFCURVE",
"296 358 OFFCURVE",
"296 311 CURVE SMOOTH"
);
}
);
width = 695;
}
);
rightMetricsKey = "=sinTta";
unicode = 0DAA;
},
{
color = 5;
glyphname = sinDha;
lastChange = "2018-02-16 12:36:04 +0000";
layers = (
{
layerId = "51BB9282-3B82-4DF1-A67A-294D3E37D73A";
paths = (
{
closed = 1;
nodes = (
"598 116 OFFCURVE",
"598 259 CURVE SMOOTH",
"598 456 OFFCURVE",
"460 597 OFFCURVE",
"273 597 CURVE SMOOTH",
"220 597 OFFCURVE",
"164 586 OFFCURVE",
"134 573 CURVE",
"120 551 OFFCURVE",
"113 513 OFFCURVE",
"119 498 CURVE",
"139 508 OFFCURVE",
"189 525 OFFCURVE",
"266 525 CURVE SMOOTH",
"387 525 OFFCURVE",
"552 473 OFFCURVE",
"552 280 CURVE SMOOTH",
"552 150 OFFCURVE",
"497 65 OFFCURVE",
"429 65 CURVE SMOOTH",
"392 65 OFFCURVE",
"341 80 OFFCURVE",
"341 142 CURVE SMOOTH",
"341 147 OFFCURVE",
"341 153 OFFCURVE",
"342 158 CURVE",
"323 154 LINE",
"307 110 OFFCURVE",
"273 69 OFFCURVE",
"213 69 CURVE SMOOTH",
"125 69 OFFCURVE",
"88 120 OFFCURVE",
"88 169 CURVE SMOOTH",
"88 243 OFFCURVE",
"153 290 OFFCURVE",
"251 291 CURVE SMOOTH",
"275 291 OFFCURVE",
"301 288 OFFCURVE",
"328 282 CURVE",
"339 295 LINE",
"337 317 OFFCURVE",
"329 343 OFFCURVE",
"319 362 CURVE",
"308 363 OFFCURVE",
"296 364 OFFCURVE",
"285 364 CURVE SMOOTH",
"164 364 OFFCURVE",
"50 292 OFFCURVE",
"50 147 CURVE SMOOTH",
"50 51 OFFCURVE",
"114 -15 OFFCURVE",
"203 -15 CURVE SMOOTH",
"288 -15 OFFCURVE",
"324 48 OFFCURVE",
"329 83 CURVE",
"321 105 LINE",
"320 99 OFFCURVE",
"319 93 OFFCURVE",
"319 87 CURVE SMOOTH",
"319 39 OFFCURVE",
"355 -16 OFFCURVE",
"438 -16 CURVE SMOOTH",
"545 -16 OFFCURVE"
);
}
);
width = 648;
}
);
unicode = 0DB0;
},
{
glyphname = sinE;
lastChange = "2018-05-12 12:51:16 +0000";
layers = (
{
layerId = "51BB9282-3B82-4DF1-A67A-294D3E37D73A";
paths = (
{
closed = 1;
nodes = (
"628 108 OFFCURVE",
"628 283 CURVE SMOOTH",
"628 488 OFFCURVE",
"459 630 OFFCURVE",
"298 630 CURVE",
"272 566 LINE",
"416 566 OFFCURVE",
"588 465 OFFCURVE",
"588 298 CURVE SMOOTH",
"588 170 OFFCURVE",
"505 59 OFFCURVE",
"356 55 CURVE SMOOTH",
"246 52 OFFCURVE",
"155 78 OFFCURVE",
"155 135 CURVE SMOOTH",
"155 192 OFFCURVE",
"228 220 OFFCURVE",
"306 220 CURVE SMOOTH",
"326 220 OFFCURVE",
"347 219 OFFCURVE",
"367 216 CURVE",
"382 228 LINE",
"383 235 OFFCURVE",
"384 246 OFFCURVE",
"384 256 CURVE SMOOTH",
"384 327 OFFCURVE",
"336 414 OFFCURVE",
"232 414 CURVE SMOOTH",
"187 414 OFFCURVE",
"146 389 OFFCURVE",
"146 346 CURVE SMOOTH",
"146 319 OFFCURVE",
"167 300 OFFCURVE",
"206 304 CURVE",
"206 313 OFFCURVE",
"223 357 OFFCURVE",
"271 357 CURVE SMOOTH",
"309 357 OFFCURVE",
"344 326 OFFCURVE",
"345 275 CURVE",
"232 272 OFFCURVE",
"114 225 OFFCURVE",
"114 122 CURVE SMOOTH",
"114 34 OFFCURVE",
"201 -34 OFFCURVE",
"347 -32 CURVE SMOOTH",
"522 -29 OFFCURVE"
);
},
{
closed = 1;
nodes = (
"184 256 OFFCURVE",
"307 263 CURVE",
"351 275 LINE",
"263 275 OFFCURVE",
"107 271 OFFCURVE",
"43 259 CURVE",
"37 242 OFFCURVE",
"34 212 OFFCURVE",
"33 189 CURVE",
"43 181 LINE",
"80 208 OFFCURVE"
);
},
{
closed = 1;
nodes = (
"530 467 OFFCURVE",
"497 461 OFFCURVE",
"461 461 CURVE SMOOTH",
"410 461 OFFCURVE",
"357 474 OFFCURVE",
"327 513 CURVE SMOOTH",
"301 547 OFFCURVE",
"302 603 OFFCURVE",
"298 630 CURVE",
"267 614 LINE",
"265 605 OFFCURVE",
"262 584 OFFCURVE",
"262 565 CURVE SMOOTH",
"262 537 OFFCURVE",
"268 508 OFFCURVE",
"281 482 CURVE SMOOTH",
"305 434 OFFCURVE",
"362 417 OFFCURVE",
"420 417 CURVE SMOOTH",
"477 417 OFFCURVE",
"535 434 OFFCURVE",
"559 455 CURVE",
"551 476 LINE"
);
}
);
width = 668;
}
);
unicode = 0D91;
},
{
glyphname = sinFa;
layers = (
{
layerId = "51BB9282-3B82-4DF1-A67A-294D3E37D73A";
paths = (
{
closed = 1;
nodes = (
"289 -12 OFFCURVE",
"317 0 CURVE",
"322 15 OFFCURVE",
"320 58 OFFCURVE",
"316 76 CURVE",
"285 63 OFFCURVE",
"252 63 OFFCURVE",
"230 64 CURVE SMOOTH",
"153 67 OFFCURVE",
"64 116 OFFCURVE",
"64 202 CURVE SMOOTH",
"64 291 OFFCURVE",
"121 349 OFFCURVE",
"203 349 CURVE SMOOTH",
"279 349 OFFCURVE",
"344 282 OFFCURVE",
"334 232 CURVE",
"341 232 OFFCURVE",
"350 233 OFFCURVE",
"357 236 CURVE",
"376 308 OFFCURVE",
"436 347 OFFCURVE",
"490 346 CURVE SMOOTH",
"551 345 OFFCURVE",
"616 308 OFFCURVE",
"617 231 CURVE SMOOTH",
"618 175 OFFCURVE",
"586 61 OFFCURVE",
"414 64 CURVE",
"408 54 LINE",
"412 31 OFFCURVE",
"428 -1 OFFCURVE",
"438 -13 CURVE",
"595 -11 OFFCURVE",
"652 127 OFFCURVE",
"654 232 CURVE SMOOTH",
"657 386 OFFCURVE",
"565 440 OFFCURVE",
"503 439 CURVE SMOOTH",
"424 438 OFFCURVE",
"370 372 OFFCURVE",
"348 313 CURVE",
"354 309 LINE",
"362 362 OFFCURVE",
"305 440 OFFCURVE",
"224 440 CURVE SMOOTH",
"115 440 OFFCURVE",
"30 334 OFFCURVE",
"30 214 CURVE SMOOTH",
"30 85 OFFCURVE",
"109 -10 OFFCURVE",
"232 -14 CURVE SMOOTH",
"263 -15 OFFCURVE"
);
}
);
width = 689;
}
);
rightMetricsKey = sinYa;
unicode = 0DC6;
},
{
color = 5;
glyphname = sinGa;
lastChange = "2018-02-16 12:36:04 +0000";
layers = (
{
layerId = "51BB9282-3B82-4DF1-A67A-294D3E37D73A";
paths = (
{
closed = 1;
nodes = (
"713 117 OFFCURVE",
"713 248 CURVE SMOOTH",
"713 371 OFFCURVE",
"628 454 OFFCURVE",
"519 454 CURVE SMOOTH",
"378 454 OFFCURVE",
"293 333 OFFCURVE",
"288 170 CURVE",
"293 169 OFFCURVE",
"297 169 OFFCURVE",
"302 169 CURVE SMOOTH",
"309 169 OFFCURVE",
"316 169 OFFCURVE",
"324 170 CURVE",
"322 177 OFFCURVE",
"321 190 OFFCURVE",
"321 197 CURVE SMOOTH",
"321 305 OFFCURVE",
"382 366 OFFCURVE",
"498 366 CURVE SMOOTH",
"576 366 OFFCURVE",
"670 323 OFFCURVE",
"671 226 CURVE SMOOTH",
"671 132 OFFCURVE",
"612 76 OFFCURVE",
"513 76 CURVE SMOOTH",
"497 76 OFFCURVE",
"475 78 OFFCURVE",
"458 82 CURVE",
"448 76 LINE",
"448 59 OFFCURVE",
"468 11 OFFCURVE",
"487 -6 CURVE",
"638 -3 OFFCURVE"
);
},
{
closed = 1;
nodes = (
"439 79 OFFCURVE",
"439 173 CURVE SMOOTH",
"439 247 OFFCURVE",
"388 302 OFFCURVE",
"323 301 CURVE",
"319 249 LINE",
"349 248 OFFCURVE",
"405 230 OFFCURVE",
"405 180 CURVE SMOOTH",
"405 113 OFFCURVE",
"320 80 OFFCURVE",
"252 80 CURVE SMOOTH",
"155 80 OFFCURVE",
"80 130 OFFCURVE",
"80 215 CURVE SMOOTH",
"80 297 OFFCURVE",
"142 356 OFFCURVE",
"251 356 CURVE",
"256 363 OFFCURVE",
"261 408 OFFCURVE",
"261 432 CURVE SMOOTH",
"261 438 OFFCURVE",
"261 444 OFFCURVE",
"260 447 CURVE",
"154 446 OFFCURVE",
"44 357 OFFCURVE",
"44 194 CURVE SMOOTH",
"44 71 OFFCURVE",
"124 -9 OFFCURVE",
"248 -9 CURVE SMOOTH",
"372 -9 OFFCURVE"
);
}
);
width = 757;
}
);
unicode = 0D9C;
},
{
glyphname = sinGha;
layers = (
{
layerId = "51BB9282-3B82-4DF1-A67A-294D3E37D73A";
paths = (
{
closed = 1;
nodes = (
"653 47 OFFCURVE",
"653 158 CURVE SMOOTH",
"653 253 OFFCURVE",
"585 316 OFFCURVE",
"485 316 CURVE SMOOTH",
"446 316 OFFCURVE",
"432 306 OFFCURVE",
"401 295 CURVE",
"456 282 LINE",
"449 290 OFFCURVE",
"436 312 OFFCURVE",
"436 335 CURVE SMOOTH",
"436 390 OFFCURVE",
"467 417 OFFCURVE",
"509 417 CURVE SMOOTH",
"547 417 OFFCURVE",
"584 392 OFFCURVE",
"584 350 CURVE SMOOTH",
"584 322 OFFCURVE",
"561 288 OFFCURVE",
"557 282 CURVE",
"575 276 LINE",
"604 290 OFFCURVE",
"640 325 OFFCURVE",
"640 368 CURVE SMOOTH",
"640 419 OFFCURVE",
"605 462 OFFCURVE",
"533 462 CURVE SMOOTH",
"432 462 OFFCURVE",
"376 374 OFFCURVE",
"378 252 CURVE",
"389 243 LINE",
"421 255 OFFCURVE",
"461 263 OFFCURVE",
"493 263 CURVE SMOOTH",
"549 263 OFFCURVE",
"617 238 OFFCURVE",
"617 171 CURVE SMOOTH",
"617 100 OFFCURVE",
"566 59 OFFCURVE",
"486 59 CURVE SMOOTH",
"424 59 OFFCURVE",
"411 84 OFFCURVE",
"411 112 CURVE SMOOTH",
"411 128 OFFCURVE",
"414 144 OFFCURVE",
"417 158 CURVE",
"403 164 OFFCURVE",
"386 167 OFFCURVE",
"368 167 CURVE SMOOTH",
"343 167 OFFCURVE",
"319 162 OFFCURVE",
"302 151 CURVE",
"303 105 OFFCURVE",
"272 59 OFFCURVE",
"216 59 CURVE SMOOTH",
"139 59 OFFCURVE",
"107 89 OFFCURVE",
"107 134 CURVE SMOOTH",
"107 190 OFFCURVE",
"153 249 OFFCURVE",
"261 249 CURVE SMOOTH",
"280 249 OFFCURVE",
"300 247 OFFCURVE",
"323 243 CURVE",
"335 254 LINE",
"340 272 OFFCURVE",
"343 292 OFFCURVE",
"343 313 CURVE SMOOTH",
"343 385 OFFCURVE",
"308 463 OFFCURVE",
"219 463 CURVE SMOOTH",
"156 463 OFFCURVE",
"109 424 OFFCURVE",
"109 382 CURVE SMOOTH",
"109 350 OFFCURVE",
"140 333 OFFCURVE",
"164 332 CURVE",
"172 370 OFFCURVE",
"196 409 OFFCURVE",
"239 409 CURVE SMOOTH",
"276 409 OFFCURVE",
"300 386 OFFCURVE",
"300 346 CURVE SMOOTH",
"300 323 OFFCURVE",
"290 310 OFFCURVE",
"283 300 CURVE",
"213 299 LINE",
"210 298 OFFCURVE",
"212 302 OFFCURVE",
"210 301 CURVE",
"137 274 OFFCURVE",
"72 206 OFFCURVE",
"72 122 CURVE SMOOTH",
"72 33 OFFCURVE",
"116 -20 OFFCURVE",
"199 -20 CURVE SMOOTH",
"323 -20 OFFCURVE",
"329 98 OFFCURVE",
"330 107 CURVE",
"332 108 OFFCURVE",
"342 112 OFFCURVE",
"358 112 CURVE SMOOTH",
"361 112 OFFCURVE",
"374 111 OFFCURVE",
"377 108 CURVE",
"374 94 OFFCURVE",
"373 72 OFFCURVE",
"373 69 CURVE SMOOTH",
"373 31 OFFCURVE",
"404 -22 OFFCURVE",
"489 -22 CURVE SMOOTH",
"591 -22 OFFCURVE"
);
},
{
closed = 1;
nodes = (
"152 283 OFFCURVE",
"274 283 CURVE SMOOTH",
"303 283 LINE",
"316 305 LINE",
"290 305 LINE SMOOTH",
"204 305 OFFCURVE",
"78 302 OFFCURVE",
"22 292 CURVE",
"7 226 LINE",
"16 219 LINE",
"55 243 OFFCURVE"
);
}
);
width = 697;
}
);
unicode = 0D9D;
},
{
color = 5;
glyphname = sinHa;
lastChange = "2018-05-12 11:33:36 +0000";
layers = (
{
anchors = (
{
name = Virama;
position = "{623, 413}";
}
);
layerId = "51BB9282-3B82-4DF1-A67A-294D3E37D73A";
paths = (
{
closed = 1;
nodes = (
"658 -5 OFFCURVE",
"721 96 OFFCURVE",
"721 243 CURVE SMOOTH",
"721 370 OFFCURVE",
"651 454 OFFCURVE",
"529 454 CURVE SMOOTH",
"406 454 OFFCURVE",
"316 344 OFFCURVE",
"305 170 CURVE",
"310 169 OFFCURVE",
"319 169 OFFCURVE",
"323 169 CURVE SMOOTH",
"330 169 OFFCURVE",
"334 169 OFFCURVE",
"341 170 CURVE",
"335 286 OFFCURVE",
"390 373 OFFCURVE",
"502 373 CURVE SMOOTH",
"601 373 OFFCURVE",
"676 306 OFFCURVE",
"676 223 CURVE SMOOTH",
"676 139 OFFCURVE",
"624 79 OFFCURVE",
"535 75 CURVE SMOOTH",
"503 74 OFFCURVE",
"489 75 OFFCURVE",
"464 79 CURVE",
"455 73 LINE",
"454 55 OFFCURVE",
"461 9 OFFCURVE",
"479 -8 CURVE"
);
},
{
closed = 1;
nodes = (
"31 52 OFFCURVE",
"114 -8 OFFCURVE",
"225 -8 CURVE SMOOTH",
"338 -8 OFFCURVE",
"434 63 OFFCURVE",
"434 166 CURVE SMOOTH",
"434 245 OFFCURVE",
"380 276 OFFCURVE",
"340 275 CURVE",
"332 227 LINE",
"347 226 OFFCURVE",
"405 211 OFFCURVE",
"405 166 CURVE SMOOTH",
"405 104 OFFCURVE",
"315 78 OFFCURVE",
"232 78 CURVE SMOOTH",
"151 78 OFFCURVE",
"68 104 OFFCURVE",
"68 166 CURVE SMOOTH",
"68 227 OFFCURVE",
"128 263 OFFCURVE",
"212 263 CURVE SMOOTH",
"230 263 OFFCURVE",
"250 260 OFFCURVE",
"271 257 CURVE",
"281 269 LINE",
"283 282 OFFCURVE",
"285 297 OFFCURVE",
"285 313 CURVE SMOOTH",
"285 379 OFFCURVE",
"259 455 OFFCURVE",
"160 455 CURVE SMOOTH",
"97 455 OFFCURVE",
"64 417 OFFCURVE",
"64 380 CURVE SMOOTH",
"64 347 OFFCURVE",
"95 333 OFFCURVE",
"119 332 CURVE",
"126 363 OFFCURVE",
"154 405 OFFCURVE",
"196 405 CURVE SMOOTH",
"228 405 OFFCURVE",
"244 384 OFFCURVE",
"244 350 CURVE SMOOTH",
"244 315 OFFCURVE",
"227 297 OFFCURVE",
"215 279 CURVE",
"248 317 LINE",
"236 320 OFFCURVE",
"225 320 OFFCURVE",
"213 320 CURVE SMOOTH",
"114 320 OFFCURVE",
"31 255 OFFCURVE",
"31 152 CURVE SMOOTH"
);
}
);
width = 751;
}
);
unicode = 0DC4;
},
{
glyphname = sinI;
layers = (
{
layerId = "51BB9282-3B82-4DF1-A67A-294D3E37D73A";
paths = (
{
closed = 1;
nodes = (
"621 64 OFFCURVE",
"621 244 CURVE SMOOTH",
"621 403 OFFCURVE",
"507 491 OFFCURVE",
"366 490 CURVE SMOOTH",
"237 489 OFFCURVE",
"99 406 OFFCURVE",
"99 265 CURVE SMOOTH",
"99 171 OFFCURVE",
"155 68 OFFCURVE",
"288 68 CURVE SMOOTH",
"412 68 OFFCURVE",
"458 160 OFFCURVE",
"458 230 CURVE SMOOTH",
"458 300 OFFCURVE",
"409 332 OFFCURVE",
"360 333 CURVE SMOOTH",
"302 334 OFFCURVE",
"264 296 OFFCURVE",
"264 245 CURVE SMOOTH",
"264 207 OFFCURVE",
"286 175 OFFCURVE",
"343 174 CURVE SMOOTH",
"410 173 OFFCURVE",
"430 213 OFFCURVE",
"432 218 CURVE",
"434 245 LINE",
"434 245 OFFCURVE",
"397 213 OFFCURVE",
"354 213 CURVE SMOOTH",
"321 213 OFFCURVE",
"296 230 OFFCURVE",
"296 246 CURVE SMOOTH",
"296 269 OFFCURVE",
"320 279 OFFCURVE",
"351 279 CURVE SMOOTH",
"385 279 OFFCURVE",
"428 259 OFFCURVE",
"428 217 CURVE SMOOTH",
"428 178 OFFCURVE",
"366 144 OFFCURVE",
"288 144 CURVE SMOOTH",
"205 144 OFFCURVE",
"130 197 OFFCURVE",
"130 273 CURVE SMOOTH",
"130 364 OFFCURVE",
"220 405 OFFCURVE",
"323 405 CURVE SMOOTH",
"488 405 OFFCURVE",
"585 316 OFFCURVE",
"585 218 CURVE SMOOTH",
"585 101 OFFCURVE",
"416 9 OFFCURVE",
"255 12 CURVE",
"254 -10 OFFCURVE",
"262 -38 OFFCURVE",
"271 -58 CURVE",
"488 -31 OFFCURVE"
);
},
{
closed = 1;
nodes = (
"286 -255 OFFCURVE",
"307 -255 CURVE SMOOTH",
"461 -253 OFFCURVE",
"515 -173 OFFCURVE",
"515 -115 CURVE SMOOTH",
"515 -27 OFFCURVE",
"420 -32 OFFCURVE",
"355 -41 CURVE",
"268 -30 LINE",
"271 -58 LINE",
"349 -58 OFFCURVE",
"463 -83 OFFCURVE",
"463 -140 CURVE SMOOTH",
"463 -170 OFFCURVE",
"441 -191 OFFCURVE",
"365 -191 CURVE SMOOTH",
"311 -191 OFFCURVE",
"261 -174 OFFCURVE",
"233 -165 CURVE",
"228 -192 OFFCURVE",
"232 -228 OFFCURVE",
"242 -249 CURVE",
"265 -252 OFFCURVE"
);
}
);
width = 668;
}
);
unicode = 0D89;
userData = {
com.typemytype.robofont.layerData = {
"Regular Nov 5 16, 14:31" = {
anchors = (
);
components = (
);
contours = (
{
points = (
{
segmentType = curve;
smooth = 0;
x = 275.133;
y = -320;
},
{
smooth = 0;
x = 493.49;
y = -351.212;
},
{
smooth = 0;
x = 638.41;
y = -272.795;
},
{
segmentType = curve;
smooth = 1;
x = 643.204;
y = -166;
},
{
smooth = 0;
x = 648.672;
y = -44.881;
},
{
smooth = 0;
x = 507.437;
y = -28;
},
{
segmentType = curve;
smooth = 0;
x = 507.437;
y = -28;
},
{
segmentType = line;
smooth = 0;
x = 368.432;
y = -19;
},
{
segmentType = line;
smooth = 0;
x = 363.55;
y = -74;
},
{
smooth = 0;
x = 491.874;
y = -73.686;
},
{
smooth = 0;
x = 543.527;
y = -89.077;
},
{
segmentType = curve;
smooth = 1;
x = 542.938;
y = -152;
},
{
smooth = 0;
x = 542.344;
y = -215.458;
},
{
smooth = 0;
x = 439.443;
y = -280.771;
},
{
segmentType = curve;
smooth = 0;
x = 263.326;
y = -240;
},
{
smooth = 0;
x = 252.43;
y = -267.338;
},
{
smooth = 0;
x = 267.87;
y = -310.09;
}
);
},
{
points = (
{
segmentType = curve;
smooth = 1;
x = 104.774;
y = 321;
},
{
smooth = 0;
x = 105;
y = 162;
},
{
smooth = 0;
x = 202.184;
y = 78.812;
},
{
segmentType = curve;
smooth = 1;
x = 338.563;
y = 78;
},
{
smooth = 0;
x = 496.363;
y = 77.06;
},
{
smooth = 0;
x = 575.313;
y = 169.413;
},
{
segmentType = curve;
smooth = 1;
x = 582.102;
y = 260;
},
{
smooth = 0;
x = 588.84;
y = 349.074;
},
{
smooth = 0;
x = 531.985;
y = 414.08;
},
{
segmentType = curve;
smooth = 1;
x = 462.226;
y = 415;
},
{
smooth = 0;
x = 388.605;
y = 416.035;
},
{
smooth = 0;
x = 335.713;
y = 367.065;
},
{
segmentType = curve;
smooth = 1;
x = 332.355;
y = 303;
},
{
smooth = 0;
x = 329.211;
y = 243;
},
{
smooth = 0;
x = 366.598;
y = 194.619;
},
{
segmentType = curve;
smooth = 1;
x = 445.643;
y = 194;
},
{
smooth = 0;
x = 532.394;
y = 193.32;
},
{
smooth = 0;
x = 559.25;
y = 263;
},
{
segmentType = curve;
smooth = 0;
x = 560.626;
y = 270;
},
{
segmentType = line;
smooth = 1;
x = 549.779;
y = 292;
},
{
smooth = 0;
x = 549.779;
y = 292;
},
{
smooth = 0;
x = 515.556;
y = 239;
},
{
segmentType = curve;
smooth = 1;
x = 460.001;
y = 239;
},
{
smooth = 0;
x = 415.796;
y = 239;
},
{
smooth = 0;
x = 385.154;
y = 261;
},
{
segmentType = curve;
smooth = 1;
x = 387.041;
y = 297;
},
{
smooth = 0;
x = 388.57;
y = 326.177;
},
{
smooth = 0;
x = 417.233;
y = 349;
},
{
segmentType = curve;
smooth = 1;
x = 455.767;
y = 349;
},
{
smooth = 0;
x = 501.463;
y = 349;
},
{
smooth = 0;
x = 545.692;
y = 309.436;
},
{
segmentType = curve;
smooth = 1;
x = 542.683;
y = 252;
},
{
smooth = 0;
x = 539.832;
y = 197.604;
},
{
smooth = 0;
x = 446.919;
y = 157.347;
},
{
segmentType = curve;
smooth = 1;
x = 335.28;
y = 168;
},
{
smooth = 0;
x = 240.734;
y = 177.022;
},
{
smooth = 0;
x = 161;
y = 226;
},
{
segmentType = curve;
smooth = 1;
x = 159;
y = 339;
},
{
smooth = 0;
x = 156;
y = 457;
},
{
smooth = 0;
x = 316;
y = 529;
},
{
segmentType = curve;
smooth = 1;
x = 487;
y = 522;
},
{
smooth = 0;
x = 662;
y = 515;
},
{
smooth = 0;
x = 733.907;
y = 388.635;
},
{
segmentType = curve;
smooth = 1;
x = 728.73;
y = 262;
},
{
smooth = 0;
x = 722.053;
y = 98.634;
},
{
smooth = 0;
x = 552.276;
y = -7.808;
},
{
segmentType = curve;
smooth = 0;
x = 331.166;
y = -5;
},
{
smooth = 0;
x = 326.07;
y = -25.909;
},
{
smooth = 0;
x = 334.116;
y = -63.182;
},
{
segmentType = curve;
smooth = 0;
x = 352.497;
y = -75;
},
{
smooth = 0;
x = 630.956;
y = -66.199;
},
{
smooth = 0;
x = 806;
y = 80;
},
{
segmentType = curve;
smooth = 1;
x = 806.932;
y = 314;
},
{
smooth = 0;
x = 808;
y = 522;
},
{
smooth = 0;
x = 643.643;
y = 623;
},
{
segmentType = curve;
smooth = 1;
x = 464.65;
y = 623;
},
{
smooth = 0;
x = 278.058;
y = 623;
},
{
smooth = 0;
x = 105;
y = 515;
}
);
}
);
lib = {
};
name = sinI;
unicodes = (
);
width = 867;
};
};
};
},
{
color = 4;
glyphname = sinIi;
lastChange = "2018-02-16 12:36:04 +0000";
layers = (
{
components = (
{
name = sinRa;
}
);
layerId = "51BB9282-3B82-4DF1-A67A-294D3E37D73A";
paths = (
{
closed = 1;
nodes = (
"204 571 OFFCURVE",
"207 596 CURVE SMOOTH",
"210 621 OFFCURVE",
"189 641 OFFCURVE",
"164 641 CURVE SMOOTH",
"140 641 OFFCURVE",
"120 621 OFFCURVE",
"117 596 CURVE SMOOTH",
"114 571 OFFCURVE",
"136 551 OFFCURVE",
"161 551 CURVE SMOOTH",
"185 551 OFFCURVE"
);
},
{
closed = 1;
nodes = (
"489 467 OFFCURVE",
"492 491 CURVE SMOOTH",
"495 515 OFFCURVE",
"478 534 OFFCURVE",
"454 534 CURVE SMOOTH",
"430 534 OFFCURVE",
"409 515 OFFCURVE",
"406 491 CURVE SMOOTH",
"403 467 OFFCURVE",
"422 448 OFFCURVE",
"446 448 CURVE SMOOTH",
"470 448 OFFCURVE"
);
}
);
width = 528;
}
);
leftMetricsKey = sinRa;
rightMetricsKey = sinRa;
unicode = 0D8A;
},
{
glyphname = sinJa;
lastChange = "2018-05-12 12:49:02 +0000";
layers = (
{
anchors = (
{
name = rakar;
position = "{558, 175}";
}
);
components = (
{
name = sinPa;
}
);
layerId = "51BB9282-3B82-4DF1-A67A-294D3E37D73A";
paths = (
{
closed = 1;
nodes = (
"445 352 OFFCURVE",
"434 361 OFFCURVE",
"434 447 CURVE SMOOTH",
"434 599 OFFCURVE",
"642 635 OFFCURVE",
"642 635 CURVE",
"642 656 OFFCURVE",
"614 682 OFFCURVE",
"600 686 CURVE",
"600 686 OFFCURVE",
"395 653 OFFCURVE",
"391 442 CURVE SMOOTH",
"389 354 OFFCURVE",
"421 319 OFFCURVE",
"440 293 CURVE",
"462 304 LINE"
);
}
);
width = 642;
}
);
unicode = 0DA2;
},
{
glyphname = sinJha;
layers = (
{
layerId = "51BB9282-3B82-4DF1-A67A-294D3E37D73A";
paths = (
{
closed = 1;
nodes = (
"1047 122 OFFCURVE",
"1046 256 CURVE",
"1046 441 OFFCURVE",
"938 581 OFFCURVE",
"742 581 CURVE SMOOTH",
"670 581 OFFCURVE",
"608 561 OFFCURVE",
"573 540 CURVE",
"557 522 OFFCURVE",
"543 496 OFFCURVE",
"543 480 CURVE SMOOTH",
"543 472 OFFCURVE",
"544 467 OFFCURVE",
"545 464 CURVE",
"547 464 OFFCURVE",
"625 517 OFFCURVE",
"729 517 CURVE SMOOTH",
"895 517 OFFCURVE",
"1000 450 OFFCURVE",
"999 272 CURVE SMOOTH",
"998 193 OFFCURVE",
"952 81 OFFCURVE",
"862 79 CURVE SMOOTH",
"812 79 OFFCURVE",
"767 112 OFFCURVE",
"775 176 CURVE",
"755 171 LINE",
"738 111 OFFCURVE",
"703 79 OFFCURVE",
"634 81 CURVE SMOOTH",
"564 83 OFFCURVE",
"530 138 OFFCURVE",
"533 190 CURVE SMOOTH",
"538 285 OFFCURVE",
"710 320 OFFCURVE",
"768 310 CURVE",
"766 338 OFFCURVE",
"765 358 OFFCURVE",
"753 382 CURVE",
"655 387 OFFCURVE",
"494 313 OFFCURVE",
"490 159 CURVE SMOOTH",
"489 75 OFFCURVE",
"527 -15 OFFCURVE",
"634 -15 CURVE SMOOTH",
"724 -15 OFFCURVE",
"759 56 OFFCURVE",
"763 102 CURVE",
"765 102 OFFCURVE",
"745 106 OFFCURVE",
"747 108 CURVE",
"738 59 OFFCURVE",
"767 -18 OFFCURVE",
"862 -18 CURVE SMOOTH",
"977 -18 OFFCURVE"
);
},
{
closed = 1;
nodes = (
"138 280 OFFCURVE",
"150 286 CURVE",
"139 300 OFFCURVE",
"130 313 OFFCURVE",
"132 340 CURVE SMOOTH",
"134 389 OFFCURVE",
"163 422 OFFCURVE",
"197 422 CURVE SMOOTH",
"233 422 OFFCURVE",
"248 393 OFFCURVE",
"246 360 CURVE",
"246 329 OFFCURVE",
"234 306 OFFCURVE",
"219 290 CURVE",
"242 298 LINE",
"258 314 OFFCURVE",
"293 354 OFFCURVE",
"294 393 CURVE SMOOTH",
"296 434 OFFCURVE",
"258 450 OFFCURVE",
"216 450 CURVE SMOOTH",
"137 450 OFFCURVE",
"65 398 OFFCURVE",
"62 330 CURVE SMOOTH",
"60 296 OFFCURVE",
"75 278 OFFCURVE",
"109 278 CURVE SMOOTH",
"122 278 OFFCURVE"
);
},
{
closed = 1;
nodes = (
"284 20 OFFCURVE",
"300 62 CURVE",
"312 18 OFFCURVE",
"347 -6 OFFCURVE",
"392 -6 CURVE SMOOTH",
"478 -6 OFFCURVE",
"519 85 OFFCURVE",
"522 157 CURVE SMOOTH",
"526 250 OFFCURVE",
"480 319 OFFCURVE",
"400 319 CURVE SMOOTH",
"313 319 OFFCURVE",
"214 253 OFFCURVE",
"179 215 CURVE",
"210 239 LINE",
"213 248 OFFCURVE",
"259 282 OFFCURVE",
"273 293 CURVE SMOOTH",
"330 340 OFFCURVE",
"438 380 OFFCURVE",
"530 380 CURVE SMOOTH",
"649 380 OFFCURVE",
"715 353 OFFCURVE",
"749 338 CURVE",
"753 382 LINE",
"714 413 OFFCURVE",
"643 436 OFFCURVE",
"555 436 CURVE SMOOTH",
"461 436 OFFCURVE",
"350 401 OFFCURVE",
"248 314 CURVE SMOOTH",
"104 193 OFFCURVE",
"30 115 OFFCURVE",
"12 96 CURVE",
"8 75 OFFCURVE",
"29 62 OFFCURVE",
"34 61 CURVE",
"40 96 OFFCURVE",
"137 173 OFFCURVE",
"176 197 CURVE SMOOTH",
"228 230 OFFCURVE",
"300 252 OFFCURVE",
"361 252 CURVE SMOOTH",
"434 252 OFFCURVE",
"490 222 OFFCURVE",
"490 158 CURVE SMOOTH",
"489 105 OFFCURVE",
"440 79 OFFCURVE",
"392 79 CURVE SMOOTH",
"344 79 OFFCURVE",
"316 125 OFFCURVE",
"322 183 CURVE",
"303 179 LINE",
"289 116 OFFCURVE",
"243 77 OFFCURVE",
"194 77 CURVE SMOOTH",
"134 77 OFFCURVE",
"128 136 OFFCURVE",
"65 117 CURVE",
"45 89 LINE",
"59 103 OFFCURVE",
"85 94 OFFCURVE",
"95 79 CURVE SMOOTH",
"122 38 OFFCURVE",
"148 -5 OFFCURVE",
"202 -6 CURVE SMOOTH",
"248 -8 OFFCURVE"
);
}
);
width = 1159;
}
);
unicode = 0DA3;
},
{
color = 5;
glyphname = sinJnya;
lastChange = "2018-05-12 11:35:07 +0000";
layers = (
{
anchors = (
{
name = Virama;
position = "{706, 410}";
}
);
layerId = "51BB9282-3B82-4DF1-A67A-294D3E37D73A";
paths = (
{
closed = 1;
nodes = (
"517 77 OFFCURVE",
"525 165 CURVE SMOOTH",
"531 234 OFFCURVE",
"488 290 OFFCURVE",
"420 289 CURVE",
"409 249 LINE",
"437 248 OFFCURVE",
"493 219 OFFCURVE",
"485 164 CURVE SMOOTH",
"476 101 OFFCURVE",
"384 78 OFFCURVE",
"315 79 CURVE SMOOTH",
"216 80 OFFCURVE",
"164 141 OFFCURVE",
"172 218 CURVE SMOOTH",
"184 332 OFFCURVE",
"271 373 OFFCURVE",
"363 373 CURVE",
"368 382 OFFCURVE",
"379 440 OFFCURVE",
"375 457 CURVE",
"283 456 OFFCURVE",
"148 352 OFFCURVE",
"131 195 CURVE SMOOTH",
"118 75 OFFCURVE",
"177 -12 OFFCURVE",
"324 -9 CURVE SMOOTH",
"438 -7 OFFCURVE"
);
},
{
closed = 1;
nodes = (
"113 1 OFFCURVE",
"117 4 CURVE",
"89 36 OFFCURVE",
"80 120 OFFCURVE",
"88 188 CURVE SMOOTH",
"103 315 OFFCURVE",
"176 409 OFFCURVE",
"270 417 CURVE",
"273 421 LINE",
"375 457 LINE",
"372 463 LINE",
"359 466 OFFCURVE",
"341 467 OFFCURVE",
"317 467 CURVE SMOOTH",
"183 467 OFFCURVE",
"47 353 OFFCURVE",
"31 186 CURVE SMOOTH",
"24 111 OFFCURVE",
"50 32 OFFCURVE",
"83 -3 CURVE",
"102 -3 OFFCURVE"
);
},
{
closed = 1;
nodes = (
"822 -176 OFFCURVE",
"824 -146 CURVE",
"787 -157 OFFCURVE",
"759 -161 OFFCURVE",
"736 -160 CURVE SMOOTH",
"677 -157 OFFCURVE",
"662 -125 OFFCURVE",
"663 -93 CURVE SMOOTH",
"665 -28 OFFCURVE",
"755 7 OFFCURVE",
"790 20 CURVE",
"786 22 OFFCURVE",
"783 33 OFFCURVE",
"779 35 CURVE",
"772 36 OFFCURVE",
"765 29 OFFCURVE",
"757 30 CURVE",
"706 8 OFFCURVE",
"608 -37 OFFCURVE",
"602 -122 CURVE SMOOTH",
"598 -177 OFFCURVE",
"647 -240 OFFCURVE",
"782 -226 CURVE",
"805 -215 OFFCURVE"
);
},
{
closed = 1;
nodes = (
"396 169 OFFCURVE",
"409 170 CURVE",
"408 290 OFFCURVE",
"487 394 OFFCURVE",
"641 394 CURVE",
"652 437 OFFCURVE",
"679 456 OFFCURVE",
"689 483 CURVE",
"518 481 OFFCURVE",
"387 332 OFFCURVE",
"373 170 CURVE",
"384 168 OFFCURVE"
);
},
{
closed = 1;
nodes = (
"799 23 OFFCURVE",
"832 38 CURVE",
"840 55 OFFCURVE",
"845 83 OFFCURVE",
"845 112 CURVE",
"837 122 LINE",
"790 88 OFFCURVE",
"734 67 OFFCURVE",
"671 68 CURVE SMOOTH",
"576 70 OFFCURVE",
"529 102 OFFCURVE",
"528 151 CURVE SMOOTH",
"527 216 OFFCURVE",
"596 283 OFFCURVE",
"733 283 CURVE SMOOTH",
"755 283 OFFCURVE",
"804 280 OFFCURVE",
"830 276 CURVE",
"844 290 LINE",
"849 378 OFFCURVE",
"792 492 OFFCURVE",
"669 483 CURVE SMOOTH",
"602 478 OFFCURVE",
"555 441 OFFCURVE",
"558 390 CURVE SMOOTH",
"560 354 OFFCURVE",
"595 341 OFFCURVE",
"644 352 CURVE",
"632 407 OFFCURVE",
"672 434 OFFCURVE",
"712 434 CURVE SMOOTH",
"762 434 OFFCURVE",
"781 388 OFFCURVE",
"785 338 CURVE",
"771 340 OFFCURVE",
"757 343 OFFCURVE",
"724 342 CURVE SMOOTH",
"584 338 OFFCURVE",
"494 257 OFFCURVE",
"490 151 CURVE SMOOTH",
"487 62 OFFCURVE",
"561 -5 OFFCURVE",
"677 -5 CURVE SMOOTH",
"750 -5 OFFCURVE"
);
}
);
width = 898;
}
);
leftMetricsKey = sinNnga;
rightMetricsKey = sinDa;
unicode = 0DA5;
},
{
color = 5;
glyphname = sinKa;
lastChange = "2018-02-16 13:04:40 +0000";
layers = (
{
anchors = (
{
name = MatraI;
position = "{324, 340}";
},
{
name = Virama;
position = "{686, 402}";
}
);
layerId = "51BB9282-3B82-4DF1-A67A-294D3E37D73A";
paths = (
{
closed = 1;
nodes = (
"294 21 OFFCURVE",
"309 62 CURVE",
"321 18 OFFCURVE",
"356 -6 OFFCURVE",
"401 -6 CURVE SMOOTH",
"492 -6 OFFCURVE",
"531 93 OFFCURVE",
"531 173 CURVE SMOOTH",
"531 255 OFFCURVE",
"486 319 OFFCURVE",
"402 319 CURVE SMOOTH",
"324 319 OFFCURVE",
"221 252 OFFCURVE",
"188 215 CURVE",
"219 239 LINE",
"221 246 OFFCURVE",
"252 270 OFFCURVE",
"282 293 CURVE SMOOTH",
"346 342 OFFCURVE",
"430 378 OFFCURVE",
"528 378 CURVE SMOOTH",
"653 378 OFFCURVE",
"757 313 OFFCURVE",
"757 214 CURVE SMOOTH",
"757 152 OFFCURVE",
"708 70 OFFCURVE",
"606 70 CURVE SMOOTH",
"588 70 OFFCURVE",
"562 73 OFFCURVE",
"549 76 CURVE",
"536 71 LINE",
"540 42 OFFCURVE",
"560 9 OFFCURVE",
"579 -6 CURVE",
"718 3 OFFCURVE",
"796 102 OFFCURVE",
"796 221 CURVE SMOOTH",
"796 383 OFFCURVE",
"678 456 OFFCURVE",
"561 456 CURVE SMOOTH",
"445 456 OFFCURVE",
"357 396 OFFCURVE",
"257 314 CURVE SMOOTH",
"133 212 OFFCURVE",
"30 106 OFFCURVE",
"21 96 CURVE",
"17 75 OFFCURVE",
"38 62 OFFCURVE",
"43 61 CURVE",
"48 74 OFFCURVE",
"56 87 OFFCURVE",
"71 103 CURVE SMOOTH",
"102 137 OFFCURVE",
"152 176 OFFCURVE",
"185 197 CURVE SMOOTH",
"237 230 OFFCURVE",
"309 252 OFFCURVE",
"370 252 CURVE SMOOTH",
"444 252 OFFCURVE",
"499 220 OFFCURVE",
"499 161 CURVE SMOOTH",
"499 104 OFFCURVE",
"467 66 OFFCURVE",
"412 66 CURVE SMOOTH",
"353 66 OFFCURVE",
"330 119 OFFCURVE",
"330 168 CURVE SMOOTH",
"330 173 OFFCURVE",
"330 178 OFFCURVE",
"331 183 CURVE",
"312 179 LINE",
"298 116 OFFCURVE",
"270 62 OFFCURVE",
"211 62 CURVE SMOOTH",
"149 62 OFFCURVE",
"140 121 OFFCURVE",
"97 121 CURVE SMOOTH",
"90 121 OFFCURVE",
"83 120 OFFCURVE",
"74 117 CURVE",
"54 89 LINE",
"59 94 OFFCURVE",
"65 96 OFFCURVE",
"72 96 CURVE SMOOTH",
"84 96 OFFCURVE",
"97 89 OFFCURVE",
"104 79 CURVE SMOOTH",
"129 42 OFFCURVE",
"156 -6 OFFCURVE",
"215 -6 CURVE SMOOTH",
"259 -6 OFFCURVE"
);
},
{
closed = 1;
nodes = (
"147 280 OFFCURVE",
"159 286 CURVE",
"149 299 OFFCURVE",
"141 310 OFFCURVE",
"141 336 CURVE SMOOTH",
"141 385 OFFCURVE",
"169 422 OFFCURVE",
"208 422 CURVE SMOOTH",
"240 422 OFFCURVE",
"255 396 OFFCURVE",
"255 363 CURVE SMOOTH",
"255 334 OFFCURVE",
"244 307 OFFCURVE",
"228 290 CURVE",
"251 298 LINE",
"267 314 OFFCURVE",
"303 356 OFFCURVE",
"303 396 CURVE SMOOTH",
"303 435 OFFCURVE",
"266 450 OFFCURVE",
"224 450 CURVE SMOOTH",
"143 450 OFFCURVE",
"71 394 OFFCURVE",
"71 325 CURVE SMOOTH",
"71 294 OFFCURVE",
"85 278 OFFCURVE",
"119 278 CURVE SMOOTH",
"131 278 OFFCURVE"
);
}
);
width = 846;
}
);
unicode = 0D9A;
userData = {
com.typemytype.robofont.layerData = {
"Regular Oct 26 16, 18:32" = {
anchors = (
);
components = (
);
contours = (
{
points = (
{
segmentType = curve;
smooth = 0;
x = 35;
y = 125;
},
{
smooth = 0;
x = 59;
y = 149;
},
{
smooth = 0;
x = 135;
y = 250;
},
{
segmentType = curve;
smooth = 1;
x = 322;
y = 408;
},
{
smooth = 0;
x = 455;
y = 521;
},
{
smooth = 0;
x = 556;
y = 582;
},
{
segmentType = curve;
smooth = 1;
x = 706;
y = 582;
},
{
smooth = 0;
x = 862;
y = 582;
},
{
smooth = 0;
x = 1022;
y = 494;
},
{
segmentType = curve;
smooth = 1;
x = 1022;
y = 291;
},
{
smooth = 0;
x = 1022;
y = 135;
},
{
smooth = 0;
x = 940;
y = -8;
},
{
segmentType = curve;
smooth = 0;
x = 765.009;
y = -8;
},
{
smooth = 0;
x = 739.934;
y = 10.555;
},
{
smooth = 0;
x = 729;
y = 34;
},
{
segmentType = curve;
smooth = 0;
x = 731;
y = 72;
},
{
segmentType = line;
smooth = 0;
x = 747;
y = 79;
},
{
smooth = 0;
x = 766;
y = 74;
},
{
smooth = 0;
x = 792;
y = 68;
},
{
segmentType = curve;
smooth = 1;
x = 821;
y = 69;
},
{
smooth = 0;
x = 919;
y = 72;
},
{
smooth = 0;
x = 971;
y = 175;
},
{
segmentType = curve;
smooth = 1;
x = 971;
y = 278;
},
{
smooth = 0;
x = 971;
y = 419;
},
{
smooth = 0;
x = 835;
y = 515;
},
{
segmentType = curve;
smooth = 1;
x = 678;
y = 515;
},
{
smooth = 0;
x = 549;
y = 515;
},
{
smooth = 0;
x = 429;
y = 441;
},
{
segmentType = curve;
smooth = 1;
x = 354;
y = 380;
},
{
smooth = 0;
x = 337;
y = 366;
},
{
smooth = 0;
x = 261;
y = 303;
},
{
segmentType = curve;
smooth = 0;
x = 285;
y = 310;
},
{
segmentType = line;
smooth = 0;
x = 266;
y = 298;
},
{
smooth = 0;
x = 312;
y = 348;
},
{
smooth = 0;
x = 407;
y = 414;
},
{
segmentType = curve;
smooth = 1;
x = 502;
y = 414;
},
{
smooth = 0;
x = 613;
y = 414;
},
{
smooth = 0;
x = 683;
y = 325;
},
{
segmentType = curve;
smooth = 1;
x = 678;
y = 204;
},
{
smooth = 0;
x = 674;
y = 110;
},
{
smooth = 0;
x = 621;
y = -8;
},
{
segmentType = curve;
smooth = 1;
x = 509;
y = -8;
},
{
smooth = 0;
x = 451;
y = -8;
},
{
smooth = 0;
x = 405;
y = 23;
},
{
segmentType = curve;
smooth = 0;
x = 388.62;
y = 80;
},
{
smooth = 0;
x = 369;
y = 26;
},
{
smooth = 0;
x = 322;
y = -10;
},
{
segmentType = curve;
smooth = 1;
x = 262.009;
y = -8;
},
{
smooth = 0;
x = 192;
y = -6;
},
{
smooth = 0;
x = 178;
y = 49;
},
{
segmentType = curve;
smooth = 1;
x = 143;
y = 102;
},
{
smooth = 0;
x = 130;
y = 122;
},
{
smooth = 0;
x = 97;
y = 134;
},
{
segmentType = curve;
smooth = 0;
x = 79;
y = 115;
},
{
segmentType = line;
smooth = 0;
x = 104;
y = 152;
},
{
smooth = 0;
x = 186;
y = 176;
},
{
smooth = 0;
x = 164;
y = 70;
},
{
segmentType = curve;
smooth = 1;
x = 272;
y = 70;
},
{
smooth = 0;
x = 335;
y = 70;
},
{
smooth = 0;
x = 385;
y = 150;
},
{
segmentType = curve;
smooth = 0;
x = 383;
y = 232;
},
{
segmentType = line;
smooth = 0;
x = 418;
y = 232;
},
{
smooth = 0;
x = 420;
y = 116;
},
{
smooth = 0;
x = 447;
y = 64;
},
{
segmentType = curve;
smooth = 1;
x = 519;
y = 63;
},
{
smooth = 0;
x = 582;
y = 62;
},
{
smooth = 0;
x = 625;
y = 127;
},
{
segmentType = curve;
smooth = 1;
x = 626;
y = 205;
},
{
smooth = 0;
x = 627;
y = 288;
},
{
smooth = 0;
x = 563;
y = 347;
},
{
segmentType = curve;
smooth = 1;
x = 469;
y = 347;
},
{
smooth = 0;
x = 389;
y = 347;
},
{
smooth = 0;
x = 296;
y = 299;
},
{
segmentType = curve;
smooth = 1;
x = 228;
y = 256;
},
{
smooth = 0;
x = 178;
y = 225;
},
{
smooth = 0;
x = 72;
y = 125;
},
{
segmentType = curve;
smooth = 0;
x = 64;
y = 79;
},
{
smooth = 0;
x = 58;
y = 81;
},
{
smooth = 0;
x = 31;
y = 98;
}
);
},
{
points = (
{
segmentType = curve;
smooth = 1;
x = 80;
y = 428;
},
{
smooth = 0;
x = 84;
y = 517;
},
{
smooth = 0;
x = 158;
y = 584;
},
{
segmentType = curve;
smooth = 1;
x = 260;
y = 584;
},
{
smooth = 0;
x = 315;
y = 584;
},
{
smooth = 0;
x = 364;
y = 544;
},
{
segmentType = curve;
smooth = 1;
x = 362;
y = 491;
},
{
smooth = 0;
x = 360;
y = 440;
},
{
smooth = 0;
x = 335;
y = 408;
},
{
segmentType = curve;
smooth = 0;
x = 313.71;
y = 387;
},
{
segmentType = line;
smooth = 0;
x = 287.133;
y = 376;
},
{
smooth = 0;
x = 305;
y = 402;
},
{
smooth = 0;
x = 318;
y = 417;
},
{
segmentType = curve;
smooth = 1;
x = 320;
y = 454;
},
{
smooth = 0;
x = 322;
y = 501;
},
{
smooth = 0;
x = 302;
y = 538;
},
{
segmentType = curve;
smooth = 1;
x = 256;
y = 538;
},
{
smooth = 0;
x = 212;
y = 538;
},
{
smooth = 0;
x = 154;
y = 505;
},
{
segmentType = curve;
smooth = 1;
x = 151;
y = 442;
},
{
smooth = 0;
x = 149;
y = 407;
},
{
smooth = 0;
x = 161;
y = 389;
},
{
segmentType = curve;
smooth = 0;
x = 175;
y = 372;
},
{
smooth = 0;
x = 159;
y = 364;
},
{
smooth = 0;
x = 138;
y = 361;
},
{
segmentType = curve;
smooth = 1;
x = 122;
y = 361;
},
{
smooth = 0;
x = 98;
y = 361;
},
{
smooth = 0;
x = 78;
y = 385;
}
);
}
);
lib = {
};
name = sinKa;
unicodes = (
);
width = 1056;
};
};
};
},
{
glyphname = sinKha;
layers = (
{
layerId = "51BB9282-3B82-4DF1-A67A-294D3E37D73A";
paths = (
{
closed = 1;
nodes = (
"352 36 OFFCURVE",
"381 -9 OFFCURVE",
"437 -9 CURVE SMOOTH",
"559 -9 OFFCURVE",
"617 99 OFFCURVE",
"617 250 CURVE SMOOTH",
"617 473 OFFCURVE",
"490 599 OFFCURVE",
"295 599 CURVE SMOOTH",
"230 599 OFFCURVE",
"184 585 OFFCURVE",
"153 569 CURVE",
"145 554 OFFCURVE",
"142 530 OFFCURVE",
"142 516 CURVE SMOOTH",
"142 505 OFFCURVE",
"144 496 OFFCURVE",
"145 493 CURVE",
"147 494 OFFCURVE",
"207 528 OFFCURVE",
"295 528 CURVE SMOOTH",
"425 528 OFFCURVE",
"571 476 OFFCURVE",
"571 279 CURVE SMOOTH",
"571 173 OFFCURVE",
"528 65 OFFCURVE",
"430 65 CURVE SMOOTH",
"413 65 OFFCURVE",
"369 72 OFFCURVE",
"360 76 CURVE",
"338 53 LINE"
);
},
{
closed = 1;
nodes = (
"422 127 OFFCURVE",
"423 217 CURVE SMOOTH",
"424 308 OFFCURVE",
"365 385 OFFCURVE",
"260 385 CURVE SMOOTH",
"142 385 OFFCURVE",
"54 291 OFFCURVE",
"54 158 CURVE SMOOTH",
"54 78 OFFCURVE",
"88 -14 OFFCURVE",
"184 -14 CURVE SMOOTH",
"251 -14 OFFCURVE",
"287 31 OFFCURVE",
"287 88 CURVE SMOOTH",
"287 142 OFFCURVE",
"251 173 OFFCURVE",
"209 173 CURVE SMOOTH",
"160 173 OFFCURVE",
"133 137 OFFCURVE",
"133 98 CURVE SMOOTH",
"133 74 OFFCURVE",
"142 56 OFFCURVE",
"152 40 CURVE",
"187 22 LINE",
"172 38 OFFCURVE",
"169 49 OFFCURVE",
"169 63 CURVE SMOOTH",
"169 109 OFFCURVE",
"199 119 OFFCURVE",
"218 119 CURVE SMOOTH",
"237 119 OFFCURVE",
"257 107 OFFCURVE",
"257 84 CURVE SMOOTH",
"257 51 OFFCURVE",
"219 38 OFFCURVE",
"192 38 CURVE SMOOTH",
"153 38 OFFCURVE",
"91 78 OFFCURVE",
"91 177 CURVE SMOOTH",
"91 267 OFFCURVE",
"160 314 OFFCURVE",
"244 314 CURVE SMOOTH",
"303 314 OFFCURVE",
"375 289 OFFCURVE",
"377 205 CURVE SMOOTH",
"379 138 OFFCURVE",
"326 43 OFFCURVE",
"282 -14 CURVE",
"291 -29 OFFCURVE",
"313 -43 OFFCURVE",
"324 -44 CURVE",
"351 -9 OFFCURVE"
);
}
);
width = 653;
}
);
unicode = 0D9B;
},
{
color = 4;
glyphname = sinLa;
lastChange = "2018-05-12 12:16:48 +0000";
layers = (
{
anchors = (
{
name = Virama;
position = "{495, 365}";
}
);
layerId = "51BB9282-3B82-4DF1-A67A-294D3E37D73A";
paths = (
{
closed = 1;
nodes = (
"562 -156 OFFCURVE",
"589 -118 CURVE",
"592 -102 OFFCURVE",
"579 -81 OFFCURVE",
"574 -77 CURVE",
"518 -110 OFFCURVE",
"447 -134 OFFCURVE",
"353 -134 CURVE SMOOTH",
"234 -134 OFFCURVE",
"87 -66 OFFCURVE",
"87 126 CURVE SMOOTH",
"87 260 OFFCURVE",
"185 384 OFFCURVE",
"350 384 CURVE SMOOTH",
"472 384 OFFCURVE",
"555 325 OFFCURVE",
"555 230 CURVE SMOOTH",
"555 176 OFFCURVE",
"518 119 OFFCURVE",
"442 119 CURVE SMOOTH",
"397 119 OFFCURVE",
"343 138 OFFCURVE",
"343 187 CURVE SMOOTH",
"343 230 OFFCURVE",
"378 256 OFFCURVE",
"415 270 CURVE",
"373 259 LINE",
"454 259 LINE",
"458 277 OFFCURVE",
"458 286 OFFCURVE",
"458 296 CURVE",
"221 296 LINE",
"214 286 OFFCURVE",
"211 271 OFFCURVE",
"211 259 CURVE",
"348 259 LINE",
"349 262 OFFCURVE",
"373 265 OFFCURVE",
"373 267 CURVE",
"311 260 OFFCURVE",
"276 220 OFFCURVE",
"275 172 CURVE SMOOTH",
"274 118 OFFCURVE",
"320 66 OFFCURVE",
"415 66 CURVE SMOOTH",
"528 66 OFFCURVE",
"601 154 OFFCURVE",
"601 250 CURVE SMOOTH",
"601 349 OFFCURVE",
"533 460 OFFCURVE",
"370 459 CURVE SMOOTH",
"187 458 OFFCURVE",
"40 299 OFFCURVE",
"40 89 CURVE SMOOTH",
"40 -48 OFFCURVE",
"123 -217 OFFCURVE",
"346 -217 CURVE SMOOTH",
"475 -217 OFFCURVE"
);
}
);
width = 659;
}
);
unicode = 0DBD;
userData = {
com.typemytype.robofont.layerData = {
"Regular Oct 20 16, 20:13" = {
anchors = (
);
components = (
);
contours = (
{
points = (
{
segmentType = curve;
smooth = 1;
x = 48;
y = 123;
},
{
smooth = 0;
x = 48;
y = 387;
},
{
smooth = 0;
x = 223;
y = 593;
},
{
segmentType = curve;
smooth = 1;
x = 498;
y = 594;
},
{
smooth = 0;
x = 709;
y = 595;
},
{
smooth = 0;
x = 814;
y = 456;
},
{
segmentType = curve;
smooth = 1;
x = 814;
y = 331;
},
{
smooth = 0;
x = 814;
y = 212;
},
{
smooth = 0;
x = 730;
y = 111;
},
{
segmentType = curve;
smooth = 1;
x = 594;
y = 109;
},
{
smooth = 0;
x = 494;
y = 108;
},
{
smooth = 0;
x = 422;
y = 156;
},
{
segmentType = curve;
smooth = 1;
x = 423;
y = 229;
},
{
smooth = 0;
x = 424;
y = 285;
},
{
smooth = 0;
x = 479;
y = 333;
},
{
segmentType = curve;
smooth = 0;
x = 540;
y = 343;
},
{
smooth = 0;
x = 539;
y = 340;
},
{
smooth = 0;
x = 538;
y = 337;
},
{
segmentType = curve;
smooth = 0;
x = 537;
y = 334;
},
{
segmentType = line;
smooth = 0;
x = 296;
y = 334;
},
{
smooth = 0;
x = 298;
y = 349;
},
{
smooth = 0;
x = 293;
y = 360;
},
{
segmentType = curve;
smooth = 0;
x = 301;
y = 379;
},
{
segmentType = line;
smooth = 0;
x = 636;
y = 379;
},
{
smooth = 0;
x = 636;
y = 367;
},
{
smooth = 0;
x = 636;
y = 356;
},
{
segmentType = curve;
smooth = 0;
x = 629;
y = 334;
},
{
smooth = 0;
x = 566;
y = 334;
},
{
smooth = 0;
x = 501;
y = 292;
},
{
segmentType = curve;
smooth = 1;
x = 501;
y = 248;
},
{
smooth = 0;
x = 501;
y = 187;
},
{
smooth = 0;
x = 553;
y = 165;
},
{
segmentType = curve;
smooth = 1;
x = 610;
y = 165;
},
{
smooth = 0;
x = 696;
y = 165;
},
{
smooth = 0;
x = 739;
y = 229;
},
{
segmentType = curve;
smooth = 1;
x = 739;
y = 297;
},
{
smooth = 0;
x = 739;
y = 416;
},
{
smooth = 0;
x = 634;
y = 515;
},
{
segmentType = curve;
smooth = 1;
x = 460;
y = 515;
},
{
smooth = 0;
x = 283;
y = 515;
},
{
smooth = 0;
x = 123;
y = 389;
},
{
segmentType = curve;
smooth = 1;
x = 123;
y = 176;
},
{
smooth = 0;
x = 123;
y = -48;
},
{
smooth = 0;
x = 283;
y = -168;
},
{
segmentType = curve;
smooth = 1;
x = 483;
y = -168;
},
{
smooth = 0;
x = 591;
y = -168;
},
{
smooth = 0;
x = 690;
y = -140;
},
{
segmentType = curve;
smooth = 0;
x = 760;
y = -99;
},
{
smooth = 0;
x = 763;
y = -101;
},
{
smooth = 0;
x = 765;
y = -112;
},
{
segmentType = curve;
smooth = 1;
x = 765;
y = -125;
},
{
smooth = 0;
x = 765;
y = -138;
},
{
smooth = 0;
x = 765;
y = -147;
},
{
segmentType = curve;
smooth = 0;
x = 760;
y = -158;
},
{
smooth = 0;
x = 696;
y = -226;
},
{
smooth = 0;
x = 596;
y = -263;
},
{
segmentType = curve;
smooth = 1;
x = 464;
y = -263;
},
{
smooth = 0;
x = 194;
y = -263;
},
{
smooth = 0;
x = 48;
y = -74;
}
);
}
);
lib = {
};
name = sinLa;
unicodes = (
);
width = 852;
};
};
};
},
{
glyphname = sinLla;
lastChange = "2018-02-16 16:07:19 +0000";
layers = (
{
anchors = (
{
name = Virama;
position = "{518, 394}";
}
);
layerId = "51BB9282-3B82-4DF1-A67A-294D3E37D73A";
paths = (
{
closed = 1;
nodes = (
"548 -144 OFFCURVE",
"584 -111 CURVE",
"586 -98 OFFCURVE",
"577 -74 OFFCURVE",
"567 -63 CURVE",
"529 -92 OFFCURVE",
"445 -126 OFFCURVE",
"336 -126 CURVE SMOOTH",
"188 -126 OFFCURVE",
"78 -49 OFFCURVE",
"78 64 CURVE SMOOTH",
"78 204 OFFCURVE",
"210 249 OFFCURVE",
"374 249 CURVE SMOOTH",
"445 249 OFFCURVE",
"500 234 OFFCURVE",
"534 223 CURVE",
"564 247 LINE",
"567 270 OFFCURVE",
"568 296 OFFCURVE",
"568 318 CURVE SMOOTH",
"568 391 OFFCURVE",
"534 457 OFFCURVE",
"455 457 CURVE SMOOTH",
"384 457 OFFCURVE",
"355 400 OFFCURVE",
"355 369 CURVE",
"358 384 LINE",
"358 393 OFFCURVE",
"341 458 OFFCURVE",
"261 458 CURVE SMOOTH",
"174 458 OFFCURVE",
"121 385 OFFCURVE",
"121 286 CURVE SMOOTH",
"121 152 OFFCURVE",
"222 53 OFFCURVE",
"363 53 CURVE SMOOTH",
"450 53 OFFCURVE",
"515 84 OFFCURVE",
"545 113 CURVE",
"546 115 OFFCURVE",
"546 118 OFFCURVE",
"546 122 CURVE SMOOTH",
"546 132 OFFCURVE",
"542 144 OFFCURVE",
"536 150 CURVE",
"493 130 OFFCURVE",
"424 118 OFFCURVE",
"367 119 CURVE SMOOTH",
"286 120 OFFCURVE",
"160 155 OFFCURVE",
"160 281 CURVE SMOOTH",
"160 358 OFFCURVE",
"213 394 OFFCURVE",
"262 394 CURVE SMOOTH",
"297 394 OFFCURVE",
"330 375 OFFCURVE",
"342 339 CURVE",
"369 341 LINE",
"383 372 OFFCURVE",
"407 395 OFFCURVE",
"451 395 CURVE SMOOTH",
"496 395 OFFCURVE",
"541 361 OFFCURVE",
"535 287 CURVE",
"540 289 LINE",
"489 307 OFFCURVE",
"422 317 OFFCURVE",
"360 317 CURVE SMOOTH",
"177 317 OFFCURVE",
"40 226 OFFCURVE",
"40 40 CURVE SMOOTH",
"40 -105 OFFCURVE",
"145 -204 OFFCURVE",
"340 -204 CURVE SMOOTH",
"462 -204 OFFCURVE"
);
}
);
width = 624;
}
);
unicode = 0DC5;
},
{
color = 5;
glyphname = sinMa;
lastChange = "2018-05-12 15:51:38 +0000";
layers = (
{
layerId = "51BB9282-3B82-4DF1-A67A-294D3E37D73A";
paths = (
{
closed = 1;
nodes = (
"594 129 OFFCURVE",
"594 286 CURVE SMOOTH",
"594 475 OFFCURVE",
"475 602 OFFCURVE",
"292 602 CURVE SMOOTH",
"222 602 OFFCURVE",
"163 586 OFFCURVE",
"135 571 CURVE",
"128 557 OFFCURVE",
"124 519 OFFCURVE",
"128 501 CURVE",
"198 531 OFFCURVE",
"258 534 OFFCURVE",
"288 534 CURVE SMOOTH",
"444 534 OFFCURVE",
"551 457 OFFCURVE",
"551 305 CURVE SMOOTH",
"551 180 OFFCURVE",
"464 51 OFFCURVE",
"310 51 CURVE SMOOTH",
"190 51 OFFCURVE",
"82 110 OFFCURVE",
"82 226 CURVE SMOOTH",
"82 304 OFFCURVE",
"131 349 OFFCURVE",
"154 349 CURVE",
"128 366 LINE",
"128 331 OFFCURVE",
"141 146 OFFCURVE",
"322 146 CURVE SMOOTH",
"414 146 OFFCURVE",
"463 225 OFFCURVE",
"463 302 CURVE SMOOTH",
"463 386 OFFCURVE",
"404 457 OFFCURVE",
"332 457 CURVE SMOOTH",
"270 457 OFFCURVE",
"233 411 OFFCURVE",
"233 357 CURVE SMOOTH",
"233 308 OFFCURVE",
"270 277 OFFCURVE",
"317 277 CURVE SMOOTH",
"357 277 OFFCURVE",
"395 311 OFFCURVE",
"395 367 CURVE SMOOTH",
"395 380 OFFCURVE",
"393 396 OFFCURVE",
"387 413 CURVE",
"373 416 LINE",
"369 337 OFFCURVE",
"331 325 OFFCURVE",
"307 325 CURVE SMOOTH",
"288 325 OFFCURVE",
"264 333 OFFCURVE",
"264 357 CURVE SMOOTH",
"264 382 OFFCURVE",
"292 405 OFFCURVE",
"338 405 CURVE SMOOTH",
"388 405 OFFCURVE",
"428 372 OFFCURVE",
"428 314 CURVE SMOOTH",
"428 256 OFFCURVE",
"382 210 OFFCURVE",
"316 210 CURVE SMOOTH",
"183 210 OFFCURVE",
"160 351 OFFCURVE",
"171 388 CURVE",
"167 395 OFFCURVE",
"155 409 OFFCURVE",
"149 413 CURVE",
"99 390 OFFCURVE",
"42 317 OFFCURVE",
"42 218 CURVE SMOOTH",
"42 83 OFFCURVE",
"139 -25 OFFCURVE",
"307 -25 CURVE SMOOTH",
"489 -25 OFFCURVE"
);
}
);
width = 644;
},
{
associatedMasterId = "51BB9282-3B82-4DF1-A67A-294D3E37D73A";
layerId = "0244CFE6-933E-495F-8477-C9C78A247730";
name = "May 12 18, 20:54";
paths = (
{
closed = 1;
nodes = (
"594 129 OFFCURVE",
"594 286 CURVE SMOOTH",
"594 475 OFFCURVE",
"475 602 OFFCURVE",
"292 602 CURVE SMOOTH",
"222 602 OFFCURVE",
"163 586 OFFCURVE",
"135 571 CURVE",
"128 557 OFFCURVE",
"124 519 OFFCURVE",
"128 501 CURVE",
"198 531 OFFCURVE",
"258 534 OFFCURVE",
"288 534 CURVE SMOOTH",
"444 534 OFFCURVE",
"551 457 OFFCURVE",
"551 305 CURVE SMOOTH",
"551 180 OFFCURVE",
"473 51 OFFCURVE",
"305 51 CURVE SMOOTH",
"196 51 OFFCURVE",
"82 106 OFFCURVE",
"82 224 CURVE SMOOTH",
"82 312 OFFCURVE",
"131 349 OFFCURVE",
"154 349 CURVE",
"138 366 LINE",
"138 331 OFFCURVE",
"141 146 OFFCURVE",
"322 146 CURVE SMOOTH",
"414 146 OFFCURVE",
"463 225 OFFCURVE",
"463 302 CURVE SMOOTH",
"463 386 OFFCURVE",
"404 457 OFFCURVE",
"332 457 CURVE SMOOTH",
"270 457 OFFCURVE",
"233 411 OFFCURVE",
"233 357 CURVE SMOOTH",
"233 308 OFFCURVE",
"270 277 OFFCURVE",
"317 277 CURVE SMOOTH",
"357 277 OFFCURVE",
"395 311 OFFCURVE",
"395 367 CURVE SMOOTH",
"395 380 OFFCURVE",
"393 396 OFFCURVE",
"387 413 CURVE",
"373 416 LINE",
"369 337 OFFCURVE",
"331 325 OFFCURVE",
"307 325 CURVE SMOOTH",
"288 325 OFFCURVE",
"264 333 OFFCURVE",
"264 357 CURVE SMOOTH",
"264 382 OFFCURVE",
"292 405 OFFCURVE",
"338 405 CURVE SMOOTH",
"388 405 OFFCURVE",
"428 372 OFFCURVE",
"428 314 CURVE SMOOTH",
"428 256 OFFCURVE",
"382 210 OFFCURVE",
"316 210 CURVE SMOOTH",
"183 210 OFFCURVE",
"160 351 OFFCURVE",
"171 388 CURVE",
"167 395 OFFCURVE",
"155 409 OFFCURVE",
"149 413 CURVE",
"99 390 OFFCURVE",
"45 325 OFFCURVE",
"45 220 CURVE SMOOTH",
"45 85 OFFCURVE",
"158 -25 OFFCURVE",
"315 -25 CURVE SMOOTH",
"498 -25 OFFCURVE"
);
}
);
width = 644;
}
);
unicode = 0DB8;
},
{
color = 5;
glyphname = sinMba;
lastChange = "2018-02-16 14:35:20 +0000";
layers = (
{
layerId = "51BB9282-3B82-4DF1-A67A-294D3E37D73A";
paths = (
{
closed = 1;
nodes = (
"129 349 OFFCURVE",
"159 356 CURVE",
"150 384 LINE",
"150 381 OFFCURVE",
"148 194 OFFCURVE",
"325 194 CURVE SMOOTH",
"423 194 OFFCURVE",
"475 247 OFFCURVE",
"475 330 CURVE SMOOTH",
"475 409 OFFCURVE",
"413 474 OFFCURVE",
"341 474 CURVE SMOOTH",
"267 474 OFFCURVE",
"240 423 OFFCURVE",
"240 376 CURVE SMOOTH",
"240 327 OFFCURVE",
"273 295 OFFCURVE",
"320 295 CURVE SMOOTH",
"369 295 OFFCURVE",
"407 329 OFFCURVE",
"407 385 CURVE SMOOTH",
"407 398 OFFCURVE",
"405 414 OFFCURVE",
"399 431 CURVE",
"385 434 LINE",
"381 355 OFFCURVE",
"343 343 OFFCURVE",
"319 343 CURVE SMOOTH",
"300 343 OFFCURVE",
"279 351 OFFCURVE",
"279 373 CURVE SMOOTH",
"279 396 OFFCURVE",
"304 423 OFFCURVE",
"350 423 CURVE SMOOTH",
"400 423 OFFCURVE",
"437 394 OFFCURVE",
"437 347 CURVE SMOOTH",
"437 277 OFFCURVE",
"394 247 OFFCURVE",
"329 247 CURVE SMOOTH",
"195 247 OFFCURVE",
"172 369 OFFCURVE",
"183 406 CURVE",
"177 415 OFFCURVE",
"168 423 OFFCURVE",
"161 425 CURVE",
"98 406 OFFCURVE",
"45 312 OFFCURVE",
"45 206 CURVE SMOOTH",
"45 104 OFFCURVE",
"92 -14 OFFCURVE",
"207 -14 CURVE SMOOTH",
"303 -14 OFFCURVE",
"319 49 OFFCURVE",
"319 79 CURVE SMOOTH",
"319 104 OFFCURVE",
"327 111 OFFCURVE",
"347 111 CURVE SMOOTH",
"359 111 OFFCURVE",
"363 106 OFFCURVE",
"363 90 CURVE SMOOTH",
"363 87 OFFCURVE",
"362 83 OFFCURVE",
"361 79 CURVE",
"360 73 OFFCURVE",
"359 67 OFFCURVE",
"359 60 CURVE SMOOTH",
"359 25 OFFCURVE",
"387 -15 OFFCURVE",
"456 -15 CURVE SMOOTH",
"576 -15 OFFCURVE",
"621 145 OFFCURVE",
"621 285 CURVE SMOOTH",
"621 434 OFFCURVE",
"524 616 OFFCURVE",
"294 616 CURVE SMOOTH",
"254 616 OFFCURVE",
"186 605 OFFCURVE",
"150 588 CURVE",
"144 572 OFFCURVE",
"141 552 OFFCURVE",
"141 535 CURVE SMOOTH",
"141 526 OFFCURVE",
"142 519 OFFCURVE",
"143 513 CURVE",
"179 530 OFFCURVE",
"238 545 OFFCURVE",
"305 545 CURVE SMOOTH",
"463 545 OFFCURVE",
"574 444 OFFCURVE",
"574 292 CURVE SMOOTH",
"574 167 OFFCURVE",
"540 72 OFFCURVE",
"453 72 CURVE SMOOTH",
"415 72 OFFCURVE",
"393 92 OFFCURVE",
"393 118 CURVE SMOOTH",
"393 139 OFFCURVE",
"397 146 OFFCURVE",
"402 163 CURVE",
"380 165 OFFCURVE",
"363 165 OFFCURVE",
"354 165 CURVE SMOOTH",
"330 165 OFFCURVE",
"306 162 OFFCURVE",
"281 156 CURVE",
"281 129 OFFCURVE",
"289 68 OFFCURVE",
"218 68 CURVE SMOOTH",
"136 68 OFFCURVE",
"83 128 OFFCURVE",
"83 209 CURVE SMOOTH",
"83 299 OFFCURVE"
);
}
);
width = 661;
}
);
leftMetricsKey = sinMa;
rightMetricsKey = sinMa;
unicode = 0DB9;
},
